<?xml version="1.0" encoding="iso-8859-1"?>
<!-- Generator: Adobe Illustrator 19.0.0, SVG Export Plug-In . SVG Version: 6.00 Build 0)  -->
<svg xmlns="http://www.w3.org/2000/svg" xmlns:xlink="http://www.w3.org/1999/xlink" version="1.1" id="Capa_1" x="0px" y="0px" viewBox="0 0 512 512" style="enable-background:new 0 0 512 512;" xml:space="preserve">
<path style="fill:#FAD55A;" d="M255.082,483.444l57.152-57.097c-35.235-18.668-83.448-49.111-131.448-97.066  c-28.202-28.175-65.353-71.41-97.158-131.324c-19.05,19.032-38.1,38.065-57.152,57.097c18.687,35.202,49.157,83.37,97.158,131.324  C151.837,414.553,195.112,451.669,255.082,483.444z"/>
<path style="fill:#FEAD5A;" d="M37.907,154.041l91.442,91.442l-11.431,11.431c-25.251,25.25-66.191,25.25-91.441,0l0,0  c-25.251-25.251-25.251-66.191,0-91.442L37.907,154.041z"/>
<path style="fill:#FF9047;" d="M26.477,231.685L26.477,231.685c-9.401-9.401-15.296-20.977-17.697-33.108  c-4.048,20.454,1.847,42.484,17.696,58.335l0,0c25.25,25.251,66.191,25.251,91.441,0l11.431-11.43l-12.644-12.644  C91.374,256.911,51.331,256.539,26.477,231.685z"/>
<polygon style="fill:#FAD55A;" points="146.495,215.086 66.483,135.149 37.907,152.279 129.349,243.634 "/>
<path style="fill:#FEAD5A;" d="M357.954,474.087l-91.442-91.442l-11.431,11.431c-25.25,25.25-25.25,66.191,0,91.441l0,0  c25.251,25.251,66.191,25.251,91.442,0L357.954,474.087z"/>
<path style="fill:#FF9047;" d="M340.928,457.061l-0.932,0.931c-25.251,25.251-66.191,25.251-91.442,0l0,0  c-5.212-5.212-9.331-11.099-12.391-17.372c0.206,16.272,6.502,32.481,18.919,44.898l0,0c25.251,25.25,66.191,25.25,91.442,0  l11.43-11.431L340.928,457.061z"/>
<polygon style="fill:#FAD55A;" points="295.088,363.538 375.1,443.475 357.954,472.024 266.513,380.668 "/>
<path style="fill:#A46EA0;" d="M358.935,7.577c-80.348,0-145.483,65.135-145.483,145.483c0,27.636,7.707,53.472,21.087,75.478  l-29.169,70.006l73.002-24.334c23.066,15.37,50.767,24.334,80.563,24.334c80.348,0,145.483-65.135,145.483-145.483  S439.283,7.577,358.935,7.577z"/>
<circle style="fill:#E3E3E1;" cx="358.939" cy="153.06" r="113.154"/>
<circle style="fill:#F1F1F0;" cx="358.939" cy="153.06" r="88.906"/>
<path d="M300.446,360.143c-2.459-2.457-6.274-2.927-9.256-1.14l-28.575,17.146c-0.522,0.314-1.03,0.707-1.46,1.14l-6.524,6.523  c-24.345-17.387-47.374-36.846-68.487-57.96c-21.111-21.11-40.579-44.143-57.962-68.483l6.527-6.527  c0.424-0.424,0.833-0.945,1.14-1.46l17.146-28.575c1.789-2.981,1.319-6.798-1.14-9.256l-80.012-80.014  c-2.458-2.457-6.275-2.927-9.256-1.14l-28.576,17.146c-0.524,0.315-1.028,0.705-1.46,1.14l-11.431,11.43  c-27.879,27.88-28.144,73.056-0.828,101.287c25.971,48.746,58.929,93.263,97.986,132.32c39.055,39.056,83.572,72.013,132.318,97.984  C264.566,505.222,282.68,512,300.803,512c18.499,0,36.996-7.042,51.08-21.123l11.43-11.43c0.424-0.424,0.833-0.945,1.14-1.46  l17.146-28.576c1.789-2.981,1.318-6.798-1.14-9.256L300.446,360.143z M65.308,146.437l71.644,71.644l-9.108,15.181l-77.716-77.717  L65.308,146.437z M31.835,170.83l6.072-6.073l80.726,80.726l-6.073,6.072c-22.253,22.256-58.468,22.256-80.725,0  c-0.002-0.002-0.003-0.003-0.005-0.005c-0.007-0.007-0.013-0.014-0.02-0.021C9.58,229.269,9.588,193.076,31.835,170.83z   M47.77,279.156c7.88,2.819,16.153,4.238,24.428,4.238c15.877,0,31.746-5.203,44.831-15.577  c17.569,24.411,37.174,47.527,58.398,68.75c21.226,21.227,44.321,40.845,68.736,58.419c-15.769,19.903-19.547,46.249-11.323,69.24  c-37.764-22.743-72.602-49.977-103.847-81.223C97.746,351.757,70.512,316.919,47.77,279.156z M341.166,480.16  c-22.245,22.248-58.434,22.255-80.693,0.032c-0.012-0.013-0.026-0.025-0.039-0.038c-22.25-22.258-22.248-58.467,0.006-80.72  l6.072-6.073l80.726,80.726L341.166,480.16z M356.45,461.868l-77.716-77.717l15.181-9.108l71.644,71.644L356.45,461.868z"/>
<path d="M358.935,0c-84.397,0-153.06,68.663-153.06,153.06c0,26.775,6.976,52.987,20.21,76.063l-27.71,66.505  c-2.45,5.88,3.343,12.113,9.391,10.103l69.542-23.18c24.427,15.431,52.567,23.569,81.627,23.569  c84.397,0,153.06-68.663,153.06-153.06S443.332,0,358.935,0z M358.935,290.966c-27.312,0-53.718-7.975-76.363-23.062  c-1.259-0.84-2.723-1.272-4.201-1.272c-0.805,0-1.614,0.128-2.396,0.389l-57.208,19.069l22.765-54.638  c0.931-2.236,0.738-4.782-0.52-6.851c-13.072-21.5-19.983-46.239-19.983-71.541c0-76.042,61.864-137.906,137.906-137.906  s137.906,61.864,137.906,137.906S434.976,290.966,358.935,290.966z"/>
<path d="M443.423,66.818c-2.988-2.926-7.785-2.88-10.715,0.109c-2.928,2.989-2.88,7.786,0.109,10.715  c20.438,20.024,31.694,46.808,31.694,75.417c0,58.215-47.362,105.576-105.576,105.576s-105.576-47.362-105.576-105.576  S300.72,47.484,358.935,47.484c15.509,0,30.444,3.282,44.393,9.756c3.793,1.761,8.301,0.113,10.063-3.684  c1.762-3.796,0.113-8.301-3.684-10.063c-15.961-7.408-33.043-11.165-50.772-11.165c-66.572,0-120.731,54.159-120.731,120.731  s54.159,120.731,120.731,120.731s120.731-54.159,120.731-120.731C479.666,120.345,466.795,89.717,443.423,66.818z"/>
<path d="M358.935,64.659c-4.186,0-7.577,3.392-7.577,7.577v106.159c-18.393,2.832-32.33,15.761-32.33,31.242  c0,17.548,17.903,31.824,39.907,31.824s39.907-14.277,39.907-31.824c0-15.482-13.937-28.411-32.33-31.242v-50.088h8.588  c4.186,0,7.577-3.392,7.577-7.577c0-4.186-3.392-7.577-7.577-7.577h-8.588v-9.093h16.67c4.186,0,7.577-3.392,7.577-7.577  c0-4.186-3.392-7.577-7.577-7.577h-16.67v-16.67C366.512,68.051,363.12,64.659,358.935,64.659z M383.687,209.637  c0,9.036-11.336,16.67-24.752,16.67s-24.752-7.634-24.752-16.67c0-9.036,11.336-16.67,24.752-16.67S383.687,200.601,383.687,209.637  z"/>
<g>
</g>
<g>
</g>
<g>
</g>
<g>
</g>
<g>
</g>
<g>
</g>
<g>
</g>
<g>
</g>
<g>
</g>
<g>
</g>
<g>
</g>
<g>
</g>
<g>
</g>
<g>
</g>
<g>
</g>
</svg>
