<?xml version="1.0" encoding="iso-8859-1"?>
<!-- Generator: Adobe Illustrator 19.0.0, SVG Export Plug-In . SVG Version: 6.00 Build 0)  -->
<svg xmlns="http://www.w3.org/2000/svg" xmlns:xlink="http://www.w3.org/1999/xlink" version="1.1" id="Capa_1" x="0px" y="0px" viewBox="0 0 512 512" style="enable-background:new 0 0 512 512;" xml:space="preserve">
<path style="fill:#E3E3E1;" d="M183.859,111.726c-97.392,0-176.344,69.607-176.344,155.471c0,51.631,28.555,97.375,72.494,125.65  L47.593,472.43l96.845-53.668c12.675,2.552,25.869,3.904,39.421,3.904c97.392,0,176.344-69.607,176.344-155.471  S281.251,111.726,183.859,111.726z"/>
<path style="fill:#F1F1F0;" d="M109.809,383.429l-16.789-10.804c-18.835-12.121-34.403-28.048-45.022-46.057  c-10.906-18.501-16.437-38.477-16.437-59.372c0-72.467,68.32-131.423,152.297-131.423s152.297,58.956,152.297,131.423  c0,72.468-68.32,131.425-152.297,131.425c-11.7,0-23.366-1.154-34.674-3.432l-8.668-1.744L95.59,418.342L109.809,383.429z"/>
<path style="fill:#E3E3E1;" d="M472.423,39.585H191.875c-17.708,0-32.063,14.355-32.063,32.063v240.47  c0,17.708,14.355,32.063,32.063,32.063h150.962l113.555,80.157l-26.719-80.157h42.75c17.708,0,32.063-14.355,32.063-32.063V71.648  C504.485,53.94,490.13,39.585,472.423,39.585z"/>
<path style="fill:#F1F1F0;" d="M350.469,320.133H191.875c-4.42,0-8.016-3.596-8.016-8.016V71.648c0-4.42,3.596-8.016,8.016-8.016  h280.548c4.42,0,8.016,3.596,8.016,8.016v240.47c0,4.42-3.596,8.016-8.016,8.016h-76.115l14.106,42.314L350.469,320.133z"/>
<path style="fill:#FAD55A;" d="M337.095,342.251c14.703-22.676,23.108-48.929,23.108-76.911  c0-85.783-78.952-155.324-176.344-155.324c-8.158,0-16.183,0.499-24.047,1.444v198.759c0,17.691,14.355,32.033,32.063,32.033  L337.095,342.251L337.095,342.251z"/>
<path style="fill:#F5577E;" d="M254.852,217.721c-40.195-40.917-75.335-3.009-46.212,29.966  c16.895,19.129,46.212,46.212,46.212,46.212s29.316-27.083,46.212-46.212C330.187,214.712,295.046,176.804,254.852,217.721z"/>
<path style="fill:#CE384F;" d="M226.647,239.671c-13.052-14.779-13.191-30.544-5.756-39.764  c-21.779-0.217-32.407,24.959-12.251,47.779c16.895,19.129,46.212,46.212,46.212,46.212s5.553-5.13,13.215-12.497  C259.053,272.911,239.343,254.047,226.647,239.671z"/>
<path d="M504.485,103.209c4.151,0,7.515-3.364,7.515-7.515V71.648c0-21.823-17.755-39.577-39.577-39.577H191.875  c-21.823,0-39.577,17.755-39.577,39.577v34.975C65.904,119.928,0,186.864,0,267.196c0,26.235,7.197,52.308,20.812,75.401  c12.104,20.53,29.287,38.784,49.925,53.091l-30.103,73.908c-1.108,2.722-0.494,5.928,1.544,8.045  c2.335,2.425,6.112,2.996,9.059,1.364l94.454-52.342c12.495,2.337,25.32,3.521,38.17,3.521c66.379,0,124.65-31.346,156.978-78.216  l111.221,78.508c2.844,2.007,6.8,1.764,9.379-0.572c2.187-1.981,3.016-5.144,2.083-7.944l-23.423-70.265h32.324  c21.823,0,39.577-17.755,39.577-39.577V132.099c0-4.151-3.364-7.515-7.515-7.515s-7.515,3.364-7.515,7.515v180.019  c0,13.536-11.012,24.548-24.548,24.548h-42.75c-5.04,0-8.726,5.102-7.129,9.891l19.48,58.439l-93.241-65.817  c12.114-21.721,18.936-46.158,18.936-71.984c0-89.87-82.478-162.984-183.859-162.984c-5.573,0-11.085,0.233-16.532,0.666v-33.23  c0-13.536,11.012-24.548,24.548-24.548h280.548c13.536,0,24.548,11.012,24.548,24.548v24.047  C496.971,99.845,500.334,103.209,504.485,103.209z M183.859,415.153c-12.794,0-25.558-1.264-37.937-3.756  c-1.748-0.353-3.566-0.071-5.126,0.794l-78.204,43.338l24.376-59.846c1.364-3.351,0.148-7.197-2.894-9.154  c-43.233-27.822-69.045-72.432-69.045-119.332c0-72.131,59.209-132.362,137.268-145.351v190.273  c0,21.823,17.755,39.577,39.577,39.577h130.491C291.826,390.024,241.132,415.153,183.859,415.153z M183.859,119.241  c93.093,0,168.83,66.373,168.83,147.955c0,25.093-7.174,48.743-19.806,69.47H191.875c-13.536,0-24.548-11.012-24.548-24.548V119.951  C172.767,119.485,178.281,119.241,183.859,119.241z"/>
<path d="M249.753,299.417c2.841,2.626,7.356,2.625,10.198,0c1.208-1.116,29.792-27.562,46.745-46.756  c17.631-19.962,14.97-41.477,3.231-52.414c-11.662-10.861-32.742-12.327-55.076,7.145c-22.334-19.473-43.415-18.008-55.075-7.145  c-11.74,10.936-14.4,32.452,3.231,52.414C219.961,271.856,248.544,298.301,249.753,299.417z M210.021,211.244  c2.626-2.446,6.268-3.876,10.661-3.876c7.75,0,17.838,4.45,28.808,15.618c2.903,2.956,7.819,2.956,10.722,0  c17.19-17.498,32.21-18.505,39.47-11.743c6.418,5.98,7.019,18.708-4.25,31.467c-12.265,13.886-31.483,32.312-40.58,40.893  c-9.096-8.58-28.309-27-40.579-40.893C203.002,229.952,203.603,217.223,210.021,211.244z"/>
<g>
</g>
<g>
</g>
<g>
</g>
<g>
</g>
<g>
</g>
<g>
</g>
<g>
</g>
<g>
</g>
<g>
</g>
<g>
</g>
<g>
</g>
<g>
</g>
<g>
</g>
<g>
</g>
<g>
</g>
</svg>
