<?xml version="1.0" encoding="iso-8859-1"?>
<!-- Generator: Adobe Illustrator 19.0.0, SVG Export Plug-In . SVG Version: 6.00 Build 0)  -->
<svg xmlns="http://www.w3.org/2000/svg" xmlns:xlink="http://www.w3.org/1999/xlink" version="1.1" id="Capa_1" x="0px" y="0px" viewBox="0 0 512 512" style="enable-background:new 0 0 512 512;" xml:space="preserve">
<path style="fill:#FCEAAC;" d="M320.311,502.925h-288V263.166c0-17.665,14.32-31.985,31.985-31.985h224.03  c17.665,0,31.985,14.32,31.985,31.985V502.925z"/>
<path style="fill:#CC8FC8;" d="M288.311,232h-64c0,26.51-21.49,48-48,48s-48-21.49-48-48h-64c-17.673,0-32,14.327-32,32v240h288V264  C320.311,246.327,305.984,232,288.311,232z"/>
<g>
	<path style="fill:#A46EA0;" d="M96.311,232h-32c-17.673,0-32,14.327-32,32v240h32V264C64.311,246.327,78.637,232,96.311,232z"/>
	<rect x="32.308" y="456" style="fill:#A46EA0;" width="288" height="48"/>
</g>
<g>
	<rect x="32.308" y="456" style="fill:#89589C;" width="32" height="48"/>
	<path style="fill:#89589C;" d="M150.89,272.71c-13.556-8.483-22.579-23.54-22.579-40.71h-40v72L150.89,272.71z"/>
	<path style="fill:#89589C;" d="M264.311,232h-40c0,17.171-9.023,32.227-22.579,40.71L264.311,304V232z"/>
</g>
<path style="fill:#FCEAAC;" d="M232.326,215.196h-112.03c-17.665,0-31.985-14.32-31.985-31.985V37.361h176V183.21  C264.311,200.876,249.99,215.196,232.326,215.196z"/>
<path style="fill:#FBDD7B;" d="M256.311,191.218h-128c-8.837,0-16-7.157-16-15.985V37.361h-24v145.865  c0,17.656,14.327,31.97,32,31.97h112c15.203,0,27.92-10.595,31.181-24.795C261.182,190.93,258.781,191.218,256.311,191.218z"/>
<path style="fill:#838076;" d="M72.311,39v106l32,24v-64l32,8l40-32v32l72-8v64l32-24V39c0-17.673-14.327-32-32-32h-144  C86.637,7,72.311,21.327,72.311,39z"/>
<g>
	<polygon style="fill:#757267;" points="144.311,106.6 145.834,105.381 144.311,105  "/>
	<path style="fill:#757267;" d="M112.311,39c0-17.673,14.327-32,32-32h-40c-17.673,0-32,14.327-32,32v106l32,24v-64l8,2V39z"/>
</g>
<ellipse style="fill:#FAD55A;" cx="304.308" cy="143.26" rx="24" ry="23.977"/>
<circle style="fill:#FEAD5A;" cx="48.308" cy="145" r="24"/>
<path style="fill:#E3E3E1;" d="M368.311,268c-23.852,0-46.077,6.148-64.759,16.746L240.311,256l27.378,60.232  c-12.253,16.619-19.378,36.457-19.378,57.768c0,58.542,53.726,106,120,106s120-47.458,120-106S434.585,268,368.311,268z"/>
<path style="fill:#D6D5D1;" d="M392.311,464c-66.274,0-120-46.563-120-104c0-33.963,18.787-64.12,47.843-83.101  c-5.784,2.242-11.338,4.86-16.602,7.847L240.311,256l27.378,60.232c-12.253,16.619-19.378,36.457-19.378,57.768  c0,58.542,53.726,106,120,106c32.174,0,61.389-11.186,82.937-29.394C433.838,459.13,413.732,464,392.311,464z"/>
<path d="M132.811,125.5h-1c-4.142,0-7.5,3.357-7.5,7.5s3.358,7.5,7.5,7.5h1c4.142,0,7.5-3.357,7.5-7.5S136.953,125.5,132.811,125.5z  "/>
<path d="M220.811,125.5h-1c-4.142,0-7.5,3.357-7.5,7.5s3.358,7.5,7.5,7.5h1c4.142,0,7.5-3.357,7.5-7.5S224.953,125.5,220.811,125.5z  "/>
<path d="M195.81,171.001c-3.236,2.427-10.072,6.499-19.5,6.499c-4.046,0-11.959-0.845-19.5-6.5c-3.313-2.484-8.015-1.813-10.5,1.5  s-1.813,8.015,1.5,10.5c11.021,8.266,22.587,9.5,28.5,9.5c13.779,0,23.771-5.952,28.5-9.501c3.313-2.485,3.985-7.187,1.499-10.5  C203.825,169.188,199.123,168.514,195.81,171.001z"/>
<path d="M177.311,320.5h-1c-4.142,0-7.5,3.357-7.5,7.5s3.358,7.5,7.5,7.5h1c4.142,0,7.5-3.357,7.5-7.5S181.453,320.5,177.311,320.5z  "/>
<path d="M177.311,360.5h-1c-4.142,0-7.5,3.357-7.5,7.5s3.358,7.5,7.5,7.5h1c4.142,0,7.5-3.357,7.5-7.5S181.453,360.5,177.311,360.5z  "/>
<path d="M177.311,400.5h-1c-4.142,0-7.5,3.357-7.5,7.5s3.358,7.5,7.5,7.5h1c4.142,0,7.5-3.357,7.5-7.5S181.453,400.5,177.311,400.5z  "/>
<path d="M444.458,282.944c-3.449-2.29-8.105-1.35-10.396,2.103c-2.291,3.451-1.349,8.105,2.103,10.396  c28.373,18.826,44.646,47.459,44.646,78.558c0,54.313-50.468,98.5-112.5,98.5s-112.5-44.187-112.5-98.5  c0-18.984,6.194-37.421,17.914-53.316c1.614-2.188,1.917-5.079,0.792-7.555l-19.103-42.025l45.034,20.471  c2.186,0.993,4.715,0.881,6.805-0.305c18.184-10.316,39.298-15.77,61.058-15.77c12.963,0,25.668,1.914,37.763,5.689  c3.952,1.237,8.159-0.971,9.394-4.925c1.234-3.953-0.971-8.159-4.925-9.394c-13.542-4.228-28.001-6.371-42.481-6.371  c-13.88,0-27.75,2.005-40.75,5.865V264c0-21.78-17.22-39-39-39h-56c21.78,0,39-18.22,39-40v-24c0-0.081,0.24-0.16,0.238-0.241  l3.918-2.845c4.942,10.945,16.014,18.585,28.782,18.585c17.369,0,31.281-14.131,31.281-31.5c0-14.785-10.219-27.216-24.219-30.591  V89c0-16.281-9-30.29-24-36.328V39c0-21.78-17.22-39-39-39h-144c-21.78,0-40,17.22-40,39v13.672c-14,6.038-24,20.047-24,36.328  v25.409c-13,3.375-24,15.806-24,30.591s11,27.216,24,30.591V193c0,4.143,3.858,8,8,8h35.672c6.038,14,20.047,24,36.328,24h-56  c-21.78,0-40,17.22-40,39v240c0,4.143,3.858,8,8,8h288c4.143,0,7-3.857,7-8v-22.372c13,3.806,26.599,5.872,40.75,5.872  c70.304,0,127.625-50.916,127.625-113.5C495.686,337.786,477.094,304.598,444.458,282.944z M287.311,70.042  c6,4.497,9,11.324,9,18.958v25.409c-3,0.791-6,2.074-9,3.772V70.042z M304.311,128.5c9.098,0,16.5,7.402,16.5,16.5  s-7.402,16.5-16.5,16.5s-16.5-7.402-16.5-16.5S295.213,128.5,304.311,128.5z M79.311,39c0-13.51,11.491-24,25-24h144  c13.51,0,24,10.49,24,24v10.513c0-0.002,0.168,0.487,0,0.487h-192c-0.168,0,0-0.489-1-0.487L79.311,39L79.311,39z M55.311,89  c0-7.634,4-14.461,9-18.958v48.139c-2-1.698-5-2.981-9-3.772C55.311,114.409,55.311,89,55.311,89z M31.811,145  c0-9.098,7.402-16.5,16.5-16.5s16.5,7.402,16.5,16.5s-7.402,16.5-16.5,16.5S31.811,154.098,31.811,145z M55.311,186v-10.409  c10-2.324,17.528-8.947,21.469-17.676l3.668,2.845c-0.003,0.081-0.137,0.16-0.137,0.241v24c0,0.167,0.511,0,0.513,1H55.311V186z   M79.311,141.25V64.513c1-0.003,0.832,0.487,1,0.487h192c0.168,0,0-0.491,0-0.487v76.737l-17,12.75v-49  c0-4.396-3.951-7.949-8.328-7.454l-63.672,7.074V81c0-6.153-7.114-9.712-11.935-5.856l-36.975,29.68l-28.584-7.1  c-4.662-1.166-9.506,2.479-9.506,7.276v49L79.311,141.25z M101.353,201h34.958c4.142,0,7.5-3.357,7.5-7.5s-3.358-7.5-7.5-7.5H95.823  c-0.003-1-0.013-13.75-0.013-13.75l3.75,2.875c4.853,3.64,11.75-0.072,11.75-6.125v-54.395l22.931,5.671  c2.27,0.566,4.551,0.042,6.379-1.42l27.69-22.252V113c0,4.395,3.952,7.953,8.328,7.454l63.672-7.074V169c0,6.046,7.143,9.642,12,6  l4-3v13c0,13.51-10.491,25-24,25h-112C112.677,210,105.85,206,101.353,201z M216.103,240c-3.529,18-20.024,33-39.792,33  s-36.264-15-39.792-33H216.103z M95.311,240h26.005c1.67,12,7.15,23.092,15.532,31.472l-41.537,20.394V240z M312.311,497h-273v-33  h217c4.143,0,7.5-3.357,7.5-7.5s-3.357-7.5-7.5-7.5h-217V264c0-13.51,11.491-24,25-24h16v64c0,5.465,6.196,9.162,11.104,6.708  l59.136-29.505c7.674,4.014,16.453,6.297,25.697,6.297s17.992-2.283,25.666-6.297l19.028,9.505c3.658,1.832,8.244,0.299,10.07-3.354  c1.852-3.704,0.354-8.21-3.351-10.062l-12.139-5.82c8.382-8.38,14.114-19.472,15.784-31.472h25.005v8c0,4.143,3.357,7.5,7.5,7.5  s7.5-3.357,7.5-7.5v-8h17c13.51,0,24,10.49,24,24v7.803c-3,1.4-6.199,2.912-9.32,4.563l-59.701-27.194  c-6.172-2.804-12.676,3.758-9.869,9.932l25.628,56.314c-11.967,17.65-18.504,37.813-18.504,58.582  c0,44.886,29.766,83.768,71.766,102.17V497z"/>
<path d="M392.811,344v40.5h-17v-57h0.5c4.143,0,7.5-3.357,7.5-7.5s-3.357-7.5-7.5-7.5h-16c-4.143,0-7.5,3.357-7.5,7.5  s3.357,7.5,7.5,7.5h0.5v57h-17V344c0-4.143-3.357-7.5-7.5-7.5h-16c-4.143,0-7.5,3.357-7.5,7.5s3.357,7.5,7.5,7.5h8.5V392  c0,4.143,3.357,7.5,7.5,7.5h24.5v33h-0.5c-4.143,0-7.5,3.357-7.5,7.5s3.357,7.5,7.5,7.5h16c4.143,0,7.5-3.357,7.5-7.5  s-3.357-7.5-7.5-7.5h-0.5v-33h24.5c4.143,0,7.5-3.357,7.5-7.5v-40.5h8.5c4.143,0,7.5-3.357,7.5-7.5s-3.357-7.5-7.5-7.5h-16  C396.168,336.5,392.811,339.857,392.811,344z"/>
<g>
</g>
<g>
</g>
<g>
</g>
<g>
</g>
<g>
</g>
<g>
</g>
<g>
</g>
<g>
</g>
<g>
</g>
<g>
</g>
<g>
</g>
<g>
</g>
<g>
</g>
<g>
</g>
<g>
</g>
</svg>
