<?xml version="1.0" encoding="iso-8859-1"?>
<!-- Generator: Adobe Illustrator 19.0.0, SVG Export Plug-In . SVG Version: 6.00 Build 0)  -->
<svg xmlns="http://www.w3.org/2000/svg" xmlns:xlink="http://www.w3.org/1999/xlink" version="1.1" id="Capa_1" x="0px" y="0px" viewBox="0 0 512.001 512.001" style="enable-background:new 0 0 512.001 512.001;" xml:space="preserve">
<path style="fill:#FF82A4;" d="M256.001,150.875c-66.523-60.853-129.061,11.105-108.099,69.546  c24.946,69.546,108.099,113.012,108.099,113.012s83.153-43.466,108.099-113.012C385.062,161.98,322.523,90.023,256.001,150.875z"/>
<path style="fill:#F5577E;" d="M171.948,212.405c-11.558-32.22,2.272-68.538,28.152-84.454  c-40.301,3.442-66.964,51.306-52.199,92.47c24.946,69.546,108.099,113.012,108.099,113.012s7.407-3.874,18.461-11.153  C255.409,311.15,192.984,271.05,171.948,212.405z"/>
<path style="fill:#FBDD7B;" d="M79.656,238.138c8.854,0,16.031,7.171,16.031,16.016V358.26H63.625V254.154  C63.625,245.309,70.802,238.138,79.656,238.138z"/>
<path style="fill:#FEAD5A;" d="M63.625,256c0-7.588,5.277-13.928,12.357-15.591v119.795H63.625V256z"/>
<path style="fill:#FBDD7B;" d="M111.719,270.171c8.854,0,16.031,7.171,16.031,16.016v104.105H95.687V286.187  C95.687,277.342,102.864,270.171,111.719,270.171z"/>
<path style="fill:#FEAD5A;" d="M95.687,288.063c0-7.347,4.949-13.525,11.69-15.42v119.624h-11.69V288.063z"/>
<path style="fill:#FBDD7B;" d="M143.781,310.212c8.854,0,16.031,7.171,16.031,16.016v104.105H127.75V326.227  C127.75,317.382,134.927,310.212,143.781,310.212z"/>
<path style="fill:#FEAD5A;" d="M127.75,328.141c0-7.347,4.949-13.525,11.69-15.42v119.624h-11.69V328.141z"/>
<g>
	<path style="fill:#FAD55A;" d="M151.797,502.406v-24.024l-48.094-32.033l-72.141-72.073v-88.542c0-9.102,7.6-16.431,16.806-15.998   c8.623,0.406,15.257,7.826,15.257,16.45v56.056l64.125,40.04h32.063c35.415,0,64.125,28.683,64.125,64.065v56.056"/>
	<path style="fill:#FAD55A;" d="M85.381,339.012l42.369,42.97l-22.672,22.651L62.54,361.492c-6.213-6.301-6.137-16.442,0.17-22.65   C69.017,332.634,79.168,332.711,85.381,339.012z"/>
</g>
<g>
	<path style="fill:#FEAD5A;" d="M114.406,397.292l-9.328,9.329L62.54,363.439c-5.391-5.473-6.04-13.835-1.999-20.012   L114.406,397.292z"/>
	<path style="fill:#FEAD5A;" d="M47.593,271.6v96.619l72.141,72.141l52.071,29.755c2.498,1.427,4.039,4.083,4.039,6.96v27.411   h-24.047v-24.047l-48.094-32.063l-72.141-72.141V287.61C31.562,278.757,38.742,271.603,47.593,271.6z"/>
</g>
<path style="fill:#FBDD7B;" d="M432.345,238.138c-8.854,0-16.031,7.171-16.031,16.016V358.26h32.063V254.154  C448.376,245.309,441.199,238.138,432.345,238.138z"/>
<path style="fill:#FEAD5A;" d="M448.376,256c0-7.588-5.277-13.928-12.357-15.591v119.795h12.357V256z"/>
<path style="fill:#FBDD7B;" d="M400.282,270.171c-8.854,0-16.031,7.171-16.031,16.016v104.105h32.063V286.187  C416.314,277.342,409.137,270.171,400.282,270.171z"/>
<path style="fill:#FEAD5A;" d="M416.314,288.063c0-7.347-4.949-13.525-11.69-15.42v119.624h11.69V288.063z"/>
<path style="fill:#FBDD7B;" d="M368.22,310.212c-8.854,0-16.031,7.171-16.031,16.016v104.105h32.063V326.227  C384.251,317.382,377.074,310.212,368.22,310.212z"/>
<path style="fill:#FEAD5A;" d="M384.251,328.141c0-7.347-4.949-13.525-11.69-15.42v119.624h11.69V328.141z"/>
<g>
	<path style="fill:#FAD55A;" d="M360.204,502.406v-24.024l48.094-32.033l72.141-72.073v-88.542c0-9.102-7.6-16.431-16.806-15.998   c-8.623,0.406-15.257,7.826-15.257,16.45v56.056l-64.125,40.04h-32.063c-35.415,0-64.125,28.683-64.125,64.065v56.056"/>
	<path style="fill:#FAD55A;" d="M426.62,339.012l-42.369,42.97l22.672,22.651l42.538-43.141c6.213-6.301,6.137-16.442-0.17-22.65   C442.984,332.634,432.833,332.711,426.62,339.012z"/>
</g>
<g>
	<path style="fill:#FEAD5A;" d="M397.595,397.292l9.328,9.329l42.538-43.182c5.391-5.473,6.04-13.835,1.999-20.012L397.595,397.292z   "/>
	<path style="fill:#FEAD5A;" d="M464.408,271.6v96.619l-72.141,72.141l-52.071,29.755c-2.498,1.427-4.039,4.083-4.039,6.96v27.411   h24.047v-24.047l48.094-32.063l72.141-72.141V287.61C480.439,278.757,473.259,271.603,464.408,271.6z"/>
</g>
<path d="M167.327,377.133v-48.992c0-12.983-10.563-23.546-23.546-23.546c-3.003,0-5.873,0.571-8.517,1.601v-18.133  c0-12.983-10.563-23.546-23.546-23.546c-3.003,0-5.873,0.571-8.517,1.601V256c0-12.983-10.563-23.546-23.546-23.546  S56.11,243.017,56.11,256v9.673c-2.306-0.907-4.787-1.461-7.388-1.583c-6.492-0.306-12.678,1.995-17.38,6.482  c-4.636,4.423-7.294,10.633-7.294,17.038v16.484c0,4.151,3.365,7.515,7.515,7.515s7.515-3.364,7.515-7.515V287.61  c0-4.804,4.138-8.746,8.937-8.506c4.464,0.209,8.096,4.229,8.096,8.958v48.797c-7.893,9.182-7.571,23.073,1.076,31.852  l42.538,43.182c3.077,3.122,8.31,2.894,11.123-0.46c2.452-2.926,2.259-7.371-0.416-10.088l-42.538-43.181  c-3.295-3.347-3.255-8.749,0.09-12.045c3.3-3.252,8.797-3.207,12.045,0.091l41.299,41.925c1.318,2.172,3.697,3.629,6.424,3.629  h32.063c31.215,0,56.611,25.396,56.611,56.611v56.11c0,4.151,3.365,7.515,7.515,7.515s7.515-3.364,7.515-7.515v-56.11  C231.453,411.412,203.311,380.901,167.327,377.133z M143.781,319.624c4.696,0,8.517,3.82,8.517,8.517v48.595h-17.033v-1.002v-47.593  C135.265,323.445,139.085,319.624,143.781,319.624z M111.719,279.546c4.696,0,8.517,3.82,8.517,8.517v40.078v37.469l-17.064-17.323  c0.016-0.201,0.031-0.404,0.031-0.609v-2.004v-57.613C103.202,283.366,107.023,279.546,111.719,279.546z M74.137,328.643  c-1.01-0.006-2.01,0.058-2.998,0.175v-40.756V256c0-4.696,3.82-8.517,8.517-8.517s8.517,3.82,8.517,8.517v32.063v45.349  C84.153,330.355,79.277,328.681,74.137,328.643z"/>
<path d="M155.965,474.186l-47.475-31.65l-69.414-69.414v-28.951c0-4.151-3.365-7.515-7.515-7.515s-7.515,3.364-7.515,7.515v32.063  c0,1.993,0.792,3.904,2.201,5.314L98.39,453.69c0.35,0.35,0.733,0.664,1.145,0.939l44.747,29.831v20.025  c0,4.151,3.365,7.515,7.515,7.515s7.515-3.364,7.515-7.515v-24.047C159.312,477.925,158.056,475.579,155.965,474.186z"/>
<path d="M480.659,270.571c-4.702-4.487-10.877-6.798-17.38-6.481c-2.601,0.122-5.083,0.676-7.388,1.582V256  c0-12.983-10.563-23.546-23.546-23.546c-12.983,0-23.546,10.563-23.546,23.546v10.118c-2.643-1.03-5.514-1.601-8.517-1.601  c-12.983,0-23.546,10.563-23.546,23.546v18.133c-2.643-1.03-5.514-1.601-8.517-1.601c-12.983,0-23.546,10.563-23.546,23.546v48.992  c-35.983,3.768-64.125,34.28-64.125,71.243v56.11c0,4.151,3.365,7.515,7.515,7.515c4.15,0,7.515-3.364,7.515-7.515v-56.11  c0-31.215,25.396-56.611,56.611-56.611h32.063c2.726,0,5.107-1.457,6.424-3.63l41.299-41.925c3.259-3.308,8.736-3.349,12.043-0.09  c3.346,3.295,3.386,8.699,0.091,12.044l-42.538,43.182c-2.68,2.72-2.862,7.156-0.416,10.088c2.805,3.361,8.052,3.577,11.123,0.46  l42.539-43.183c8.646-8.778,8.97-22.669,1.076-31.851v-48.797c0-4.73,3.632-8.749,8.095-8.959c4.8-0.192,8.938,3.673,8.938,8.507  v56.562v28.951l-69.414,69.414l-47.476,31.65c-2.09,1.394-3.347,3.739-3.347,6.252v24.047c0,4.151,3.365,7.515,7.515,7.515  c4.15,0,7.515-3.364,7.515-7.515V484.46l44.747-29.831c0.412-0.274,0.796-0.589,1.145-0.939l72.141-72.141  c1.41-1.41,2.201-3.32,2.201-5.314v-32.063V287.61C487.954,281.204,485.295,274.994,480.659,270.571z M391.766,288.063  c0-4.696,3.82-8.517,8.517-8.517c4.696,0,8.517,3.82,8.517,8.517v57.613v2.004c0,0.206,0.015,0.408,0.031,0.609l-17.064,17.323  v-37.47V288.063z M368.22,319.624c4.696,0,8.517,3.82,8.517,8.517v47.593v1.002h-17.033v-48.595  C359.703,323.445,363.523,319.624,368.22,319.624z M437.864,328.643c-5.14,0.038-10.016,1.712-14.035,4.768v-45.349V256  c0-4.696,3.82-8.517,8.517-8.517c4.696,0,8.517,3.82,8.517,8.517v32.063v40.765c-0.93-0.11-1.867-0.185-2.817-0.185  C437.985,328.642,437.924,328.642,437.864,328.643z"/>
<path d="M371.172,222.957c11.991-33.429-0.597-73.034-29.282-92.121c-12.704-8.455-27.353-11.96-42.37-10.128  c-14.807,1.803-29.422,8.596-43.521,20.213c-14.098-11.618-28.713-18.411-43.521-20.213c-15.013-1.832-29.665,1.674-42.37,10.128  c-28.685,19.088-41.274,58.692-29.282,92.121c25.642,71.488,108.189,115.304,111.691,117.134c2.159,1.13,4.802,1.13,6.962,0  C262.983,338.263,345.53,294.445,371.172,222.957z M256.001,324.831c-15.735-9.039-80.226-48.96-101.025-106.948  c-9.727-27.118,0.359-59.162,23.462-74.536c8.124-5.406,16.964-8.074,26.16-8.074c15.042,0,31.03,7.147,46.331,21.145  c2.871,2.626,7.273,2.626,10.144,0c24.657-22.557,51.079-27.32,72.493-13.072c23.103,15.374,33.189,47.417,23.462,74.536  C336.226,275.872,271.733,315.795,256.001,324.831z"/>
<path d="M304.094,195.1h-16.031c-4.15,0-7.515,3.364-7.515,7.515v40.579h-17.033v-57.112h0.501c4.15,0,7.515-3.364,7.515-7.515  c0-4.151-3.365-7.515-7.515-7.515h-16.031c-4.15,0-7.515,3.364-7.515,7.515c0,4.151,3.365,7.515,7.515,7.515h0.501v57.112h-17.033  v-40.579c0-4.151-3.365-7.515-7.515-7.515h-16.031c-4.15,0-7.515,3.364-7.515,7.515c0,4.151,3.365,7.515,7.515,7.515h8.517v40.579  c0,4.151,3.365,7.515,7.515,7.515h24.548v33.065h-0.501c-4.15,0-7.515,3.364-7.515,7.515c0,4.151,3.365,7.515,7.515,7.515h16.031  c4.15,0,7.515-3.364,7.515-7.515c0-4.151-3.365-7.515-7.515-7.515h-0.501v-33.065h24.548c4.15,0,7.515-3.364,7.515-7.515v-40.579  h8.517c4.15,0,7.515-3.364,7.515-7.515C311.609,198.464,308.245,195.1,304.094,195.1z"/>
<path d="M178.122,39.529c1.199,2.895,3.997,4.641,6.946,4.641c0.959,0,1.933-0.185,2.873-0.574c3.834-1.588,5.655-5.985,4.067-9.818  l-3.068-7.405c-1.588-3.834-5.985-5.653-9.818-4.067c-3.834,1.588-5.655,5.985-4.067,9.818L178.122,39.529z"/>
<path d="M190.393,69.153l0.384,0.926c1.199,2.894,3.997,4.64,6.946,4.64c0.959,0,1.934-0.185,2.874-0.574  c3.834-1.589,5.654-5.986,4.066-9.819l-0.384-0.926c-1.589-3.834-5.985-5.653-9.819-4.066  C190.624,60.923,188.804,65.319,190.393,69.153z"/>
<path d="M117.247,142.299c-3.833-1.586-8.229,0.23-9.819,4.066c-1.588,3.833,0.231,8.23,4.066,9.819l0.926,0.384  c0.941,0.39,1.915,0.574,2.874,0.574c2.948,0,5.746-1.746,6.946-4.64c1.588-3.833-0.231-8.23-4.066-9.819L117.247,142.299z"/>
<path d="M74.467,140.845l7.405,3.068c0.94,0.391,1.915,0.574,2.873,0.574c2.949,0,5.747-1.747,6.946-4.641  c1.588-3.834-0.232-8.23-4.067-9.818l-7.405-3.068c-3.832-1.593-8.23,0.232-9.818,4.067  C68.812,134.862,70.633,139.257,74.467,140.845z"/>
<path d="M399.582,156.567l0.926-0.384c3.834-1.589,5.654-5.986,4.066-9.819c-1.589-3.833-5.986-5.654-9.819-4.066l-0.926,0.384  c-3.834,1.589-5.654,5.986-4.066,9.819c1.199,2.894,3.997,4.64,6.946,4.64C397.666,157.141,398.641,156.956,399.582,156.567z"/>
<path d="M427.255,144.487c0.959,0,1.933-0.185,2.873-0.574l7.405-3.068c3.834-1.588,5.655-5.984,4.067-9.818  c-1.588-3.834-5.986-5.654-9.818-4.067l-7.405,3.068c-3.835,1.588-5.655,5.984-4.067,9.818  C421.509,142.741,424.306,144.487,427.255,144.487z"/>
<path d="M311.406,74.144c0.941,0.39,1.915,0.574,2.874,0.574c2.948,0,5.746-1.746,6.946-4.64l0.384-0.926  c1.588-3.833-0.231-8.23-4.066-9.819c-3.832-1.586-8.23,0.23-9.819,4.066l-0.384,0.926  C305.752,68.158,307.571,72.555,311.406,74.144z"/>
<path d="M324.059,43.596c0.94,0.391,1.915,0.574,2.873,0.574c2.949,0,5.746-1.746,6.946-4.641l3.068-7.405  c1.588-3.833-0.232-8.23-4.067-9.818c-3.833-1.592-8.23,0.231-9.818,4.067l-3.068,7.405  C318.404,37.611,320.225,42.008,324.059,43.596z"/>
<path d="M256.001,31.061c4.15,0,7.515-3.364,7.515-7.515V7.515c0-4.151-3.365-7.515-7.515-7.515c-4.15,0-7.515,3.364-7.515,7.515  v16.031C248.486,27.697,251.85,31.061,256.001,31.061z"/>
<path d="M256.001,79.155c4.15,0,7.515-3.364,7.515-7.515V55.609c0-4.151-3.365-7.515-7.515-7.515c-4.15,0-7.515,3.364-7.515,7.515  V71.64C248.486,75.791,251.85,79.155,256.001,79.155z"/>
<path d="M114.656,85.205c1.467,1.467,3.391,2.2,5.313,2.2c1.923,0,3.847-0.733,5.313-2.2c2.935-2.936,2.935-7.693,0-10.628  l-11.335-11.335c-2.935-2.934-7.693-2.934-10.627,0c-2.935,2.936-2.935,7.693,0,10.628L114.656,85.205z"/>
<path d="M148.665,119.213c1.467,1.467,3.391,2.2,5.313,2.2s3.847-0.733,5.313-2.201c2.935-2.935,2.935-7.693,0-10.627L147.955,97.25  c-2.935-2.934-7.693-2.935-10.627,0.001c-2.935,2.935-2.935,7.693,0,10.627L148.665,119.213z"/>
<path d="M47.593,223.436h16.031c4.15,0,7.515-3.364,7.515-7.515s-3.365-7.515-7.515-7.515H47.593c-4.15,0-7.515,3.364-7.515,7.515  S43.443,223.436,47.593,223.436z"/>
<path d="M88.173,215.922c0,4.151,3.365,7.515,7.515,7.515h16.031c4.15,0,7.515-3.364,7.515-7.515s-3.365-7.515-7.515-7.515H95.687  C91.537,208.407,88.173,211.771,88.173,215.922z"/>
<path d="M448.376,223.436h16.031c4.15,0,7.515-3.364,7.515-7.515s-3.365-7.515-7.515-7.515h-16.031c-4.15,0-7.515,3.364-7.515,7.515  S444.226,223.436,448.376,223.436z"/>
<path d="M392.768,215.922c0,4.151,3.365,7.515,7.515,7.515h16.031c4.15,0,7.515-3.364,7.515-7.515s-3.365-7.515-7.515-7.515h-16.031  C396.132,208.407,392.768,211.771,392.768,215.922z"/>
<path d="M392.031,87.406c1.923,0,3.847-0.733,5.313-2.2L408.68,73.87c2.935-2.936,2.935-7.693,0-10.628  c-2.935-2.934-7.693-2.934-10.627,0l-11.335,11.335c-2.935,2.936-2.935,7.693,0,10.628  C388.185,86.672,390.107,87.406,392.031,87.406z"/>
<path d="M358.023,121.414c1.923,0,3.846-0.733,5.313-2.2l11.336-11.335c2.935-2.935,2.935-7.693,0-10.627  c-2.934-2.935-7.692-2.936-10.627-0.001l-11.336,11.335c-2.935,2.935-2.935,7.693,0,10.627  C354.176,120.68,356.1,121.414,358.023,121.414z"/>
<g>
</g>
<g>
</g>
<g>
</g>
<g>
</g>
<g>
</g>
<g>
</g>
<g>
</g>
<g>
</g>
<g>
</g>
<g>
</g>
<g>
</g>
<g>
</g>
<g>
</g>
<g>
</g>
<g>
</g>
</svg>
