<?xml version="1.0" encoding="iso-8859-1"?>
<!-- Generator: Adobe Illustrator 19.0.0, SVG Export Plug-In . SVG Version: 6.00 Build 0)  -->
<svg xmlns="http://www.w3.org/2000/svg" xmlns:xlink="http://www.w3.org/1999/xlink" version="1.1" id="Capa_1" x="0px" y="0px" viewBox="0 0 512 512" style="enable-background:new 0 0 512 512;" xml:space="preserve">
<path style="fill:#F1F1F0;" d="M504.485,215.931c0-115.1-111.25-208.407-248.485-208.407S7.515,100.831,7.515,215.931  S118.765,424.338,256,424.338c0.406,0,0.809-0.011,1.213-0.013l111.006,80.17l-32.016-91.256  C434.082,385.259,504.485,307.493,504.485,215.931z"/>
<path style="fill:#E3E3E1;" d="M386.83,393.131c-30.274,9.874-63.666,15.176-98.767,15.176  c-137.235,0-248.485-80.864-248.485-200.391c0-76.177,45.194-143.153,113.497-181.721C67.206,59.014,7.515,131.624,7.515,215.931  c0,115.1,111.25,208.407,248.485,208.407c0.406,0,0.809-0.011,1.213-0.013l111.006,80.17l-32.016-91.256  C354.085,408.128,371.044,401.347,386.83,393.131z"/>
<path style="fill:#7ECFC5;" d="M405.142,215.931c16.298-9.817,27.202-27.681,27.202-48.094c0-30.989-25.121-56.11-56.11-56.11  c-2.722,0-5.397,0.204-8.016,0.579v-0.579c0-26.562-21.532-48.094-48.094-48.094s-48.094,21.532-48.094,48.094v208.407  c0,26.562,21.532,48.094,48.094,48.094s48.094-21.532,48.094-48.094v-0.579c2.619,0.375,5.293,0.579,8.016,0.579  c30.989,0,56.11-25.121,56.11-56.11C432.344,243.612,421.441,225.749,405.142,215.931z"/>
<path style="fill:#74D0E3;" d="M106.858,215.931c-16.298-9.817-27.202-27.681-27.202-48.094c0-30.989,25.121-56.11,56.11-56.11  c2.722,0,5.397,0.204,8.016,0.579v-0.579c0-26.562,21.532-48.094,48.094-48.094s48.094,21.532,48.094,48.094v208.407  c0,26.562-21.532,48.094-48.094,48.094s-48.094-21.532-48.094-48.094v-0.579c-2.619,0.375-5.293,0.579-8.016,0.579  c-30.989,0-56.11-25.121-56.11-56.11C79.656,243.612,90.559,225.749,106.858,215.931z"/>
<path style="fill:#53AAD4;" d="M215.922,360.213c-26.562,0-48.094-21.532-48.094-48.094v-0.579  c-2.619,0.375-5.293,0.579-8.016,0.579c-30.989,0-56.11-25.121-56.11-56.11c0-20.413,10.903-38.277,27.202-48.094  c-16.298-9.817-27.202-27.681-27.202-48.094c0-20.239,10.719-37.969,26.785-47.839c-28.513,2.662-50.832,26.648-50.832,55.855  c0,20.413,10.903,38.277,27.202,48.094c-16.298,9.817-27.202,27.681-27.202,48.094c0,30.989,25.121,56.11,56.11,56.11  c2.722,0,5.397-0.204,8.016-0.579v0.579c0,26.562,21.532,48.094,48.094,48.094c9.879,0,19.06-2.983,26.699-8.092  C217.696,360.185,216.812,360.213,215.922,360.213z"/>
<path style="fill:#33C0C4;" d="M296.078,360.213c26.562,0,48.094-21.532,48.094-48.094v-0.579c2.619,0.375,5.293,0.579,8.016,0.579  c30.989,0,56.11-25.121,56.11-56.11c0-20.413-10.903-38.277-27.202-48.094c16.298-9.817,27.202-27.681,27.202-48.094  c0-20.239-10.719-37.969-26.785-47.839c28.513,2.661,50.832,26.647,50.832,55.855c0,20.413-10.903,38.277-27.202,48.094  c16.298,9.817,27.202,27.681,27.202,48.094c0,30.989-25.121,56.11-56.11,56.11c-2.722,0-5.397-0.204-8.016-0.579v0.579  c0,26.562-21.532,48.094-48.094,48.094c-9.879,0-19.06-2.983-26.699-8.092C294.304,360.185,295.188,360.213,296.078,360.213z"/>
<path d="M512,215.931c0-63.871-33.23-124.101-91.17-165.249c-3.339-2.368-8.107-1.562-10.478,1.775  c-2.372,3.339-1.562,8.108,1.775,10.478c53.919,38.292,84.844,94.056,84.844,152.995c0,85.853-65.438,162.241-162.833,190.082  c-4.093,1.169-6.438,5.687-5.026,9.712l24.085,68.651l-91.584-66.143c-1.281-0.925-2.819-1.423-4.4-1.423c-0.006,0-0.012,0-0.018,0  L256,416.824c-132.872,0-240.971-90.12-240.971-200.892S123.128,15.039,256,15.039c44.304,0,87.613,10.117,125.247,29.256  c3.698,1.88,8.223,0.409,10.105-3.292c1.882-3.698,0.408-8.223-3.291-10.105C348.325,10.691,302.66,0.009,256,0.009  c-68.136,0-132.251,22.303-180.535,62.799C26.801,103.624,0,158.004,0,215.931S26.801,328.24,75.465,369.054  c48.001,40.26,111.643,62.536,179.332,62.797l109.022,78.736c2.854,2.061,6.865,1.83,9.465-0.543  c2.203-2.01,3.014-5.221,2.026-8.037l-29.412-83.838C445.587,386.698,512,306.28,512,215.931z"/>
<path d="M72.141,264.025c0,35.083,28.542,63.624,63.624,63.624c0.335,0,0.669-0.003,1.005-0.008  c3.676,27.125,26.987,48.102,55.105,48.102c30.663,0,55.609-24.946,55.609-55.609V111.728c0-30.663-24.946-55.609-55.609-55.609  c-28.118,0-51.427,20.977-55.105,48.102c-0.497-0.008-0.998-0.015-1.495,0.017c-34.852,0.309-63.134,28.682-63.134,63.599  c0,18.803,8.04,36.12,21.939,48.094C80.181,227.907,72.141,245.223,72.141,264.025z M110.668,222.412  c7.558-4.571,16.181-6.982,25.097-6.982c4.095,0,7.515-3.42,7.515-7.515c0-4.095-3.42-7.515-7.515-7.515  c-10.002,0-19.724,2.323-28.533,6.752c-12.627-9.134-20.062-23.533-20.062-39.316c0-26.795,21.8-48.595,48.595-48.595  c2.401,0,4.766,0.253,7.147,0.521c10.437,1.526,20.038,6.385,27.564,14.065c3.067,3.13,8.304,2.917,11.124-0.43  c2.46-2.92,2.279-7.365-0.389-10.089c-8.254-8.424-18.416-14.256-29.53-17.101c2.702-19.773,19.691-35.06,40.194-35.06  c22.376,0,40.579,18.204,40.579,40.579v208.407c0,22.376-18.204,40.579-40.579,40.579c-20.508,0-37.5-15.296-40.196-35.076  c10.697-2.746,20.538-8.251,28.618-16.171c2.925-2.866,2.973-7.703,0.107-10.627c-2.866-2.924-7.703-2.972-10.627-0.106  c-7.421,7.274-16.785,11.893-26.897,13.371c-2.364,0.294-4.732,0.516-7.116,0.516c-26.795,0-48.595-21.8-48.595-48.595  C87.17,246.856,95.954,231.306,110.668,222.412z"/>
<path d="M439.859,167.837c0-34.925-28.308-63.327-63.158-63.601c-0.489-0.031-0.982-0.023-1.471-0.016  c-3.676-27.125-26.987-48.102-55.105-48.102c-30.663,0-55.609,24.946-55.609,55.609v208.407c0,30.663,24.946,55.609,55.609,55.609  c28.118,0,51.427-20.977,55.105-48.102c0.336,0.005,0.67,0.008,1.005,0.008c35.083,0,63.624-28.542,63.624-63.624  c0-18.803-8.04-36.12-21.939-48.094C431.819,203.957,439.859,186.64,439.859,167.837z M404.768,207.154  c-8.809-4.43-18.531-6.752-28.533-6.752c-4.15,0-7.515,3.364-7.515,7.515c0,4.151,3.365,7.515,7.515,7.515  c8.916,0,17.54,2.411,25.097,6.982c14.714,8.893,23.498,24.443,23.498,41.612c0,26.795-21.8,48.595-48.595,48.595  c-2.4,0-4.766-0.253-7.146-0.521c-10.1-1.483-19.452-6.099-26.865-13.366c-2.964-2.905-7.721-2.858-10.627,0.106  c-2.905,2.965-2.858,7.722,0.107,10.627c8.08,7.919,17.921,13.424,28.618,16.171c-2.695,19.781-19.688,35.076-40.196,35.076  c-22.376,0-40.579-18.204-40.579-40.579V111.726c0-22.376,18.204-40.579,40.579-40.579c20.502,0,37.492,15.287,40.193,35.06  c-11.115,2.846-21.276,8.677-29.53,17.101c-2.673,2.728-2.843,7.164-0.389,10.089c2.813,3.354,8.062,3.555,11.124,0.43  c7.526-7.68,17.125-12.539,27.562-14.065c2.383-0.265,4.747-0.521,7.149-0.521c26.795,0,48.595,21.8,48.595,48.595  C424.83,183.62,417.394,198.019,404.768,207.154z"/>
<g>
</g>
<g>
</g>
<g>
</g>
<g>
</g>
<g>
</g>
<g>
</g>
<g>
</g>
<g>
</g>
<g>
</g>
<g>
</g>
<g>
</g>
<g>
</g>
<g>
</g>
<g>
</g>
<g>
</g>
</svg>
