<?xml version="1.0" encoding="iso-8859-1"?>
<!-- Generator: Adobe Illustrator 19.0.0, SVG Export Plug-In . SVG Version: 6.00 Build 0)  -->
<svg xmlns="http://www.w3.org/2000/svg" xmlns:xlink="http://www.w3.org/1999/xlink" version="1.1" id="Capa_1" x="0px" y="0px" viewBox="0 0 512.001 512.001" style="enable-background:new 0 0 512.001 512.001;" xml:space="preserve">
<path style="fill:#F1F1F0;" d="M74.816,159.412c-4.93,17.791-7.576,36.531-7.576,55.893l-40.162,80.324l40.162,24.097v120.486  h80.324v64.259h257.038V379.924c48.892-38.224,80.324-97.75,80.324-164.621c0-19.36-2.646-38.102-7.576-55.893L74.816,159.412  L74.816,159.412z"/>
<path style="fill:#74D0E3;" d="M370.345,10.913l-82.214,32.371l35.314,89.687l82.214-32.371c24.767-9.751,36.939-37.733,27.187-62.5  C423.094,13.334,395.111,1.162,370.345,10.913z"/>
<path style="fill:#53AAD4;" d="M432.846,38.101c-3.183-8.083-8.315-14.813-14.635-19.888c6.902,23.65-5.244,49.089-28.617,58.291  l-76.519,30.129l10.371,26.339l82.214-32.371C430.425,90.849,442.597,62.867,432.846,38.101z"/>
<path style="fill:#FAD55A;" d="M141.659,9.837l82.214,32.34l-35.314,89.603l-82.214-32.34  c-24.767-9.742-36.939-37.698-27.187-62.441S116.892,0.095,141.659,9.837z"/>
<path style="fill:#FEAD5A;" d="M117.872,76.504c-21.569-8.492-33.58-30.812-29.881-52.794c-3.672,4.125-6.692,8.954-8.833,14.391  c-9.751,24.767,2.421,52.749,27.187,62.5l82.214,32.371l9.761-24.792L117.872,76.504z"/>
<path style="fill:#F5577E;" d="M256.002,358.381c-55.893-56.897-104.756-4.184-64.259,41.668  c23.494,26.6,64.259,64.259,64.259,64.259s40.766-37.659,64.259-64.259C360.758,354.198,311.894,301.485,256.002,358.381z"/>
<path style="fill:#CE384F;" d="M208.958,386.177c-16.289-18.442-18.112-37.988-10.846-51.072  c-22.663,6.986-30.862,37.215-6.371,64.945c23.494,26.6,64.259,64.259,64.259,64.259s6.569-6.067,15.948-15.05  C264.905,442.703,230.004,410.005,208.958,386.177z"/>
<path style="fill:#F5577E;" d="M256.002,222.086c-33.41-34.009-62.618-2.501-38.411,24.908c14.044,15.9,38.411,38.411,38.411,38.411  s24.367-22.511,38.411-38.411C318.619,219.585,289.412,188.076,256.002,222.086z"/>
<path style="fill:#CE384F;" d="M232.787,233.12c-7.865-8.904-10.087-18.24-8.363-25.622c-15.775,2.267-22.517,21.738-6.834,39.494  c14.044,15.9,38.411,38.411,38.411,38.411s6.589-6.088,14.884-14.162C268.032,268.595,245.907,247.974,232.787,233.12z"/>
<path style="fill:#F5577E;" d="M256.002,95.692c-19.67-20.024-36.868-1.472-22.615,14.665c8.268,9.362,22.615,22.615,22.615,22.615  s14.347-13.254,22.615-22.615C292.87,94.219,275.673,75.667,256.002,95.692z"/>
<path style="fill:#CE384F;" d="M245.186,102.323c-4.709-5.332-5.969-10.919-4.857-15.3c-11.287-0.865-17.093,11.84-6.943,23.332  c8.268,9.362,22.615,22.615,22.615,22.615s4.598-4.247,10.087-9.631C262.041,119.542,251.719,109.72,245.186,102.323z"/>
<path d="M147.564,432.681H74.77V319.725c0-2.646-1.388-5.097-3.657-6.458l-34.182-20.509l37.044-74.087  c0.523-1.046,0.795-2.199,0.795-3.368c0-16.353,1.969-32.594,5.857-48.362h152.531c4.16,0,7.53-3.371,7.53-7.53  s-3.371-7.53-7.53-7.53H74.815c-3.385,0-6.353,2.258-7.257,5.519c-5.049,18.223-7.685,37.091-7.842,56.112L20.341,292.26  c-1.76,3.52-0.513,7.801,2.862,9.826l36.505,21.902v116.223c0,4.16,3.371,7.53,7.53,7.53h72.794v56.729c0,4.16,3.371,7.53,7.53,7.53  c4.16,0,7.53-3.371,7.53-7.53v-64.259C155.094,436.053,151.724,432.681,147.564,432.681z"/>
<path d="M484.608,157.4c-0.904-3.261-3.872-5.519-7.257-5.519H277.336c-4.16,0-7.53,3.371-7.53,7.53s3.371,7.53,7.53,7.53h194.203  c3.888,15.769,5.857,32.009,5.857,48.362c0,62.377-28.223,120.216-77.432,158.689c-1.825,1.427-2.893,3.616-2.893,5.932v124.547  c0,4.16,3.371,7.53,7.53,7.53c4.16,0,7.53-3.371,7.53-7.53V383.558c51.098-41.332,80.324-102.442,80.324-168.253  C492.456,195.677,489.816,176.196,484.608,157.4z"/>
<path d="M316.439,135.73c1.502,3.817,5.945,5.753,9.766,4.247l82.213-32.37c28.59-11.258,42.692-43.676,31.436-72.267  c-5.453-13.85-15.973-24.747-29.623-30.685s-28.794-6.205-42.644-0.751l-82.214,32.371c-3.87,1.524-5.771,5.896-4.247,9.766  L316.439,135.73z M373.104,17.92c16.125-6.35,35.079-1.533,46.16,11.802c2.769,3.331,4.987,7.109,6.574,11.139  c8.215,20.862-2.076,44.52-22.941,52.734l-75.206,29.611l-29.795-75.674L373.104,17.92z"/>
<path d="M103.586,107.609l82.213,32.37c3.82,1.505,8.263-0.431,9.766-4.247l35.314-89.687c1.524-3.87-0.379-8.242-4.247-9.766  L144.418,3.907c-13.851-5.454-28.993-5.188-42.644,0.751c-13.649,5.937-24.17,16.835-29.623,30.685  C60.895,63.932,74.997,96.35,103.586,107.609z M86.165,40.86c3.979-10.107,11.656-18.059,21.616-22.392  c9.853-4.285,21.12-4.485,31.118-0.548l75.207,29.612l-29.795,75.673l-75.206-29.611C88.241,85.38,77.95,61.722,86.165,40.86z"/>
<path d="M330.596,336.22c-15.559-14.492-44.179-15.953-74.594,11.709c-30.414-27.662-59.034-26.202-74.594-11.709  c-15.291,14.245-18.59,42.455,4.691,68.815c23.477,26.581,63.117,63.257,64.794,64.806c2.847,2.631,7.371,2.631,10.219,0  c1.677-1.548,41.317-38.224,64.794-64.806C349.186,378.675,345.887,350.464,330.596,336.22z M314.617,395.065  c-18.091,20.482-46.972,47.999-58.616,58.94c-11.643-10.94-40.518-38.45-58.616-58.94c-16.906-19.141-15.67-38.549-5.712-47.825  c4.154-3.87,9.894-6.147,16.774-6.147c11.561,0,26.335,6.434,42.182,22.566c2.909,2.962,7.836,2.962,10.744,0  c25.277-25.732,47.825-26.788,58.956-16.419C330.289,356.517,331.524,375.923,314.617,395.065z"/>
<path d="M209.348,206.622c-10.213,9.514-12.6,28.148,2.598,45.355c14.133,16.003,37.938,38.028,38.945,38.957  c2.847,2.631,7.371,2.631,10.219,0c1.007-0.93,24.812-22.954,38.945-38.957c15.198-17.207,12.812-35.841,2.599-45.355  c-9.978-9.296-27.801-10.761-46.653,5.185C237.151,195.862,219.328,197.328,209.348,206.622z M292.389,217.642  c4.88,4.545,5.204,14.374-3.62,24.365c-9.781,11.075-24.918,25.651-32.767,33.074c-7.848-7.422-22.981-21.993-32.767-33.074  c-8.824-9.99-8.5-19.819-3.62-24.365c1.896-1.766,4.607-2.801,7.916-2.801c6.115,0,14.271,3.534,23.099,12.522  c2.909,2.962,7.836,2.962,10.744,0C274.982,213.511,286.992,212.614,292.389,217.642z"/>
<path d="M227.743,115.341c8.425,9.54,22.552,22.611,23.15,23.162c2.847,2.631,7.371,2.631,10.219,0  c0.598-0.551,14.725-13.622,23.15-23.162c10.259-11.615,8.429-24.396,1.319-31.02c-6.543-6.096-17.766-7.524-29.579,1.354  c-11.815-8.877-23.036-7.448-29.579-1.354C219.314,90.944,217.483,103.725,227.743,115.341z M236.689,95.341  c0.599-0.558,1.474-0.857,2.559-0.857c2.774,0,6.925,1.947,11.382,6.484c2.909,2.962,7.836,2.962,10.744,0  c6.2-6.311,11.812-7.612,13.941-5.627c1.733,1.615,1.501,5.678-2.341,10.029c-4.897,5.543-12.132,12.625-16.972,17.251  c-4.84-4.625-12.075-11.706-16.972-17.251C235.188,101.019,234.956,96.956,236.689,95.341z"/>
<g>
</g>
<g>
</g>
<g>
</g>
<g>
</g>
<g>
</g>
<g>
</g>
<g>
</g>
<g>
</g>
<g>
</g>
<g>
</g>
<g>
</g>
<g>
</g>
<g>
</g>
<g>
</g>
<g>
</g>
</svg>
