<?xml version="1.0" encoding="iso-8859-1"?>
<!-- Generator: Adobe Illustrator 19.0.0, SVG Export Plug-In . SVG Version: 6.00 Build 0)  -->
<svg xmlns="http://www.w3.org/2000/svg" xmlns:xlink="http://www.w3.org/1999/xlink" version="1.1" id="Capa_1" x="0px" y="0px" viewBox="0 0 512.001 512.001" style="enable-background:new 0 0 512.001 512.001;" xml:space="preserve">
<path style="fill:#E3E3E1;" d="M95.689,376.235h320.625v-80.156H95.689c-8.854,0-16.031,7.177-16.031,16.031v48.094  C79.658,369.057,86.835,376.235,95.689,376.235z"/>
<path style="fill:#F1F1F0;" d="M103.705,360.204h312.609V312.11H103.705c-4.427,0-8.016,3.589-8.016,8.016v32.063  C95.689,356.615,99.278,360.204,103.705,360.204z"/>
<path style="fill:#838076;" d="M95.689,296.079h344.672v-24.047H87.673c-17.708,0-32.062,14.355-32.062,32.062v64.125  c0,17.708,14.355,32.063,32.062,32.063h352.687v-24.047H95.689c-8.854,0-16.031-7.178-16.031-16.031V312.11  C79.658,303.256,86.835,296.079,95.689,296.079z"/>
<polygon style="fill:#FEBD7B;" points="368.22,352.188 344.173,336.157 320.127,352.188 320.127,296.079 368.22,296.079 "/>
<rect x="7.517" y="400.281" style="fill:#47C6CA;" width="496.969" height="104.203"/>
<rect x="7.517" y="480.437" style="fill:#429EA1;" width="496.969" height="24.047"/>
<rect x="95.687" y="398.838" style="fill:#FAD55A;" width="48.094" height="104.103"/>
<rect x="95.687" y="480.437" style="fill:#FEAD5A;" width="48.094" height="24.047"/>
<rect x="368.218" y="398.838" style="fill:#FAD55A;" width="48.094" height="104.103"/>
<rect x="368.218" y="480.437" style="fill:#FEAD5A;" width="48.094" height="24.047"/>
<rect x="119.734" y="127.75" style="fill:#8BD3CB;" width="272.531" height="144.281"/>
<rect x="119.734" y="127.75" style="fill:#47C6CA;" width="32.062" height="144.281"/>
<polygon style="fill:#33C0C4;" points="256.002,223.938 488.455,103.704 256.002,7.516 23.548,103.704 "/>
<path d="M504.486,392.767h-56.61v-16.532c0-4.151-3.364-7.515-7.515-7.515h-16.532v-65.127h16.532c4.151,0,7.515-3.364,7.515-7.515  v-24.047c0-4.151-3.364-7.515-7.515-7.515h-40.579V158.029l92.125-47.651c5.564-2.878,5.211-11.223-0.579-13.618L258.874,0.573  c-1.84-0.761-3.906-0.761-5.745,0L20.679,96.759c-2.771,1.146-4.645,3.945-4.645,6.945v119.308L0.226,286.24  c-1.006,4.027,1.441,8.107,5.468,9.114c4.031,1.006,8.106-1.441,9.114-5.468l8.741-34.963l8.741,34.963  c1.021,4.081,5.351,6.566,9.391,5.392c3.826-1.111,6.155-5.174,5.189-9.039l-15.807-63.228V116.05l81.158,41.978v106.489H87.673  c-21.823,0-39.577,17.755-39.577,39.577v64.125c0,9.268,3.211,17.796,8.568,24.548H7.517c-4.151,0-7.515,3.364-7.515,7.515v104.203  c0,4.151,3.364,7.515,7.515,7.515h496.969c4.151,0,7.515-3.364,7.515-7.515V400.281  C512.001,396.131,508.636,392.767,504.486,392.767z M256.002,15.649l214.631,88.813L256.002,215.477L41.37,104.462L256.002,15.649z   M127.251,165.802l125.299,64.81c2.144,1.111,4.76,1.111,6.904,0l125.299-64.81v98.714H127.252L127.251,165.802L127.251,165.802z   M63.126,368.22v-64.125c0-13.536,11.011-24.548,24.548-24.548h345.173v9.018H288.064c-4.151,0-7.515,3.364-7.515,7.515  c0,4.151,3.364,7.515,7.515,7.515h24.548v48.595c0,5.88,6.779,9.526,11.683,6.252l19.879-13.253l19.879,13.253  c4.91,3.274,11.683-0.378,11.683-6.252v-48.595h33.064v65.127H95.689c-4.696,0-8.517-3.82-8.517-8.517v-0.501h200.892  c4.151,0,7.515-3.364,7.515-7.515s-3.364-7.515-7.515-7.515H87.172V327.64h200.892c4.151,0,7.515-3.364,7.515-7.515  s-3.364-7.515-7.515-7.515H87.172v-0.501c0-4.696,3.82-8.517,8.517-8.517h156.638c4.151,0,7.515-3.364,7.515-7.515  c0-4.151-3.364-7.515-7.515-7.515H95.689c-12.983,0-23.546,10.563-23.546,23.546v48.094c0,12.983,10.563,23.546,23.546,23.546  h337.157v9.018H87.673C74.137,392.767,63.126,381.755,63.126,368.22z M327.641,303.594h33.064v34.553l-12.364-8.243  c-2.497-1.664-5.839-1.665-8.336,0l-12.364,8.243V303.594z M360.706,407.797v89.174H151.297v-89.174H360.706z M15.032,407.797  h72.642h0.501v89.174H15.032C15.032,496.97,15.032,407.797,15.032,407.797z M103.204,496.97v-89.174h33.064v89.174H103.204z   M375.735,496.97v-89.174h33.064v89.174H375.735z M496.971,496.97h-73.143v-89.174h73.143V496.97z"/>
<path d="M264.017,183.359c4.151,0,7.515-3.364,7.515-7.515c0-4.151-3.364-7.515-7.515-7.515h-0.501v-33.064h24.548  c4.151,0,7.515-3.364,7.515-7.515V87.172h8.517c4.151,0,7.515-3.364,7.515-7.515s-3.364-7.515-7.515-7.515h-16.031  c-4.151,0-7.515,3.364-7.515,7.515v40.579h-17.033V63.125h0.501c4.151,0,7.515-3.364,7.515-7.515s-3.364-7.515-7.515-7.515h-16.031  c-4.151,0-7.515,3.364-7.515,7.515s3.364,7.515,7.515,7.515h0.501v57.111h-17.033V79.657c0-4.151-3.364-7.515-7.515-7.515h-16.031  c-4.151,0-7.515,3.364-7.515,7.515s3.364,7.515,7.515,7.515h8.517v40.579c0,4.151,3.364,7.515,7.515,7.515h24.548v33.064h-0.501  c-4.151,0-7.515,3.364-7.515,7.515c0,4.151,3.364,7.515,7.515,7.515H264.017z"/>
<g>
</g>
<g>
</g>
<g>
</g>
<g>
</g>
<g>
</g>
<g>
</g>
<g>
</g>
<g>
</g>
<g>
</g>
<g>
</g>
<g>
</g>
<g>
</g>
<g>
</g>
<g>
</g>
<g>
</g>
</svg>
