<?xml version="1.0" encoding="iso-8859-1"?>
<!-- Generator: Adobe Illustrator 19.0.0, SVG Export Plug-In . SVG Version: 6.00 Build 0)  -->
<svg xmlns="http://www.w3.org/2000/svg" xmlns:xlink="http://www.w3.org/1999/xlink" version="1.1" id="Capa_1" x="0px" y="0px" viewBox="0 0 512 512" style="enable-background:new 0 0 512 512;" xml:space="preserve">
<path style="fill:#74D0E3;" d="M230.578,320.125L113.663,203.211c-12.521-12.521-32.822-12.521-45.344,0l0,0l148.978,148.977  h271.157l0,0c0-17.708-14.355-32.063-32.063-32.063H230.578z"/>
<path style="fill:#53AAD4;" d="M225.313,336.157L83.796,194.641c-5.671,1.301-11.06,4.152-15.477,8.57l0,0l148.978,148.977h271.157  l0,0c0-5.842-1.57-11.314-4.3-16.031H225.313z"/>
<path style="fill:#757267;" d="M207.906,376.235L30.186,199.89L7.514,222.562l184.36,185.736v96.188h32.063v-32.063h208.407v32.063  h32.063v-96.188h40.078v-32.063H207.906z M432.344,440.36H223.937v-32.063h208.407V440.36z"/>
<path style="fill:#838076;" d="M207.906,376.235L30.186,199.89L7.514,222.562l184.36,185.736v96.188h32.063v-32.063h208.407v32.063  h32.063v-96.188h40.078v-32.063H207.906z M432.344,440.36H223.937v-32.063h208.407V440.36z"/>
<polygon style="fill:#757267;" points="18.851,211.227 7.514,222.562 191.875,408.297 191.875,504.485 207.906,504.485   207.906,400.282 "/>
<rect x="296.078" y="31.562" style="fill:#FEAD5A;" width="192.376" height="248.485"/>
<rect x="296.078" y="31.562" style="fill:#FF9047;" width="24.047" height="248.485"/>
<rect x="320.125" y="31.562" style="fill:#F1F1F0;" width="144.282" height="216.423"/>
<rect x="320.125" y="31.562" style="fill:#E3E3E1;" width="24.047" height="216.423"/>
<path style="fill:#838076;" d="M416.313,31.562c0-13.281-10.766-24.047-24.047-24.047s-24.047,10.766-24.047,24.047h-16.031v32.063  h80.157V31.562H416.313z"/>
<rect x="352.188" y="47.593" style="fill:#757267;" width="80.157" height="16.031"/>
<rect x="360.203" y="87.671" style="fill:#C8C7C2;" width="64.125" height="40.078"/>
<path style="fill:#74D0E3;" d="M231.953,87.671h32.063v184.36c0,4.427-3.589,8.016-8.016,8.016h-16.031  c-4.427,0-8.016-3.589-8.016-8.016V87.671z"/>
<path style="fill:#53AAD4;" d="M247.984,272.031V87.671h-16.031v184.36c0,4.427,3.589,8.016,8.016,8.016H256  C251.573,280.047,247.984,276.458,247.984,272.031z"/>
<polygon style="fill:#FEAD5A;" points="264.015,87.671 231.953,87.671 247.984,55.609 "/>
<path style="fill:#FAD55A;" d="M231.953,214.657h32.063v56.053c0,4.425-3.587,8.012-8.012,8.012h-16.039  c-4.425,0-8.012-3.587-8.012-8.012V214.657z"/>
<path style="fill:#FEAD5A;" d="M247.984,272.031v-56.11h-16.031v56.11c0,4.427,3.589,8.016,8.016,8.016H256  C251.573,280.047,247.984,276.458,247.984,272.031z"/>
<path d="M211.983,357.502c1.409,1.409,3.32,2.2,5.313,2.2h271.158c4.15,0,7.515-3.364,7.515-7.515  c0-21.823-17.755-39.577-39.577-39.577H233.69L118.976,197.897c-15.431-15.43-40.538-15.429-55.97,0  c-2.894,2.895-2.894,7.734,0,10.628L211.983,357.502z M108.349,208.524L225.265,325.44c1.409,1.409,3.32,2.2,5.313,2.2h225.813  c10.916,0,20.19,7.161,23.372,17.033H220.409L79.779,204.043C89.008,199.312,100.63,200.806,108.349,208.524z"/>
<path d="M223.937,447.875h208.407c4.15,0,7.515-3.364,7.515-7.515v-32.063c0-4.151-3.365-7.515-7.515-7.515H223.937  c-4.15,0-7.515,3.364-7.515,7.515v32.063C216.423,444.511,219.787,447.875,223.937,447.875z M231.452,415.812H424.83v17.033H231.452  V415.812z"/>
<path d="M504.485,368.72H211.001L35.479,194.556c-2.938-2.915-7.68-2.906-10.607,0.021l-22.671,22.67  c-2.927,2.928-2.936,7.67-0.02,10.608L184.36,411.395v93.091c0,4.151,3.365,7.515,7.515,7.515h32.063  c4.15,0,7.515-3.364,7.515-7.515v-24.548H424.83v24.548c0,4.151,3.365,7.515,7.515,7.515h32.063c4.15,0,7.515-3.364,7.515-7.515  v-88.673h32.564c4.15,0,7.515-3.364,7.515-7.515v-32.063C512,372.084,508.635,368.72,504.485,368.72z M496.97,400.783h-32.564  c-4.15,0-7.515,3.364-7.515,7.515v88.673h-17.033v-24.548c0-4.151-3.365-7.515-7.515-7.515H223.937c-4.15,0-7.515,3.364-7.515,7.515  v24.548h-17.033v-88.673c0-1.983-0.785-3.887-2.181-5.293L18.122,222.582l12.085-12.085l172.406,171.072  c1.408,1.397,3.31,2.18,5.293,2.18H496.97V400.783z"/>
<path d="M296.078,287.562h192.376c4.15,0,7.515-3.364,7.515-7.515V31.562c0-4.151-3.365-7.515-7.515-7.515h-65.53  C419.544,10.259,407.081,0,392.266,0s-27.278,10.259-30.658,24.047h-65.53c-4.15,0-7.515,3.364-7.515,7.515v248.485  C288.563,284.198,291.928,287.562,296.078,287.562z M359.702,39.076h8.517c4.15,0,7.515-3.364,7.515-7.515  c0-9.116,7.417-16.532,16.532-16.532s16.532,7.416,16.532,16.532c0,4.151,3.365,7.515,7.515,7.515h8.517V56.11h-65.127V39.076z   M303.593,39.076h9.018v208.908c0,4.151,3.365,7.515,7.515,7.515h144.282c4.15,0,7.515-3.364,7.515-7.515v-99.945  c0-4.151-3.365-7.515-7.515-7.515s-7.515,3.364-7.515,7.515v92.431H327.64V39.076h17.033v24.548c0,4.151,3.365,7.515,7.515,7.515  h80.157c4.15,0,7.515-3.364,7.515-7.515V39.076h17.033v73.143c0,4.151,3.365,7.515,7.515,7.515s7.515-3.364,7.515-7.515V39.076  h9.018v233.456H303.593V39.076z"/>
<path d="M424.329,208.407h-64.125c-4.15,0-7.515,3.364-7.515,7.515s3.365,7.515,7.515,7.515h64.125c4.15,0,7.515-3.364,7.515-7.515  S428.479,208.407,424.329,208.407z"/>
<path d="M424.329,176.344h-64.125c-4.15,0-7.515,3.364-7.515,7.515s3.365,7.515,7.515,7.515h64.125c4.15,0,7.515-3.364,7.515-7.515  S428.479,176.344,424.329,176.344z"/>
<path d="M424.329,144.282h-64.125c-4.15,0-7.515,3.364-7.515,7.515s3.365,7.515,7.515,7.515h64.125c4.15,0,7.515-3.364,7.515-7.515  S428.479,144.282,424.329,144.282z"/>
<path d="M393.268,24.047h-1.002c-4.15,0-7.515,3.364-7.515,7.515s3.365,7.515,7.515,7.515h1.002c4.15,0,7.515-3.364,7.515-7.515  S397.418,24.047,393.268,24.047z"/>
<path d="M424.329,80.157h-64.125c-4.15,0-7.515,3.364-7.515,7.515v40.078c0,4.151,3.365,7.515,7.515,7.515h64.125  c4.15,0,7.515-3.364,7.515-7.515V87.671C431.843,83.52,428.479,80.157,424.329,80.157z M416.814,120.235h-49.096V95.186h49.096  V120.235z"/>
<path d="M207.906,255.499h16.532v16.532c0,8.564,6.967,15.53,15.53,15.53H256c8.564,0,15.53-6.967,15.53-15.53V87.671  c0-1.158-0.276-2.326-0.794-3.361l-15.238-30.476V31.562c0-4.151-3.365-7.515-7.515-7.515s-7.515,3.364-7.515,7.515v22.274  l-15.238,30.476c-0.518,1.035-0.794,2.202-0.794,3.361V240.47h-9.018v-48.595c0-4.151-3.365-7.515-7.515-7.515  s-7.515,3.364-7.515,7.515v56.11C200.391,252.135,203.756,255.499,207.906,255.499z M247.984,72.412l3.873,7.744h-7.744  L247.984,72.412z M256.501,95.186v113.221h-17.033V95.186H256.501z M256.501,272.031c0,0.276-0.224,0.501-0.501,0.501h-16.031  c-0.277,0-0.501-0.225-0.501-0.501v-48.595h17.033V272.031z"/>
<g>
</g>
<g>
</g>
<g>
</g>
<g>
</g>
<g>
</g>
<g>
</g>
<g>
</g>
<g>
</g>
<g>
</g>
<g>
</g>
<g>
</g>
<g>
</g>
<g>
</g>
<g>
</g>
<g>
</g>
</svg>
