<?xml version="1.0" encoding="iso-8859-1"?>
<!-- Generator: Adobe Illustrator 19.0.0, SVG Export Plug-In . SVG Version: 6.00 Build 0)  -->
<svg xmlns="http://www.w3.org/2000/svg" xmlns:xlink="http://www.w3.org/1999/xlink" version="1.1" id="Capa_1" x="0px" y="0px" viewBox="0 0 512 512" style="enable-background:new 0 0 512 512;" xml:space="preserve">
<path style="fill:#F1F1F0;" d="M484.447,215.922c0-115.1-93.307-208.407-208.407-208.407S67.633,100.822,67.633,215.922  l-40.078,80.157l40.078,24.047V440.36h80.157v64.125H404.29V380.199C453.08,342.054,484.447,282.653,484.447,215.922z"/>
<circle style="fill:#FEAD5A;" cx="276.039" cy="215.922" r="88.172"/>
<ellipse style="fill:#FAD55A;" cx="276.039" cy="215.2" rx="64.125" ry="64.065"/>
<path style="fill:#F1F1F0;" d="M308.102,203.898h-20.039v-20.039c0-6.64-5.383-12.023-12.023-12.023s-12.023,5.384-12.023,12.023  v20.039h-20.039c-6.64,0-12.023,5.384-12.023,12.023s5.384,12.023,12.023,12.023h20.039v20.039c0,6.64,5.384,12.023,12.023,12.023  s12.023-5.383,12.023-12.023v-20.039h20.039c6.64,0,12.023-5.384,12.023-12.023S314.742,203.898,308.102,203.898z"/>
<path d="M428.719,63.243C387.936,22.46,333.713,0,276.04,0S164.142,22.46,123.36,63.243  c-40.361,40.362-62.776,93.883-63.235,150.892l-39.292,78.584c-1.756,3.512-0.513,7.784,2.856,9.804l36.429,21.858v115.98  c0,4.15,3.364,7.515,7.515,7.515h72.642v56.611c0,4.15,3.364,7.515,7.515,7.515c4.151,0,7.515-3.365,7.515-7.515V440.36  c0-4.15-3.364-7.515-7.515-7.515H75.147v-112.72c0-2.639-1.385-5.086-3.649-6.444l-34.111-20.467l36.966-73.932  c0.522-1.044,0.794-2.193,0.794-3.361c0-110.772,90.12-200.892,200.892-200.892s200.892,90.12,200.892,200.892  c0,62.247-28.164,119.964-77.27,158.356c-1.822,1.424-2.887,3.608-2.887,5.921v124.287c0,4.15,3.364,7.515,7.515,7.515  c4.151,0,7.515-3.365,7.515-7.515V383.823c50.992-41.246,80.157-102.228,80.157-167.901  C491.961,158.247,469.502,104.024,428.719,63.243z"/>
<path d="M339.378,154.127c-3.204,2.637-3.664,7.373-1.027,10.578c11.83,14.374,18.346,32.564,18.346,51.217  c0,44.475-36.183,80.658-80.658,80.658s-80.658-36.183-80.658-80.658s36.183-80.658,80.658-80.658  c12.163,0,23.847,2.637,34.73,7.837c3.74,1.787,8.23,0.205,10.02-3.54c1.789-3.744,0.204-8.231-3.54-10.021  c-12.921-6.175-26.786-9.306-41.209-9.306c-52.762,0-95.687,42.925-95.687,95.687s42.925,95.687,95.687,95.687  s95.687-42.925,95.687-95.687c0-22.129-7.732-43.71-21.771-60.768C347.318,151.949,342.581,151.49,339.378,154.127z"/>
<path d="M283.554,95.687V71.64c0-4.15-3.364-7.515-7.515-7.515c-4.151,0-7.515,3.365-7.515,7.515v24.047  c0,4.15,3.364,7.515,7.515,7.515C280.191,103.202,283.554,99.837,283.554,95.687z"/>
<path d="M215.928,119.312c5.698,0,9.333-6.367,6.501-11.273l-12.023-20.826c-2.074-3.594-6.673-4.825-10.265-2.75  c-3.594,2.075-4.825,6.671-2.75,10.265l12.023,20.826C210.805,117.963,213.332,119.312,215.928,119.312z"/>
<path d="M175.671,149.297l-20.826-12.023c-3.596-2.076-8.191-0.844-10.265,2.75c-2.075,3.594-0.844,8.19,2.75,10.265l20.826,12.023  c3.834,2.213,8.871,0.546,10.644-3.499C180.316,155.353,178.939,151.183,175.671,149.297z"/>
<path d="M163.32,215.922c0-4.15-3.364-7.515-7.515-7.515h-24.047c-4.151,0-7.515,3.365-7.515,7.515s3.364,7.515,7.515,7.515h24.047  C159.955,223.436,163.32,220.072,163.32,215.922z"/>
<path d="M168.156,269.531l-20.826,12.023c-3.269,1.888-4.646,6.057-3.129,9.518c1.772,4.044,6.81,5.713,10.644,3.499l20.826-12.023  c3.594-2.075,4.825-6.671,2.75-10.265C176.347,268.688,171.749,267.455,168.156,269.531z"/>
<path d="M219.68,313.54c-3.596-2.076-8.191-0.844-10.265,2.75l-12.023,20.826c-1.888,3.269-0.995,7.569,2.049,9.807  c3.565,2.621,8.759,1.534,10.967-2.292l12.023-20.826C224.505,320.21,223.273,315.615,219.68,313.54z"/>
<path d="M276.04,328.642c-4.151,0-7.515,3.365-7.515,7.515v24.047c0,4.15,3.364,7.515,7.515,7.515c4.151,0,7.515-3.365,7.515-7.515  v-24.047C283.554,332.006,280.19,328.642,276.04,328.642z"/>
<path d="M342.665,316.291c-2.075-3.595-6.673-4.825-10.265-2.75c-3.594,2.075-4.825,6.671-2.75,10.265l12.023,20.826  c2.208,3.826,7.402,4.914,10.967,2.292c3.044-2.238,3.936-6.538,2.049-9.807L342.665,316.291z"/>
<path d="M400.985,295.578c3.499,0,6.613-2.508,7.352-5.929c0.682-3.155-0.794-6.482-3.589-8.095l-20.826-12.023  c-3.596-2.076-8.191-0.844-10.265,2.75c-2.075,3.594-0.844,8.19,2.75,10.265l20.826,12.023  C398.418,295.254,399.709,295.578,400.985,295.578z"/>
<path d="M388.76,215.922c0,4.15,3.364,7.515,7.515,7.515h24.047c4.151,0,7.515-3.365,7.515-7.515s-3.364-7.515-7.515-7.515h-24.047  C392.123,208.407,388.76,211.772,388.76,215.922z"/>
<path d="M397.234,137.273l-20.826,12.023c-3.269,1.888-4.646,6.057-3.129,9.518c1.772,4.044,6.81,5.713,10.644,3.499l20.826-12.023  c3.594-2.075,4.825-6.671,2.75-10.265C405.423,136.428,400.826,135.197,397.234,137.273z"/>
<path d="M336.15,119.312c2.597,0,5.123-1.349,6.515-3.758l12.023-20.826c2.075-3.594,0.844-8.19-2.75-10.265  c-3.596-2.076-8.191-0.844-10.265,2.75l-12.023,20.826C326.817,112.944,330.45,119.312,336.15,119.312z"/>
<path d="M276.04,267.522c10.773,0,19.538-8.765,19.538-19.538V235.46h12.524c10.773,0,19.538-8.765,19.538-19.538  s-8.765-19.538-19.538-19.538h-12.524v-12.524c0-10.773-8.765-19.538-19.538-19.538c-10.773,0-19.538,8.765-19.538,19.538v12.524  h-12.524c-10.773,0-19.538,8.765-19.538,19.538s8.765,19.538,19.538,19.538h12.524v12.524  C256.502,258.757,265.267,267.522,276.04,267.522z M243.977,220.431c-2.486,0-4.509-2.023-4.509-4.509s2.023-4.509,4.509-4.509  h20.039c4.151,0,7.515-3.365,7.515-7.515v-20.039c0-2.486,2.023-4.509,4.509-4.509s4.509,2.023,4.509,4.509v20.039  c0,4.15,3.364,7.515,7.515,7.515h20.039c2.486,0,4.509,2.023,4.509,4.509s-2.023,4.509-4.509,4.509h-20.039  c-4.151,0-7.515,3.365-7.515,7.515v20.039c0,2.486-2.023,4.509-4.509,4.509s-4.509-2.023-4.509-4.509v-20.039  c0-4.15-3.364-7.515-7.515-7.515H243.977z"/>
<g>
</g>
<g>
</g>
<g>
</g>
<g>
</g>
<g>
</g>
<g>
</g>
<g>
</g>
<g>
</g>
<g>
</g>
<g>
</g>
<g>
</g>
<g>
</g>
<g>
</g>
<g>
</g>
<g>
</g>
</svg>
