<?xml version="1.0" encoding="iso-8859-1"?>
<!-- Generator: Adobe Illustrator 19.0.0, SVG Export Plug-In . SVG Version: 6.00 Build 0)  -->
<svg xmlns="http://www.w3.org/2000/svg" xmlns:xlink="http://www.w3.org/1999/xlink" version="1.1" id="Capa_1" x="0px" y="0px" viewBox="0 0 512 512" style="enable-background:new 0 0 512 512;" xml:space="preserve">
<path style="fill:#F1F1F0;" d="M484.446,215.922c0-115.1-93.307-208.407-208.407-208.407S67.632,100.822,67.632,215.922  l-40.078,80.157l40.078,24.047V440.36h80.157v64.125h256.501V380.199C453.078,342.054,484.446,282.653,484.446,215.922z"/>
<path style="fill:#CC8FC8;" d="M380.227,136.342c0.002-0.193,0.015-0.384,0.015-0.577c0-26.562-21.532-48.094-48.094-48.094  c-8.183,0-15.885,2.05-22.631,5.654c-9.446-17.673-28.071-29.701-49.51-29.701c-30.989,0-56.11,25.121-56.11,56.11  c0,6.868,1.239,13.447,3.498,19.529c-6.083-2.258-12.661-3.498-19.529-3.498c-30.989,0-56.11,25.121-56.11,56.11  s25.121,56.11,56.11,56.11h184.36c30.989,0,56.11-25.121,56.11-56.11C428.336,163.604,407.424,140.227,380.227,136.342z"/>
<path style="fill:#A46EA0;" d="M388.258,223.937h-184.36c-30.989,0-56.11-25.121-56.11-56.11c0-6.309,1.057-12.368,2.977-18.028  c-11.651,10.281-19.008,25.314-19.008,42.075c0,30.989,25.121,56.11,56.11,56.11h184.36c24.679,0,45.621-15.94,53.133-38.081  C415.468,218.631,402.486,223.937,388.258,223.937z"/>
<path style="fill:#F1F1F0;" d="M308.101,163.82h-64.125c-6.64,0-12.023,5.384-12.023,12.023s5.384,12.023,12.023,12.023h64.125  c6.64,0,12.023-5.384,12.023-12.023S314.741,163.82,308.101,163.82z"/>
<path d="M428.718,63.243C387.935,22.46,333.712,0,276.039,0c-57.675,0-111.898,22.46-152.679,63.243  c-40.362,40.362-62.777,93.883-63.235,150.892l-39.292,78.584c-1.756,3.512-0.512,7.784,2.855,9.804l36.43,21.858v115.98  c0,4.15,3.365,7.515,7.515,7.515h72.642v56.611c0,4.15,3.365,7.515,7.515,7.515s7.515-3.365,7.515-7.515V440.36  c0-4.15-3.365-7.515-7.515-7.515H75.147v-112.72c0-2.639-1.385-5.086-3.648-6.444l-34.112-20.467l36.966-73.932  c0.522-1.044,0.794-2.193,0.794-3.361c0-110.772,90.12-200.892,200.892-200.892s200.892,90.12,200.892,200.892  c0,62.247-28.164,119.964-77.27,158.356c-1.822,1.424-2.887,3.608-2.887,5.921v124.287c0,4.15,3.364,7.515,7.515,7.515  c4.151,0,7.515-3.365,7.515-7.515V383.823c50.992-41.246,80.157-102.228,80.157-167.901  C491.96,158.247,469.501,104.024,428.718,63.243z"/>
<path d="M435.851,191.875c0-29.337-20.399-54.86-48.379-61.77c-2.846-28.014-26.572-49.949-55.323-49.949  c-6.722,0-13.409,1.23-19.668,3.592c-11.793-17.206-31.318-27.639-52.473-27.639c-35.083,0-63.624,28.542-63.624,63.624  c0,3.088,0.22,6.151,0.658,9.175c-3.024-0.438-6.087-0.658-9.175-0.658c-35.083,0-63.624,28.542-63.624,63.624  s28.542,63.624,63.624,63.624h108.545c4.151,0,7.515-3.365,7.515-7.515s-3.364-7.515-7.515-7.515H187.866  c-26.795,0-48.595-21.8-48.595-48.595s21.8-48.595,48.595-48.595c5.813,0,11.503,1.019,16.913,3.028  c2.755,1.023,5.852,0.347,7.93-1.73c2.078-2.078,2.754-5.176,1.731-7.93c-2.009-5.412-3.028-11.103-3.028-16.914  c0-26.795,21.8-48.595,48.595-48.595c17.969,0,34.4,9.859,42.883,25.729c1.955,3.66,6.507,5.043,10.169,3.086  c5.834-3.118,12.435-4.767,19.088-4.767c22.376,0,40.579,18.204,40.579,40.544l-0.014,0.498c-0.058,3.782,2.705,7.019,6.451,7.554  c23.748,3.392,41.656,24.068,41.656,48.093c0,26.795-21.8,48.595-48.595,48.595h-40.078c-4.151,0-7.515,3.365-7.515,7.515  s3.364,7.515,7.515,7.515h40.078C407.308,255.499,435.851,226.957,435.851,191.875z"/>
<path d="M268.023,362.708c-4.151,0-7.515,3.365-7.515,7.515v8.016c0,4.15,3.364,7.515,7.515,7.515c4.151,0,7.515-3.365,7.515-7.515  v-8.016C275.538,366.073,272.173,362.708,268.023,362.708z"/>
<path d="M268.023,330.646c-4.151,0-7.515,3.365-7.515,7.515v8.016c0,4.15,3.364,7.515,7.515,7.515c4.151,0,7.515-3.365,7.515-7.515  v-8.016C275.538,334.01,272.173,330.646,268.023,330.646z"/>
<path d="M268.023,298.583c-4.151,0-7.515,3.365-7.515,7.515v8.016c0,4.15,3.364,7.515,7.515,7.515c4.151,0,7.515-3.365,7.515-7.515  v-8.016C275.538,301.948,272.173,298.583,268.023,298.583z"/>
<path d="M268.023,266.521c-4.151,0-7.515,3.365-7.515,7.515v8.016c0,4.15,3.364,7.515,7.515,7.515c4.151,0,7.515-3.365,7.515-7.515  v-8.016C275.538,269.885,272.173,266.521,268.023,266.521z"/>
<path d="M332.148,330.646c-4.151,0-7.515,3.365-7.515,7.515v8.016c0,4.15,3.364,7.515,7.515,7.515c4.151,0,7.515-3.365,7.515-7.515  v-8.016C339.663,334.01,336.298,330.646,332.148,330.646z"/>
<path d="M332.148,362.708c-4.151,0-7.515,3.365-7.515,7.515v8.016c0,4.15,3.364,7.515,7.515,7.515c4.151,0,7.515-3.365,7.515-7.515  v-8.016C339.663,366.073,336.298,362.708,332.148,362.708z"/>
<path d="M332.148,266.521c-4.151,0-7.515,3.365-7.515,7.515v8.016c0,4.15,3.364,7.515,7.515,7.515c4.151,0,7.515-3.365,7.515-7.515  v-8.016C339.663,269.885,336.298,266.521,332.148,266.521z"/>
<path d="M332.148,298.583c-4.151,0-7.515,3.365-7.515,7.515v8.016c0,4.15,3.364,7.515,7.515,7.515c4.151,0,7.515-3.365,7.515-7.515  v-8.016C339.663,301.948,336.298,298.583,332.148,298.583z"/>
<path d="M203.898,298.583c-4.15,0-7.515,3.365-7.515,7.515v8.016c0,4.15,3.365,7.515,7.515,7.515s7.515-3.365,7.515-7.515v-8.016  C211.412,301.948,208.048,298.583,203.898,298.583z"/>
<path d="M203.898,362.708c-4.15,0-7.515,3.365-7.515,7.515v8.016c0,4.15,3.365,7.515,7.515,7.515s7.515-3.365,7.515-7.515v-8.016  C211.412,366.073,208.048,362.708,203.898,362.708z"/>
<path d="M203.898,330.646c-4.15,0-7.515,3.365-7.515,7.515v8.016c0,4.15,3.365,7.515,7.515,7.515s7.515-3.365,7.515-7.515v-8.016  C211.412,334.01,208.048,330.646,203.898,330.646z"/>
<path d="M203.898,266.521c-4.15,0-7.515,3.365-7.515,7.515v8.016c0,4.15,3.365,7.515,7.515,7.515s7.515-3.365,7.515-7.515v-8.016  C211.412,269.885,208.048,266.521,203.898,266.521z"/>
<path d="M308.101,156.305h-64.125c-10.773,0-19.538,8.765-19.538,19.538s8.765,19.538,19.538,19.538h64.125  c10.773,0,19.538-8.765,19.538-19.538S318.874,156.305,308.101,156.305z M308.101,180.352h-64.125c-2.486,0-4.509-2.023-4.509-4.509  s2.023-4.509,4.509-4.509h64.125c2.486,0,4.509,2.023,4.509,4.509S310.587,180.352,308.101,180.352z"/>
<g>
</g>
<g>
</g>
<g>
</g>
<g>
</g>
<g>
</g>
<g>
</g>
<g>
</g>
<g>
</g>
<g>
</g>
<g>
</g>
<g>
</g>
<g>
</g>
<g>
</g>
<g>
</g>
<g>
</g>
</svg>
