<?xml version="1.0" encoding="iso-8859-1"?>
<!-- Generator: Adobe Illustrator 19.0.0, SVG Export Plug-In . SVG Version: 6.00 Build 0)  -->
<svg xmlns="http://www.w3.org/2000/svg" xmlns:xlink="http://www.w3.org/1999/xlink" version="1.1" id="Capa_1" x="0px" y="0px" viewBox="0 0 512 512" style="enable-background:new 0 0 512 512;" xml:space="preserve">
<path style="fill:#F1F1F0;" d="M484.447,215.922c0-115.1-93.307-208.407-208.407-208.407S67.633,100.822,67.633,215.922  l-40.078,80.157l40.078,24.047V440.36h80.157v64.125H404.29V380.199C453.079,342.054,484.447,282.653,484.447,215.922z"/>
<path style="fill:#FF82A4;" d="M240.005,183.859c-64.125-56.11-124.411,10.239-104.204,64.125  c24.047,64.125,104.204,104.204,104.204,104.204s80.157-40.078,104.204-104.204C364.415,194.098,304.131,127.75,240.005,183.859z"/>
<path style="fill:#F5577E;" d="M167.792,239.969c-11.003-29.342,1.864-62.375,26.219-77.324  c-43.157-2.628-73.386,44.869-58.21,85.34c24.047,64.125,104.204,104.204,104.204,104.204s9.276-4.64,22.459-13.281  C240.499,326.077,186.737,290.489,167.792,239.969z"/>
<polygon style="fill:#2D9396;" points="388.259,119.734 428.337,119.734 388.259,159.812 348.181,159.812 "/>
<polygon style="fill:#33C0C4;" points="388.259,119.734 388.259,79.656 348.181,119.734 348.181,159.812 "/>
<path d="M428.719,63.243C387.937,22.46,333.714,0,276.04,0s-111.898,22.46-152.68,63.243  c-40.362,40.362-62.777,93.883-63.235,150.892l-39.292,78.584c-1.756,3.512-0.512,7.784,2.855,9.804l36.43,21.858v115.98  c0,4.15,3.365,7.515,7.515,7.515h72.642v56.611c0,4.15,3.365,7.515,7.515,7.515s7.515-3.365,7.515-7.515V440.36  c0-4.15-3.365-7.515-7.515-7.515H75.147v-112.72c0-2.639-1.385-5.086-3.648-6.444l-34.112-20.467l36.966-73.932  c0.522-1.044,0.794-2.193,0.794-3.361c0-110.772,90.12-200.892,200.892-200.892s200.892,90.12,200.892,200.892  c0,62.247-28.164,119.965-77.27,158.356c-1.822,1.424-2.887,3.608-2.887,5.921v124.287c0,4.15,3.365,7.515,7.515,7.515  s7.515-3.365,7.515-7.515V383.823c50.992-41.246,80.157-102.227,80.157-167.901C491.961,158.247,469.501,104.024,428.719,63.243z"/>
<path d="M337.469,189.125c-3.697,1.885-5.168,6.41-3.283,10.108c7.424,14.57,8.514,31.377,2.988,46.112  c-19.978,53.275-82.029,90.011-97.174,98.332c-5.379-2.943-16.641-9.435-29.742-18.914c-3.363-2.432-8.06-1.677-10.493,1.683  c-2.433,3.363-1.679,8.061,1.683,10.493c19.331,13.985,34.56,21.649,35.199,21.969c2.097,1.048,4.624,1.048,6.721,0  c3.381-1.69,83.081-42.158,107.879-108.286c7.004-18.675,5.666-39.893-3.669-58.214  C345.691,188.712,341.166,187.241,337.469,189.125z"/>
<path d="M163.641,178.564c20.901-14.464,46.931-10.473,71.414,10.951c2.834,2.479,7.064,2.479,9.897,0  c20.407-17.857,42.122-23.678,61.147-16.39c3.875,1.484,8.221-0.454,9.706-4.329c1.484-3.876-0.454-8.221-4.329-9.706  c-13.473-5.161-40.136-9.699-71.479,15.006c-28.385-22.256-59.758-25.296-84.91-7.89c-26.674,18.46-37.744,53.962-26.323,84.418  c7.154,19.078,19.639,37.865,37.108,55.84c2.854,2.936,7.69,3.006,10.626,0.151c2.977-2.893,3.044-7.65,0.151-10.626  c-16.015-16.479-27.393-33.518-33.814-50.642C133.946,221.635,142.89,192.925,163.641,178.564z"/>
<path d="M182.553,314.812l-48.094,48.094c-2.736,2.735-2.918,7.255-0.4,10.196c2.81,3.281,7.97,3.488,11.027,0.431l48.094-48.094  c2.935-2.935,2.935-7.693,0-10.627C190.246,311.877,185.488,311.877,182.553,314.812z"/>
<path d="M435.28,116.858c-1.163-2.808-3.904-4.639-6.943-4.639h-32.564V79.656c0-3.04-1.831-5.779-4.639-6.943  c-2.806-1.162-6.04-0.521-8.189,1.629l-40.078,40.078c-1.41,1.409-2.201,3.32-2.201,5.313V156.7l-93.987,93.987  c-2.736,2.735-2.918,7.255-0.4,10.196c2.81,3.281,7.97,3.488,11.027,0.431l93.987-93.987h36.966c1.993,0,3.905-0.792,5.313-2.201  l40.078-40.078C435.8,122.898,436.442,119.667,435.28,116.858z M355.695,122.846l25.049-25.049v18.824l-25.049,25.049V122.846z   M385.146,152.297h-18.824l25.049-25.049h18.824L385.146,152.297z"/>
<g>
</g>
<g>
</g>
<g>
</g>
<g>
</g>
<g>
</g>
<g>
</g>
<g>
</g>
<g>
</g>
<g>
</g>
<g>
</g>
<g>
</g>
<g>
</g>
<g>
</g>
<g>
</g>
<g>
</g>
</svg>
