<?xml version="1.0" encoding="iso-8859-1"?>
<!-- Generator: Adobe Illustrator 19.0.0, SVG Export Plug-In . SVG Version: 6.00 Build 0)  -->
<svg xmlns="http://www.w3.org/2000/svg" xmlns:xlink="http://www.w3.org/1999/xlink" version="1.1" id="Capa_1" x="0px" y="0px" viewBox="0 0 512 512" style="enable-background:new 0 0 512 512;" xml:space="preserve">
<path style="fill:#F1F1F0;" d="M484.447,215.922c0-115.1-93.307-208.407-208.407-208.407S67.633,100.822,67.633,215.922  l-40.078,80.157l40.078,24.047V440.36h80.157v64.125H404.29V380.199C453.079,342.054,484.447,282.653,484.447,215.922z"/>
<polygon style="fill:#F5577E;" points="276.04,47.593 297.822,134.625 360.204,70.145 335.553,156.408 421.816,131.757   357.335,194.138 444.368,215.922 357.335,237.705 421.816,300.086 335.553,275.435 360.204,361.698 297.822,297.219 276.04,384.25   254.256,297.219 191.875,361.698 216.526,275.435 130.262,300.086 194.743,237.705 107.711,215.922 194.743,194.138   130.262,131.757 216.526,156.408 191.875,70.145 254.256,134.625 "/>
<circle style="fill:#CE384F;" cx="276.039" cy="215.922" r="69.135"/>
<g>
	<path style="fill:#FAD55A;" d="M276.04,155.876c-6.087,0-11.022,4.866-11.022,10.868v54.341c0,6.003,4.935,10.868,11.022,10.868   s11.022-4.866,11.022-10.868v-54.341C287.061,160.742,282.127,155.876,276.04,155.876z"/>
	<path style="fill:#FAD55A;" d="M286.902,256.651c-1.973-4.724-6.885-7.791-12.012-7.381c-4.965,0.396-9.244,3.87-10.639,8.651   c-1.395,4.784,0.434,10.092,4.458,13.023c4.035,2.94,9.606,3.049,13.764,0.293C287.186,268.112,289.075,261.867,286.902,256.651   C286.601,255.93,287.202,257.372,286.902,256.651z"/>
</g>
<path d="M428.719,63.243C387.937,22.46,333.714,0,276.04,0s-111.898,22.46-152.68,63.243  c-40.362,40.362-62.777,93.883-63.235,150.892l-39.292,78.584c-1.756,3.512-0.512,7.784,2.855,9.804l36.43,21.858v115.98  c0,4.15,3.365,7.515,7.515,7.515h72.642v56.611c0,4.15,3.365,7.515,7.515,7.515s7.515-3.365,7.515-7.515V440.36  c0-4.15-3.365-7.515-7.515-7.515H75.147v-112.72c0-2.639-1.385-5.086-3.648-6.444l-34.112-20.467l36.966-73.932  c0.522-1.044,0.794-2.193,0.794-3.361c0-110.772,90.12-200.892,200.892-200.892s200.892,90.12,200.892,200.892  c0,62.247-28.164,119.965-77.27,158.356c-1.822,1.424-2.887,3.608-2.887,5.921v124.287c0,4.15,3.365,7.515,7.515,7.515  s7.515-3.365,7.515-7.515V383.823c50.992-41.246,80.157-102.227,80.157-167.901C491.961,158.247,469.501,104.024,428.719,63.243z"/>
<path d="M346.494,286.377l73.257,20.935c3.225,0.921,6.763-0.472,8.497-3.343c1.789-2.963,1.281-6.876-1.206-9.284l-54.758-52.975  l73.909-18.499c3.345-0.837,5.69-3.842,5.69-7.289s-2.346-6.453-5.69-7.289l-73.909-18.499l54.758-52.975  c2.478-2.397,3.007-6.172,1.283-9.158c-1.723-2.986-5.259-4.417-8.573-3.468l-73.257,20.935l20.935-73.257  c0.947-3.314-0.482-6.848-3.468-8.573c-2.986-1.724-6.761-1.194-9.158,1.283l-52.975,54.758l-18.499-73.909  c-0.838-3.345-3.842-5.69-7.289-5.69s-6.453,2.346-7.289,5.69l-18.499,73.909L197.276,64.92c-2.397-2.477-6.172-3.007-9.158-1.283  c-2.986,1.723-4.416,5.258-3.468,8.573l20.935,73.257l-73.257-20.935c-3.315-0.946-6.848,0.483-8.573,3.468  c-1.724,2.986-1.194,6.761,1.283,9.158l54.758,52.975l-73.909,18.499c-3.345,0.837-5.69,3.842-5.69,7.289s2.346,6.453,5.69,7.289  l73.909,18.499l-54.758,52.975c-2.478,2.397-3.007,6.172-1.283,9.158c1.723,2.985,5.259,4.416,8.573,3.468l73.257-20.935  l-20.935,73.257c-0.947,3.315,0.482,6.848,3.468,8.573c2.987,1.724,6.762,1.195,9.158-1.283l52.975-54.758l18.499,73.909  c0.837,3.345,3.842,5.69,7.289,5.69s6.453-2.346,7.289-5.69l18.499-73.909l52.975,54.758c2.408,2.489,6.321,2.996,9.284,1.206  c2.871-1.733,4.264-5.27,3.343-8.497L346.494,286.377z M303.223,291.993c-4.027-4.163-11.287-2.207-12.691,3.401L276.039,353.3  l-14.493-57.906c-1.402-5.604-8.662-7.566-12.691-3.401l-41.505,42.902l16.402-57.396c1.59-5.562-3.728-10.879-9.29-9.29  l-57.396,16.402l42.902-41.505c4.163-4.027,2.206-11.287-3.401-12.691l-57.906-14.493l57.906-14.493  c5.607-1.403,7.564-8.663,3.401-12.691l-42.902-41.505l57.396,16.402c5.562,1.588,10.88-3.727,9.29-9.29L207.35,96.948  l41.505,42.902c4.027,4.163,11.287,2.206,12.691-3.401l14.493-57.906l14.493,57.906c1.403,5.607,8.663,7.564,12.691,3.401  l41.505-42.902l-16.402,57.396c-1.59,5.564,3.728,10.875,9.29,9.29l57.396-16.402l-42.902,41.505  c-1.962,1.898-2.739,4.709-2.034,7.345c0.706,2.636,2.786,4.682,5.435,5.344l57.906,14.493l-57.906,14.493  c-5.607,1.403-7.564,8.663-3.401,12.691l42.902,41.505l-57.396-16.402c-5.562-1.593-10.879,3.729-9.29,9.29l16.402,57.396  L303.223,291.993z"/>
<path d="M286.56,196.352c4.15,0,7.515-3.365,7.515-7.515v-22.262c0-9.944-8.091-18.035-18.035-18.035  c-10.319,0-19.037,8.259-19.037,18.035c0,0.048,0,0.095,0.001,0.143l1.001,52.541c0.044,9.907,8.118,17.954,18.035,17.954  c9.944,0,18.035-8.091,18.035-18.035c0-4.15-3.365-7.515-7.515-7.515c-4.15,0-7.515,3.365-7.515,7.515  c0,1.657-1.349,3.006-3.006,3.006s-3.006-1.349-3.006-3.006c0-0.048,0-0.095-0.001-0.143l-1-52.499  c0.04-1.281,2.002-2.967,4.008-2.967c1.657,0,3.006,1.349,3.006,3.006v22.262C279.046,192.988,282.409,196.352,286.56,196.352z"/>
<path d="M292.692,254.35c-2.581-6.882-9.992-11.342-17.203-11.121c-7.573,0.232-14.356,5.374-16.638,12.592  c-2.298,7.267,0.335,15.404,6.465,19.936c6.056,4.478,14.458,4.663,20.728,0.507C293.128,271.568,295.954,262.186,292.692,254.35  C292.69,254.346,293.15,255.45,292.692,254.35z M278.977,261.865c-0.746,3.753-6.587,2.626-5.899-1.131  C273.787,256.862,279.755,258.048,278.977,261.865C278.941,262.045,279.026,261.625,278.977,261.865z"/>
<g>
</g>
<g>
</g>
<g>
</g>
<g>
</g>
<g>
</g>
<g>
</g>
<g>
</g>
<g>
</g>
<g>
</g>
<g>
</g>
<g>
</g>
<g>
</g>
<g>
</g>
<g>
</g>
<g>
</g>
</svg>
