<?xml version="1.0" encoding="iso-8859-1"?>
<!-- Generator: Adobe Illustrator 19.0.0, SVG Export Plug-In . SVG Version: 6.00 Build 0)  -->
<svg xmlns="http://www.w3.org/2000/svg" xmlns:xlink="http://www.w3.org/1999/xlink" version="1.1" id="Capa_1" x="0px" y="0px" viewBox="0 0 512 512" style="enable-background:new 0 0 512 512;" xml:space="preserve">
<path style="fill:#F1F1F0;" d="M484.447,215.922c0-115.1-93.307-208.407-208.407-208.407S67.633,100.822,67.633,215.922  l-40.078,80.157l40.078,24.047V440.36h80.157v64.125H404.29V380.199C453.08,342.054,484.447,282.653,484.447,215.922z"/>
<polygon style="fill:#53AAD4;" points="276.04,376.235 147.789,304.094 147.789,175.843 276.04,247.984 "/>
<polyline style="fill:#C8C7C2;" points="276.04,247.984 211.915,296.078 91.68,223.937 147.789,175.843 "/>
<polygon style="fill:#74D0E3;" points="276.04,376.235 404.29,304.094 404.29,175.843 276.04,247.984 "/>
<polygon style="fill:#E3E3E1;" points="332.149,296.078 452.384,223.937 404.29,175.843 276.04,247.984 "/>
<polygon style="fill:#33C0C4;" points="147.789,175.843 276.04,103.703 404.29,175.843 276.04,247.984 "/>
<polygon style="fill:#FAD55A;" points="308.102,167.695 308.102,71.597 243.977,71.597 243.977,167.695 211.915,167.695   276.04,207.735 340.165,167.695 "/>
<path d="M428.719,63.243C387.936,22.46,333.713,0,276.04,0S164.142,22.46,123.36,63.243  c-40.361,40.362-62.776,93.883-63.235,150.892l-39.292,78.584c-1.756,3.512-0.513,7.784,2.856,9.804l36.429,21.858v115.98  c0,4.15,3.364,7.515,7.515,7.515h72.642v56.611c0,4.15,3.364,7.515,7.515,7.515c4.151,0,7.515-3.365,7.515-7.515V440.36  c0-4.15-3.364-7.515-7.515-7.515H75.147v-112.72c0-2.639-1.385-5.086-3.649-6.444l-34.111-20.467l36.966-73.932  c0.522-1.044,0.794-2.193,0.794-3.361c0-110.772,90.12-200.892,200.892-200.892s200.892,90.12,200.892,200.892  c0,62.247-28.164,119.964-77.27,158.356c-1.822,1.424-2.887,3.608-2.887,5.921v124.287c0,4.15,3.364,7.515,7.515,7.515  c4.151,0,7.515-3.365,7.515-7.515V383.823c50.992-41.246,80.157-102.228,80.157-167.901  C491.961,158.247,469.502,104.024,428.719,63.243z"/>
<path d="M277.37,383.616c0.848-0.152,1.671-0.442,2.421-0.87l128.182-72.103c2.366-1.331,3.831-3.834,3.831-6.55v-47.046  l44.445-26.667c4.123-2.473,4.852-8.354,1.448-11.757l-48.094-48.094c-0.478-0.478-1.041-0.905-1.63-1.235l-70.735-39.789  c-3.614-2.035-8.198-0.751-10.234,2.866c-2.034,3.617-0.751,8.199,2.866,10.233l59.091,33.239l-112.923,63.519l-112.922-63.519  l59.887-33.687c3.617-2.035,4.901-6.617,2.866-10.233c-2.035-3.618-6.617-4.901-10.234-2.866l-71.466,40.2  c-0.449,0.242-0.884,0.549-1.271,0.88l-56.11,48.094c-3.83,3.284-3.299,9.556,1.024,12.149l52.46,31.476v42.237  c0,2.714,1.465,5.218,3.83,6.55l128.251,72.141C273.879,383.64,275.658,383.925,277.37,383.616z M332.927,286.848l-43.843-37.579  l113.921-64.081l37.259,37.258L332.927,286.848z M148.687,184.97l113.626,63.915l-50.866,38.15l-106.962-64.177L148.687,184.97z   M155.304,270.875l52.745,31.647c2.591,1.556,5.958,1.382,8.374-0.432l52.102-39.076v49.096c0,4.15,3.364,7.515,7.515,7.515  c4.151,0,7.515-3.365,7.515-7.515v-47.786l43.704,37.461c2.429,2.081,6.014,2.385,8.756,0.738l60.761-36.456V299.7l-113.221,63.687  V348.18c0-4.15-3.364-7.515-7.515-7.515c-4.151,0-7.515,3.365-7.515,7.515v15.207l-113.221-63.687V270.875z"/>
<path d="M251.492,167.828V71.64c0-4.15-3.364-7.515-7.515-7.515c-4.151,0-7.515,3.365-7.515,7.515v88.673h-24.548  c-3.353,0-6.299,2.22-7.223,5.444c-0.925,3.222,0.397,6.667,3.24,8.443l64.125,40.078c2.411,1.508,5.554,1.508,7.965,0  l64.125-40.078c2.857-1.785,4.187-5.363,3.198-8.581c-0.958-3.118-3.918-5.306-7.181-5.306h-24.548V71.64  c0-4.15-3.364-7.515-7.515-7.515c-4.151,0-7.515,3.365-7.515,7.515v96.188c0,4.15,3.364,7.515,7.515,7.515h5.86l-37.923,23.702  l-37.922-23.702h5.86C248.127,175.342,251.492,171.978,251.492,167.828z"/>
<g>
</g>
<g>
</g>
<g>
</g>
<g>
</g>
<g>
</g>
<g>
</g>
<g>
</g>
<g>
</g>
<g>
</g>
<g>
</g>
<g>
</g>
<g>
</g>
<g>
</g>
<g>
</g>
<g>
</g>
</svg>
