<?xml version="1.0" encoding="iso-8859-1"?>
<!-- Generator: Adobe Illustrator 19.0.0, SVG Export Plug-In . SVG Version: 6.00 Build 0)  -->
<svg xmlns="http://www.w3.org/2000/svg" xmlns:xlink="http://www.w3.org/1999/xlink" version="1.1" id="Capa_1" x="0px" y="0px" viewBox="0 0 512 512" style="enable-background:new 0 0 512 512;" xml:space="preserve">
<path style="fill:#F1F1F0;" d="M484.447,215.922c0-115.1-93.307-208.407-208.407-208.407S67.633,100.822,67.633,215.922  l-40.078,80.157l40.078,24.047V440.36h80.157v64.125H404.29V380.199C453.08,342.054,484.447,282.653,484.447,215.922z"/>
<path style="fill:#D6D5D1;" d="M276.04,79.656c-35.415,0-64.125,28.71-64.125,64.125s28.71,64.125,64.125,64.125  s64.125,28.71,64.125,64.125s-28.71,64.125-64.125,64.125c70.83,0,128.25-57.42,128.25-128.25S346.87,79.656,276.04,79.656z"/>
<path style="fill:#838076;" d="M276.04,207.906c-35.415,0-64.125-28.71-64.125-64.125s28.71-64.125,64.125-64.125  c-70.83,0-128.251,57.42-128.251,128.25s57.42,128.25,128.251,128.25c35.415,0,64.125-28.71,64.125-64.125  S311.455,207.906,276.04,207.906z"/>
<path style="fill:#757267;" d="M179.852,199.89c0-43.67,21.833-82.237,55.173-105.397c5.688-4.738,12.208-8.509,19.31-11.064  c2.223-1.028,4.477-2.002,6.766-2.904c-63.792,7.401-113.311,61.603-113.311,127.38c0,70.83,57.42,128.25,128.251,128.25  c11.274,0,21.863-2.92,31.068-8.029C236.735,327.593,179.852,270.388,179.852,199.89z"/>
<circle style="fill:#838076;" cx="276.039" cy="143.781" r="24.047"/>
<circle style="fill:#F1F1F0;" cx="276.039" cy="272.031" r="24.047"/>
<path d="M428.719,63.243C387.936,22.46,333.713,0,276.04,0S164.142,22.46,123.36,63.243  c-40.361,40.362-62.776,93.883-63.235,150.892l-39.292,78.584c-1.756,3.512-0.513,7.784,2.856,9.804l36.429,21.858v115.98  c0,4.15,3.364,7.515,7.515,7.515h72.642v56.611c0,4.15,3.364,7.515,7.515,7.515c4.151,0,7.515-3.365,7.515-7.515V440.36  c0-4.15-3.364-7.515-7.515-7.515H75.147v-112.72c0-2.639-1.385-5.086-3.649-6.444l-34.111-20.467l36.966-73.932  c0.522-1.044,0.794-2.193,0.794-3.361c0-110.772,90.12-200.892,200.892-200.892s200.892,90.12,200.892,200.892  c0,62.247-28.164,119.964-77.27,158.356c-1.822,1.424-2.887,3.608-2.887,5.921v124.287c0,4.15,3.364,7.515,7.515,7.515  c4.151,0,7.515-3.365,7.515-7.515V383.823c50.992-41.246,80.157-102.228,80.157-167.901  C491.961,158.247,469.502,104.024,428.719,63.243z"/>
<path d="M374.63,114.568c-2.854-3.014-7.61-3.142-10.624-0.29c-3.014,2.855-3.143,7.61-0.289,10.624  c21.317,22.509,33.057,51.988,33.057,83.003c0,45.441-25.232,85.097-62.422,105.696c8.385-11.73,13.326-26.085,13.326-41.571  c0-39.502-32.138-71.64-71.64-71.64c-31.215,0-56.611-25.396-56.611-56.611s25.396-56.611,56.611-56.611  c21.227,0,42.101,5.584,60.364,16.149c3.594,2.078,8.19,0.85,10.267-2.742c2.078-3.592,0.851-8.189-2.741-10.268  c-20.547-11.884-44.023-18.166-67.889-18.166c-74.861,0-135.765,60.904-135.765,135.765s60.904,135.765,135.765,135.765  s135.765-60.904,135.765-135.765C411.805,173.029,398.603,139.88,374.63,114.568z M276.04,328.642  c-66.574,0-120.736-54.162-120.736-120.736c0-45.451,25.248-85.11,62.453-105.706c-8.395,11.734-13.357,26.085-13.357,41.581  c0,39.502,32.138,71.64,71.64,71.64c31.215,0,56.611,25.396,56.611,56.611S307.255,328.642,276.04,328.642z"/>
<path d="M244.478,143.781c0,17.403,14.159,31.562,31.562,31.562c17.403,0,31.562-14.159,31.562-31.562s-14.159-31.562-31.562-31.562  C258.637,112.219,244.478,126.378,244.478,143.781z M292.572,143.781c0,9.116-7.417,16.532-16.532,16.532  c-9.116,0-16.532-7.416-16.532-16.532s7.416-16.532,16.532-16.532C285.156,127.249,292.572,134.665,292.572,143.781z"/>
<path d="M276.04,240.47c-17.403,0-31.562,14.159-31.562,31.562s14.159,31.562,31.562,31.562c17.403,0,31.562-14.159,31.562-31.562  S293.443,240.47,276.04,240.47z M276.04,288.564c-9.116,0-16.532-7.417-16.532-16.532s7.416-16.532,16.532-16.532  c9.116,0,16.532,7.417,16.532,16.532S285.155,288.564,276.04,288.564z"/>
<path d="M433.67,181.438c-0.677-4.094-4.535-6.864-8.641-6.187c-4.094,0.677-6.864,4.546-6.187,8.641l0.158,0.971  c0.599,3.689,3.787,6.312,7.409,6.312c0.399,0,0.806-0.032,1.212-0.098c4.097-0.665,6.878-4.525,6.214-8.621L433.67,181.438z"/>
<path d="M427.175,155.84c-1.355-3.924-5.631-6.005-9.556-4.652c-3.923,1.355-6.006,5.632-4.652,9.556l0.305,0.892  c1.054,3.142,3.983,5.127,7.123,5.127c0.793,0,1.598-0.126,2.391-0.392c3.935-1.32,6.055-5.579,4.735-9.515L427.175,155.84z"/>
<path d="M391.533,108.351c-3.27,2.556-3.85,7.278-1.294,10.549l0.575,0.742c1.48,1.928,3.71,2.94,5.967,2.94  c1.596,0,3.205-0.507,4.57-1.554c3.292-2.527,3.913-7.244,1.386-10.537l-0.655-0.847  C399.527,106.375,394.804,105.796,391.533,108.351z"/>
<path d="M416.552,131.712c-1.98-3.647-6.54-5.003-10.189-3.023c-3.648,1.979-5.001,6.541-3.023,10.189l0.46,0.854  c1.357,2.527,3.949,3.964,6.629,3.964c1.198,0,2.415-0.288,3.545-0.894c3.657-1.962,5.032-6.517,3.07-10.175L416.552,131.712z"/>
<path d="M373.579,90.701c-2.809,3.056-2.608,7.809,0.448,10.618l0.7,0.647c1.448,1.351,3.287,2.018,5.122,2.018  c2.012,0,4.019-0.803,5.498-2.391c2.831-3.036,2.663-7.79-0.372-10.621l-0.779-0.721C381.14,87.446,376.39,87.645,373.579,90.701z"/>
<path d="M391.089,308.001c1.377,1.081,3.012,1.605,4.636,1.605c2.227,0,4.433-0.986,5.915-2.875l0.641-0.819  c2.55-3.274,1.962-7.996-1.314-10.546c-3.274-2.549-7.996-1.964-10.546,1.314l-0.602,0.77  C387.257,300.713,387.825,305.438,391.089,308.001z"/>
<path d="M237.742,52.714l-1.008,0.251c-4.025,1.015-6.464,5.1-5.449,9.124c0.86,3.408,3.92,5.678,7.281,5.678  c0.608,0,1.227-0.075,1.844-0.23l0.947-0.236c4.029-0.998,6.486-5.073,5.488-9.101C245.846,54.173,241.771,51.716,237.742,52.714z"/>
<path d="M263.811,48.555l-1.048,0.083c-4.136,0.339-7.214,3.967-6.875,8.103c0.321,3.928,3.609,6.902,7.482,6.902  c0.205,0,0.413-0.008,0.621-0.025l0.96-0.076c4.139-0.315,7.238-3.925,6.924-8.063C271.558,51.34,267.953,48.24,263.811,48.555z"/>
<path d="M189.477,73.547l-0.894,0.58c-3.471,2.275-4.44,6.934-2.164,10.404c1.443,2.201,3.844,3.396,6.291,3.396  c1.414,0,2.844-0.398,4.113-1.231l0.792-0.515c3.489-2.247,4.495-6.897,2.248-10.386C197.617,72.306,192.968,71.3,189.477,73.547z"/>
<path d="M340.161,61.48c-3.797-1.67-8.233,0.054-9.903,3.855c-1.671,3.799,0.055,8.233,3.854,9.903l0.889,0.394  c0.994,0.443,2.033,0.653,3.056,0.653c2.876,0,5.62-1.66,6.867-4.457c1.691-3.79-0.013-8.233-3.803-9.923L340.161,61.48z"/>
<path d="M289.135,48.623c-4.141-0.331-7.764,2.739-8.103,6.876c-0.339,4.136,2.739,7.764,6.875,8.103l0.961,0.081  c0.223,0.02,0.445,0.029,0.665,0.029c3.854,0,7.134-2.948,7.478-6.858c0.362-4.134-2.695-7.78-6.829-8.142L289.135,48.623z"/>
<path d="M352.969,76.23c-2.269,3.475-1.29,8.132,2.185,10.4l0.792,0.522c1.278,0.85,2.723,1.256,4.152,1.256  c2.433,0,4.819-1.179,6.266-3.358c2.296-3.457,1.357-8.121-2.101-10.417l-0.894-0.589C359.895,71.776,355.238,72.753,352.969,76.23z  "/>
<path d="M315.17,52.921c-4.021-1.02-8.109,1.424-9.124,5.449c-1.015,4.024,1.425,8.11,5.449,9.124l0.945,0.241  c0.627,0.161,1.255,0.238,1.874,0.238c3.35,0,6.403-2.254,7.274-5.648c1.032-4.02-1.391-8.116-5.41-9.147L315.17,52.921z"/>
<path d="M212.736,61.123l-0.965,0.42c-3.799,1.669-5.527,6.103-3.858,9.902c1.236,2.816,3.992,4.494,6.883,4.494  c1.009,0,2.035-0.204,3.019-0.636l0.875-0.381c3.81-1.644,5.567-6.067,3.922-9.877C220.97,61.236,216.552,59.48,212.736,61.123z"/>
<path d="M125.188,155.021l-0.348,1.001c-1.349,3.925,0.739,8.2,4.665,9.549c0.809,0.278,1.632,0.41,2.443,0.41  c3.12,0,6.035-1.959,7.106-5.075l0.316-0.91c1.374-3.917-0.687-8.204-4.604-9.579C130.847,149.043,126.562,151.105,125.188,155.021z  "/>
<path d="M433.558,235.033l0.17-1.019c0.677-4.094-2.094-7.963-6.189-8.639c-4.096-0.671-7.963,2.095-8.639,6.19l-0.162,0.969  c-0.689,4.092,2.067,7.97,6.16,8.66c0.423,0.071,0.844,0.105,1.258,0.105C429.758,241.299,432.939,238.702,433.558,235.033z"/>
<path d="M118.443,234.573c0.618,3.67,3.799,6.266,7.401,6.266c0.415,0,0.836-0.034,1.258-0.105c4.093-0.69,6.85-4.567,6.16-8.66  l-0.152-0.926c-0.652-4.098-4.501-6.892-8.603-6.239c-4.099,0.653-6.892,4.505-6.239,8.603L118.443,234.573z"/>
<path d="M118.555,180.582l-0.175,1.038c-0.677,4.094,2.093,7.963,6.187,8.641c0.416,0.068,0.829,0.102,1.235,0.102  c3.611,0,6.796-2.61,7.405-6.289l0.159-0.949c0.702-4.091-2.045-7.976-6.135-8.678C123.133,173.741,119.257,176.492,118.555,180.582  z"/>
<path d="M374.24,314.296l-0.712,0.654c-3.066,2.798-3.28,7.552-0.483,10.617c1.483,1.624,3.514,2.448,5.552,2.448  c1.81,0,3.624-0.649,5.065-1.965l0.772-0.707c3.05-2.814,3.241-7.569,0.428-10.619C382.046,311.674,377.293,311.481,374.24,314.296z  "/>
<path d="M177.477,313.961c-3.038-2.828-7.793-2.654-10.621,0.384c-2.827,3.039-2.655,7.793,0.384,10.621l0.779,0.72  c1.443,1.323,3.262,1.976,5.077,1.976c2.032,0,4.059-0.82,5.54-2.436c2.805-3.059,2.6-7.812-0.459-10.618L177.477,313.961z"/>
<path d="M138.481,142.029c1.138,0.617,2.365,0.91,3.574,0.91c2.668,0,5.252-1.425,6.614-3.935l0.455-0.834  c2.007-3.632,0.689-8.204-2.944-10.211c-3.634-2.007-8.204-0.689-10.212,2.944l-0.513,0.938  C133.477,135.491,134.832,140.052,138.481,142.029z"/>
<path d="M413.684,273.624c-3.65-1.98-8.209-0.623-10.188,3.025l-0.467,0.856c-1.994,3.639-0.661,8.206,2.978,10.202  c1.147,0.628,2.385,0.927,3.606,0.927c2.655,0,5.23-1.411,6.597-3.904l0.5-0.917C418.686,280.163,417.332,275.602,413.684,273.624z"/>
<path d="M426.96,260.599l0.345-0.998c1.338-3.929-0.762-8.198-4.692-9.536c-3.926-1.339-8.198,0.762-9.536,4.691l-0.315,0.914  c-1.361,3.921,0.713,8.202,4.634,9.564c0.816,0.284,1.648,0.418,2.465,0.418C422.972,265.652,425.881,263.704,426.96,260.599z"/>
<path d="M428.336,200.212c-4.151,0-7.515,3.365-7.515,7.515l0.001,0.179l-0.002,0.802c-0.015,4.15,3.337,7.527,7.489,7.541  c0.009,0,0.018,0,0.027,0c4.137,0,7.499-3.347,7.514-7.489l0.002-0.855c0-0.022-0.001-0.092-0.001-0.114v-0.065  C435.851,203.577,432.486,200.212,428.336,200.212z"/>
<path d="M135.622,284.274c1.364,2.501,3.942,3.917,6.603,3.917c1.216,0,2.45-0.296,3.593-0.92c3.643-1.988,4.985-6.554,2.996-10.196  l-0.444-0.824c-1.955-3.661-6.506-5.044-10.169-3.089c-3.66,1.955-5.044,6.508-3.089,10.168L135.622,284.274z"/>
<path d="M124.961,260.145c1.075,3.11,3.987,5.062,7.103,5.062c0.815,0,1.642-0.133,2.455-0.415c3.923-1.356,6.003-5.635,4.648-9.558  l-0.31-0.904c-1.33-3.931-5.595-6.04-9.526-4.713c-3.932,1.329-6.042,5.594-4.713,9.526L124.961,260.145z"/>
<path d="M116.228,207.967l0.001,0.298c0,4.15,3.364,7.515,7.515,7.515s7.515-3.365,7.515-7.515l-0.001-0.359l0.003-0.963  c0.024-4.15-3.32-7.535-7.471-7.559c-0.015,0-0.03,0-0.045,0c-4.129,0-7.49,3.336-7.514,7.471L116.228,207.967z"/>
<path d="M296.369,359.045c-0.345-4.136-3.982-7.209-8.113-6.864l-0.949,0.076c-4.139,0.315-7.238,3.925-6.924,8.063  c0.301,3.945,3.594,6.946,7.486,6.946c0.19,0,0.384-0.007,0.577-0.022l1.059-0.084C293.641,366.813,296.714,363.181,296.369,359.045  z"/>
<path d="M271.224,360.316c0.333-4.137-2.751-7.76-6.887-8.093l-0.961-0.08c-4.129-0.356-7.776,2.706-8.133,6.841  c-0.356,4.135,2.706,7.776,6.841,8.133l1.047,0.087c0.205,0.016,0.409,0.024,0.61,0.024  C267.619,367.229,270.908,364.248,271.224,360.316z"/>
<path d="M246.208,357.476c1.01-4.026-1.436-8.107-5.461-9.117l-0.94-0.238c-4.025-1.031-8.116,1.397-9.144,5.416  c-1.029,4.021,1.396,8.115,5.416,9.144l1.013,0.257c0.613,0.153,1.228,0.227,1.834,0.227  C242.291,363.165,245.354,360.888,246.208,357.476z"/>
<path d="M320.964,353.663c-1.024-4.022-5.118-6.455-9.136-5.429l-0.931,0.233c-4.029,0.998-6.486,5.073-5.488,9.101  c0.849,3.422,3.915,5.709,7.288,5.709c0.598,0,1.206-0.072,1.814-0.222l1.023-0.257  C319.557,361.775,321.987,357.685,320.964,353.663z"/>
<path d="M221.99,350.541c1.665-3.801-0.066-8.233-3.868-9.898l-0.889-0.392c-3.79-1.684-8.233,0.023-9.918,3.816  c-1.685,3.792,0.024,8.233,3.817,9.918l0.959,0.423c0.981,0.43,2.005,0.633,3.012,0.633  C217.996,355.041,220.755,353.36,221.99,350.541z"/>
<path d="M344.324,344.284c-1.674-3.797-6.114-5.518-9.907-3.845l-0.866,0.378c-3.81,1.644-5.567,6.067-3.922,9.877  c1.225,2.841,3.994,4.539,6.904,4.539c0.993,0,2.003-0.198,2.974-0.617l0.974-0.425  C344.277,352.518,345.998,348.082,344.324,344.284z"/>
<path d="M156.032,309.197c1.618,0,3.248-0.521,4.622-1.594c3.27-2.556,3.85-7.278,1.294-10.549l-0.586-0.755  c-2.536-3.288-7.255-3.896-10.541-1.362c-3.286,2.535-3.897,7.253-1.362,10.54l0.647,0.833  C151.589,308.206,153.799,309.197,156.032,309.197z"/>
<path d="M199.266,339.673c2.264-3.478,1.281-8.133-2.197-10.397l-0.796-0.522c-3.458-2.289-8.122-1.343-10.414,2.118  c-2.29,3.461-1.343,8.123,2.118,10.414l0.892,0.585c1.265,0.825,2.687,1.218,4.093,1.218  C195.417,343.089,197.825,341.886,199.266,339.673z"/>
<path d="M150.565,108.921l-0.656,0.836c-2.55,3.274-1.962,7.996,1.314,10.546c1.372,1.068,2.997,1.586,4.612,1.586  c2.237,0,4.453-0.996,5.935-2.899l0.588-0.75c2.573-3.256,2.021-7.982-1.235-10.556  C157.864,105.113,153.137,105.664,150.565,108.921z"/>
<path d="M365.805,331.175c-2.28-3.469-6.942-4.431-10.408-2.151l-0.793,0.517c-3.486,2.253-4.485,6.904-2.232,10.39  c1.439,2.224,3.854,3.437,6.318,3.437c1.398,0,2.811-0.39,4.072-1.204l0.891-0.58C367.122,339.303,368.086,334.644,365.805,331.175z  "/>
<path d="M167.778,90.348c-3.05,2.814-3.241,7.569-0.428,10.619c1.482,1.605,3.5,2.419,5.526,2.419c1.822,0,3.649-0.658,5.094-1.992  l0.696-0.637c3.073-2.789,3.304-7.542,0.515-10.615c-2.789-3.074-7.54-3.304-10.615-0.515L167.778,90.348z"/>
<path d="M185.011,350.12l-0.815-0.526c-3.481-2.259-8.134-1.27-10.394,2.21c-2.26,3.481-1.271,8.135,2.21,10.395l0.88,0.568  c1.257,0.807,2.662,1.191,4.053,1.191c2.474,0,4.896-1.22,6.33-3.457C189.518,357.01,188.504,352.361,185.011,350.12z"/>
<path d="M165.703,335.698l-0.72-0.626c-3.12-2.734-7.869-2.421-10.604,0.701c-2.734,3.122-2.421,7.869,0.701,10.604  c1.534,1.334,3.123,2.37,5.219,2.505c2.336,0.151,4.65-0.814,6.18-2.586C169.193,343.155,168.845,338.41,165.703,335.698z"/>
<path d="M268.426,31.562c0,4.15,3.364,7.515,7.515,7.515c0.02,0,0.063,0,0.107,0l0.863,0.002c0.013,0,0.024,0,0.037,0  c4.133,0,7.494-3.341,7.514-7.478c0.02-4.15-3.328-7.532-7.479-7.552l-1.02-0.002h-0.022  C271.789,24.047,268.426,27.412,268.426,31.562z"/>
<path d="M228.748,370.025l-0.931-0.274c-3.98-1.18-8.162,1.091-9.339,5.07c-1.18,3.979,1.09,8.161,5.07,9.34l1.003,0.295  c0.7,0.203,1.407,0.301,2.103,0.301c3.255,0,6.256-2.133,7.211-5.418C235.025,375.355,232.734,371.184,228.748,370.025z"/>
<path d="M206.165,361.645l-0.883-0.405c-3.767-1.739-8.233-0.094-9.972,3.673c-1.739,3.768-0.095,8.233,3.673,9.973l0.955,0.438  c1.01,0.46,2.067,0.677,3.109,0.677c2.856,0,5.584-1.635,6.844-4.404C211.611,367.821,209.944,363.365,206.165,361.645z"/>
<path d="M108.915,284.649c1.267,2.752,3.987,4.374,6.83,4.374c1.052,0,2.12-0.222,3.139-0.691c3.769-1.735,5.418-6.199,3.682-9.968  l-0.39-0.854c-1.703-3.784-6.151-5.471-9.937-3.767c-3.783,1.703-5.471,6.153-3.767,9.936L108.915,284.649z"/>
<path d="M137.306,328.562c2.687,3.087,7.514,3.424,10.602,0.734c3.131-2.725,3.46-7.472,0.734-10.602l-0.634-0.732  c-2.709-3.145-7.453-3.495-10.598-0.789c-3.144,2.709-3.497,7.454-0.788,10.599L137.306,328.562z"/>
<path d="M121.54,307.617c1.439,2.223,3.853,3.434,6.316,3.434c1.399,0,2.814-0.391,4.075-1.206  c3.485-2.254,4.482-6.906,2.227-10.391l-0.527-0.82c-2.24-3.494-6.887-4.51-10.382-2.269c-3.493,2.24-4.51,6.888-2.269,10.382  L121.54,307.617z"/>
<path d="M276.335,376.736l-0.977-0.001c-0.011,0-0.021,0-0.032,0c-4.135,0-7.497,3.344-7.514,7.484  c-0.017,4.15,3.334,7.529,7.484,7.546l1.039,0.001c4.151,0,7.515-3.365,7.515-7.515S280.486,376.736,276.335,376.736z"/>
<path d="M397.362,336.108c-2.724-3.134-7.47-3.467-10.602-0.745l-0.73,0.632c-3.148,2.705-3.506,7.451-0.801,10.598  c1.486,1.729,3.588,2.616,5.701,2.616c1.734,0,3.478-0.597,4.896-1.817l0.792-0.683  C399.749,343.988,400.082,339.242,397.362,336.108z"/>
<path d="M367.515,349.83l-0.814,0.521c-3.501,2.229-4.531,6.873-2.302,10.374c1.433,2.25,3.862,3.48,6.345,3.48  c1.381,0,2.777-0.38,4.029-1.176l0.88-0.564c3.489-2.247,4.495-6.897,2.248-10.386C375.654,348.59,371.008,347.584,367.515,349.83z"/>
<path d="M300.348,374.999l-0.951,0.134c-4.111,0.568-6.983,4.362-6.415,8.473c0.521,3.762,3.74,6.487,7.435,6.487  c0.344,0,0.689-0.023,1.039-0.072l1.043-0.147c4.108-0.594,6.956-4.405,6.362-8.513C308.268,377.254,304.46,374.407,300.348,374.999  z"/>
<path d="M323.874,369.865l-0.931,0.272c-3.987,1.154-6.283,5.321-5.129,9.308c0.951,3.289,3.954,5.428,7.214,5.428  c0.691,0,1.396-0.096,2.093-0.298l1.003-0.293c3.981-1.173,6.256-5.352,5.082-9.333  C332.034,370.968,327.855,368.694,323.874,369.865z"/>
<path d="M346.41,361.418l-0.876,0.4c-3.779,1.713-5.455,6.167-3.741,9.946c1.257,2.774,3.989,4.414,6.849,4.414  c1.037,0,2.092-0.216,3.098-0.672l0.948-0.432c3.771-1.733,5.423-6.196,3.689-9.966C354.644,361.337,350.185,359.685,346.41,361.418  z"/>
<path d="M452.383,200.194c-4.151,0-7.515,3.365-7.515,7.515l0.001,0.197l-0.002,0.783c-0.015,4.15,3.337,7.527,7.488,7.542  c0.01,0,0.019,0,0.028,0c4.137,0,7.499-3.347,7.514-7.488l0.002-0.837c0-0.028-0.001-0.082-0.001-0.11v-0.087  C459.898,203.559,456.533,200.194,452.383,200.194z"/>
<path d="M252.293,375.081l-0.962-0.138c-4.108-0.601-7.922,2.242-8.522,6.35c-0.6,4.107,2.242,7.921,6.349,8.522l1.032,0.148  c0.357,0.05,0.71,0.075,1.061,0.075c3.684,0,6.901-2.712,7.432-6.466C259.264,379.462,256.402,375.661,252.293,375.081z"/>
<path d="M99.692,260.086c0.964,3.271,3.958,5.392,7.204,5.392c0.703,0,1.419-0.1,2.128-0.309c3.981-1.173,6.256-5.352,5.083-9.333  l-0.277-0.943c-1.16-3.986-5.335-6.271-9.316-5.113c-3.985,1.161-6.274,5.332-5.113,9.317L99.692,260.086z"/>
<path d="M328.721,31.707l-0.985-0.292c-3.987-1.167-8.158,1.114-9.327,5.096c-1.167,3.983,1.113,8.158,5.096,9.326l0.946,0.28  c0.712,0.211,1.432,0.312,2.138,0.312c3.241,0,6.234-2.115,7.202-5.382C334.97,37.068,332.699,32.886,328.721,31.707z"/>
<path d="M303.137,26.031l-1.054-0.152c-4.112-0.579-7.911,2.28-8.493,6.39s2.28,7.911,6.39,8.492l0.94,0.136  c0.376,0.056,0.748,0.083,1.117,0.083c3.66,0,6.867-2.678,7.422-6.409C310.072,30.466,307.241,26.642,303.137,26.031z"/>
<path d="M99.88,155.098l-0.301,1.012c-1.172,3.982,1.105,8.159,5.086,9.331c0.708,0.208,1.423,0.308,2.125,0.308  c3.247,0,6.242-2.121,7.205-5.395l0.273-0.92c1.197-3.974-1.053-8.166-5.027-9.363C105.267,148.874,101.076,151.123,99.88,155.098z"/>
<path d="M109.192,130.565l-0.442,0.962c-1.725,3.775-0.063,8.233,3.712,9.957c1.012,0.462,2.073,0.681,3.117,0.681  c2.852,0,5.578-1.631,6.839-4.394l0.403-0.873c1.748-3.763,0.115-8.233-3.648-9.981  C115.408,125.167,110.941,126.802,109.192,130.565z"/>
<path d="M177.476,52.671l-0.888,0.568c-3.489,2.247-4.495,6.897-2.248,10.386c1.438,2.231,3.856,3.447,6.325,3.447  c1.394,0,2.803-0.388,4.063-1.198l0.806-0.515c3.503-2.224,4.54-6.868,2.316-10.372C185.624,51.484,180.982,50.449,177.476,52.671z"/>
<path d="M94.181,180.702l-0.154,1.064c-0.58,4.11,2.28,7.911,6.39,8.492c0.357,0.05,0.71,0.075,1.061,0.075  c3.684,0,6.901-2.712,7.432-6.466l0.135-0.929c0.617-4.104-2.209-7.931-6.313-8.549C98.628,173.77,94.798,176.596,94.181,180.702z"/>
<path d="M403.84,329.64c1.426,1.249,3.191,1.862,4.948,1.862c2.09,0,4.17-0.868,5.656-2.563l0.687-0.789  c2.718-3.135,2.381-7.881-0.755-10.601c-3.134-2.717-7.879-2.381-10.601,0.754l-0.636,0.73  C400.405,322.157,400.718,326.905,403.84,329.64z"/>
<path d="M156.404,68.289l-0.786,0.677c-3.136,2.718-3.475,7.465-0.756,10.601c1.485,1.714,3.577,2.592,5.681,2.592  c1.744,0,3.497-0.604,4.919-1.837l0.738-0.637c3.148-2.705,3.506-7.451,0.801-10.598C164.294,65.941,159.549,65.585,156.404,68.289z  "/>
<path d="M225.14,31.185l-0.987,0.288c-3.983,1.168-6.263,5.343-5.096,9.326c0.962,3.277,3.958,5.402,7.208,5.402  c0.699,0,1.412-0.099,2.118-0.306l0.946-0.276c3.986-1.157,6.279-5.325,5.122-9.311S229.124,30.029,225.14,31.185z"/>
<path d="M376.248,53.732l-0.89-0.576c-3.49-2.246-8.139-1.238-10.385,2.252c-2.246,3.49-1.237,8.14,2.252,10.386l0.804,0.52  c1.268,0.829,2.693,1.224,4.103,1.224c2.452,0,4.856-1.199,6.297-3.406C380.7,60.659,379.723,56.002,376.248,53.732z"/>
<path d="M200.527,40.222l-0.94,0.428c-3.775,1.723-5.439,6.181-3.714,9.957c1.261,2.763,3.988,4.396,6.84,4.396  c1.044,0,2.105-0.218,3.116-0.681l0.886-0.402c3.781-1.709,5.463-6.16,3.754-9.942C208.761,40.195,204.313,38.511,200.527,40.222z"/>
<path d="M148.368,86.023c-3.121-2.734-7.869-2.421-10.604,0.701l-0.688,0.789c-2.718,3.135-2.381,7.881,0.755,10.601  c1.422,1.232,3.174,1.837,4.92,1.837c2.103,0,4.195-0.878,5.681-2.592l0.637-0.73C151.804,93.506,151.49,88.758,148.368,86.023z"/>
<path d="M132.302,105.419c-3.48-2.259-8.134-1.27-10.394,2.21l-0.564,0.873c-2.246,3.49-1.237,8.14,2.252,10.386  c1.257,0.81,2.666,1.196,4.06,1.196c2.47,0,4.89-1.217,6.325-3.449l0.531-0.822C136.772,112.333,135.783,107.679,132.302,105.419z"/>
<path d="M250.829,25.762l-1.043,0.146c-4.109,0.587-6.962,4.395-6.374,8.503c0.536,3.747,3.751,6.452,7.43,6.452  c0.355,0,0.713-0.025,1.074-0.077l0.951-0.133c4.112-0.562,6.99-4.351,6.427-8.464C258.731,28.077,254.938,25.198,250.829,25.762z"/>
<path d="M353.283,41.013l-0.954-0.439c-3.776-1.725-8.234-0.062-9.957,3.712c-1.725,3.775-0.063,8.233,3.712,9.957l0.882,0.406  c1.023,0.474,2.097,0.697,3.153,0.697c2.837,0,5.553-1.615,6.824-4.359C358.687,47.224,357.048,42.758,353.283,41.013z"/>
<path d="M457.931,234.893l0.15-1.042c0.58-4.11-2.281-7.911-6.39-8.492c-4.11-0.579-7.911,2.28-8.493,6.39l-0.137,0.953  c-0.605,4.106,2.233,7.924,6.339,8.53c0.372,0.055,0.739,0.081,1.105,0.081C454.172,241.313,457.381,238.627,457.931,234.893z"/>
<path d="M458.021,181.546c-0.593-4.109-4.405-6.963-8.511-6.364c-4.108,0.592-6.957,4.404-6.364,8.511l0.13,0.932  c0.511,3.771,3.735,6.509,7.438,6.509c0.336,0,0.676-0.022,1.018-0.069c4.112-0.556,6.995-4.341,6.44-8.455L458.021,181.546z"/>
<path d="M452.262,260.502l0.298-1.009c1.161-3.985-1.127-8.156-5.113-9.317c-3.986-1.163-8.156,1.128-9.316,5.113l-0.272,0.923  c-1.185,3.978,1.078,8.162,5.057,9.347c0.715,0.213,1.438,0.315,2.148,0.315C448.301,265.873,451.291,263.764,452.262,260.502z"/>
<path d="M436.149,289.418c2.843,0,5.563-1.621,6.829-4.372l0.432-0.94c1.725-3.775,0.063-8.233-3.712-9.957  c-3.775-1.725-8.234-0.062-9.957,3.712l-0.411,0.896c-1.736,3.769-0.089,8.233,3.68,9.969  C434.028,289.196,435.097,289.418,436.149,289.418z"/>
<path d="M92.181,207.962l0.001,0.341c0,4.15,3.364,7.515,7.515,7.515s7.515-3.365,7.515-7.515l-0.001-0.397l0.003-0.963  c0.024-4.15-3.32-7.535-7.471-7.559c-0.016,0-0.03,0-0.045,0c-4.129,0-7.49,3.336-7.514,7.471L92.181,207.962z"/>
<path d="M419.905,310.24c1.259,0.812,2.669,1.199,4.065,1.199c2.468,0,4.886-1.215,6.323-3.444l0.55-0.853  c2.246-3.49,1.237-8.14-2.252-10.386c-3.489-2.245-8.139-1.238-10.385,2.252l-0.544,0.843  C415.411,303.34,416.416,307.992,419.905,310.24z"/>
<path d="M452.443,155.916c-1.174-3.981-5.351-6.255-9.333-5.083c-3.981,1.173-6.256,5.352-5.082,9.333l0.262,0.901  c0.941,3.303,3.95,5.458,7.223,5.458c0.681,0,1.375-0.093,2.063-0.29c3.991-1.137,6.305-5.294,5.168-9.286L452.443,155.916z"/>
<path d="M397.146,69.566l-0.789-0.687c-3.135-2.718-7.882-2.381-10.6,0.756c-2.718,3.136-2.38,7.882,0.756,10.601l0.73,0.635  c1.426,1.249,3.191,1.862,4.948,1.862c2.09,0,4.17-0.868,5.656-2.563C400.582,77.047,400.268,72.3,397.146,69.566z"/>
<path d="M443.253,131.361c-1.725-3.773-6.185-5.435-9.958-3.709c-3.774,1.726-5.435,6.185-3.708,9.959l0.395,0.869  c1.251,2.785,3.99,4.436,6.858,4.436c1.03,0,2.076-0.212,3.076-0.662c3.785-1.701,5.476-6.149,3.774-9.935L443.253,131.361z"/>
<path d="M94.085,234.462c0.54,3.744,3.752,6.443,7.428,6.443c0.357,0,0.719-0.025,1.083-0.078c4.108-0.592,6.957-4.404,6.364-8.511  l-0.134-0.953c-0.568-4.112-4.366-6.982-8.474-6.415c-4.111,0.568-6.983,4.362-6.415,8.473L94.085,234.462z"/>
<path d="M414.908,87.404c-2.723-3.134-7.47-3.467-10.602-0.745c-3.133,2.722-3.466,7.469-0.744,10.602l0.626,0.726  c1.487,1.732,3.591,2.622,5.708,2.622c1.731,0,3.471-0.595,4.889-1.811c3.15-2.702,3.514-7.447,0.813-10.597L414.908,87.404z"/>
<path d="M430.645,108.361c-2.254-3.486-6.908-4.484-10.391-2.227c-3.485,2.254-4.482,6.906-2.227,10.391l0.514,0.8  c1.433,2.25,3.862,3.48,6.345,3.48c1.381,0,2.777-0.38,4.029-1.176c3.501-2.229,4.531-6.873,2.302-10.374L430.645,108.361z"/>
<g>
</g>
<g>
</g>
<g>
</g>
<g>
</g>
<g>
</g>
<g>
</g>
<g>
</g>
<g>
</g>
<g>
</g>
<g>
</g>
<g>
</g>
<g>
</g>
<g>
</g>
<g>
</g>
<g>
</g>
</svg>
