<?xml version="1.0" encoding="iso-8859-1"?>
<!-- Generator: Adobe Illustrator 19.0.0, SVG Export Plug-In . SVG Version: 6.00 Build 0)  -->
<svg xmlns="http://www.w3.org/2000/svg" xmlns:xlink="http://www.w3.org/1999/xlink" version="1.1" id="Capa_1" x="0px" y="0px" viewBox="0 0 512 512" style="enable-background:new 0 0 512 512;" xml:space="preserve">
<path style="fill:#F1F1F0;" d="M484.446,215.922c0-115.1-93.307-208.407-208.407-208.407S67.632,100.822,67.632,215.922  l-40.078,80.157l40.078,24.047V440.36h80.157v64.125h256.501V380.199C453.078,342.054,484.446,282.653,484.446,215.922z"/>
<circle style="fill:#F5577E;" cx="227.944" cy="243.686" r="128.251"/>
<circle style="fill:#9F9C95;" cx="227.944" cy="243.686" r="96.188"/>
<circle style="fill:#F1F1F0;" cx="227.944" cy="243.686" r="64.125"/>
<circle style="fill:#F5577E;" cx="227.944" cy="243.686" r="32.063"/>
<polygon style="fill:#FAD55A;" points="408.43,139.378 366.78,163.403 364.632,127.653 406.282,103.629 "/>
<polygon style="fill:#FEAD5A;" points="408.43,139.485 366.78,163.532 396.694,183.284 438.345,159.237 "/>
<path d="M428.718,63.243C387.935,22.46,333.712,0,276.039,0c-57.675,0-111.898,22.46-152.679,63.243  c-40.362,40.362-62.777,93.883-63.235,150.892l-39.292,78.584c-1.756,3.512-0.512,7.784,2.855,9.804l36.43,21.858v115.98  c0,4.15,3.365,7.515,7.515,7.515h72.642v56.611c0,4.15,3.365,7.515,7.515,7.515s7.515-3.365,7.515-7.515V440.36  c0-4.15-3.365-7.515-7.515-7.515H75.147v-112.72c0-2.639-1.385-5.086-3.648-6.444l-34.112-20.467l36.966-73.932  c0.522-1.044,0.794-2.193,0.794-3.361c0-110.772,90.12-200.892,200.892-200.892s200.892,90.12,200.892,200.892  c0,62.247-28.164,119.964-77.27,158.356c-1.822,1.424-2.887,3.608-2.887,5.921v124.287c0,4.15,3.364,7.515,7.515,7.515  c4.151,0,7.515-3.365,7.515-7.515V383.823c50.992-41.246,80.157-102.228,80.157-167.901  C491.96,158.247,469.501,104.024,428.718,63.243z"/>
<path d="M346.013,192.963c-3.903,1.413-5.921,5.721-4.508,9.624c4.76,13.151,7.174,26.979,7.174,41.101  c0,66.574-54.162,120.736-120.736,120.736s-120.736-54.162-120.736-120.736s54.162-120.736,120.736-120.736  c35.182,0,68.541,15.304,91.523,41.987c2.709,3.145,7.455,3.498,10.598,0.79c3.145-2.708,3.498-7.453,0.79-10.598  c-25.839-30.002-63.349-47.208-102.91-47.208c-74.861,0-135.765,60.904-135.765,135.765s60.904,135.765,135.765,135.765  s135.765-60.904,135.765-135.765c0-15.872-2.716-31.422-8.073-46.217C354.225,193.57,349.92,191.55,346.013,192.963z"/>
<path d="M301.272,180.987c2.936-2.935,2.936-7.692,0.001-10.627c-19.586-19.586-45.628-30.373-73.329-30.373  c-57.182,0-103.703,46.521-103.703,103.703s46.521,103.703,103.703,103.703s103.703-46.521,103.703-103.703  c0-9.144-1.192-18.219-3.544-26.97c-1.078-4.009-5.204-6.38-9.207-5.307c-4.008,1.077-6.384,5.199-5.307,9.207  c2.01,7.48,3.029,15.242,3.029,23.07c0,48.895-39.779,88.673-88.673,88.673s-88.673-39.779-88.673-88.673  s39.779-88.673,88.673-88.673c23.686,0,45.953,9.224,62.7,25.972C293.579,183.922,298.337,183.922,301.272,180.987z"/>
<path d="M274.53,198.99c2.642-3.2,2.189-7.938-1.013-10.579c-12.786-10.551-28.97-16.362-45.572-16.362  c-39.502,0-71.64,32.138-71.64,71.64s32.138,71.64,71.64,71.64s71.64-32.138,71.64-71.64c0-3.752-0.293-7.52-0.871-11.196  c-0.644-4.1-4.483-6.898-8.591-6.257c-4.1,0.645-6.901,4.491-6.256,8.591c0.457,2.907,0.689,5.888,0.689,8.862  c0,31.215-25.396,56.611-56.611,56.611s-56.611-25.396-56.611-56.611s25.396-56.611,56.611-56.611  c13.12,0,25.907,4.59,36.007,12.924C267.151,202.644,271.889,202.192,274.53,198.99z"/>
<path d="M227.945,219.141c3.224,0,6.354,0.613,9.303,1.822c3.84,1.573,8.228-0.263,9.803-4.103c1.574-3.84-0.262-8.229-4.103-9.803  c-4.767-1.955-9.815-2.945-15.004-2.945c-21.823,0-39.577,17.755-39.577,39.577s17.755,39.577,39.577,39.577  c19.565,0,36.408-14.587,39.178-33.929c0.588-4.109-2.266-7.915-6.374-8.504c-4.101-0.59-7.915,2.264-8.504,6.373  c-1.716,11.989-12.163,21.03-24.298,21.03c-13.535,0-24.548-11.013-24.548-24.548S214.408,219.141,227.945,219.141z"/>
<path d="M442.486,152.966l-26.78-17.682l-1.923-32.032c-0.155-2.6-1.647-4.934-3.941-6.167c-2.292-1.233-5.062-1.193-7.318,0.109  l-41.649,24.047c-2.465,1.423-3.915,4.117-3.743,6.958l1.87,31.147l-134.813,77.835c-3.594,2.075-4.825,6.671-2.75,10.265  c2.046,3.544,6.715,4.801,10.265,2.75l134.813-77.834l26.039,17.193c2.351,1.552,5.459,1.646,7.898,0.236l41.649-24.047  c2.255-1.303,3.676-3.679,3.754-6.283C445.934,156.858,444.659,154.401,442.486,152.966z M373.553,150.945l-1.141-19.009  l27.097-15.646l1.141,19.009L373.553,150.945z M396.96,174.454l-15.892-10.492l27.097-15.646l15.892,10.492L396.96,174.454z"/>
<g>
</g>
<g>
</g>
<g>
</g>
<g>
</g>
<g>
</g>
<g>
</g>
<g>
</g>
<g>
</g>
<g>
</g>
<g>
</g>
<g>
</g>
<g>
</g>
<g>
</g>
<g>
</g>
<g>
</g>
</svg>
