<?xml version="1.0" encoding="iso-8859-1"?>
<!-- Generator: Adobe Illustrator 19.0.0, SVG Export Plug-In . SVG Version: 6.00 Build 0)  -->
<svg xmlns="http://www.w3.org/2000/svg" xmlns:xlink="http://www.w3.org/1999/xlink" version="1.1" id="Capa_1" x="0px" y="0px" viewBox="0 0 512 512" style="enable-background:new 0 0 512 512;" xml:space="preserve">
<path style="fill:#F1F1F0;" d="M484.447,215.922c0-115.1-93.307-208.407-208.407-208.407S67.633,100.822,67.633,215.922  l-40.078,80.157l40.078,24.047V440.36h80.157v64.125H404.29V380.199C453.079,342.054,484.447,282.653,484.447,215.922z"/>
<path style="fill:#918E86;" d="M365.871,350.812l79.351-79.351c12.521-12.521,12.521-32.822,0-45.344L336.608,117.505  L211.914,242.198l108.614,108.614C333.049,363.334,353.351,363.334,365.871,350.812z"/>
<path style="fill:#838076;" d="M211.914,242.198l108.614,108.614c11.641,11.641,30.001,12.452,42.587,2.45L230.697,223.415  L211.914,242.198z"/>
<g>
	<path style="fill:#757267;" d="M295.023,200.613c4.695-4.695,12.308-4.695,17.004,0l73.683,73.683   c4.695,4.695,4.695,12.308,0,17.004c-4.695,4.696-12.308,4.695-17.004,0l-73.683-73.683   C290.327,212.921,290.327,205.308,295.023,200.613z"/>
	<path style="fill:#757267;" d="M258.181,237.454c4.695-4.695,12.308-4.695,17.004,0l73.683,73.683   c4.695,4.695,4.695,12.308,0,17.004c-4.695,4.696-12.308,4.695-17.004,0l-73.683-73.683   C253.486,249.763,253.486,242.15,258.181,237.454z"/>
	<path style="fill:#757267;" d="M331.864,163.771c-4.695,4.695-4.695,12.308,0,17.004l73.683,73.683   c4.695,4.695,12.308,4.695,17.004,0c4.695-4.695,4.695-12.308,0-17.004l-73.683-73.683   C344.173,159.076,336.56,159.076,331.864,163.771z"/>
</g>
<rect x="140.82" y="85.259" transform="matrix(0.9784 -0.2069 0.2069 0.9784 -15.6548 52.8858)" style="fill:#BAB9B3;" width="208.415" height="32.064"/>
<path d="M428.719,63.243C387.937,22.46,333.714,0,276.04,0s-111.898,22.46-152.68,63.243  c-40.362,40.362-62.777,93.883-63.235,150.892l-39.292,78.584c-1.756,3.512-0.512,7.784,2.855,9.804l36.43,21.858v115.98  c0,4.15,3.365,7.515,7.515,7.515h72.642v56.611c0,4.15,3.365,7.515,7.515,7.515s7.515-3.365,7.515-7.515V440.36  c0-4.15-3.365-7.515-7.515-7.515H75.147v-112.72c0-2.639-1.385-5.086-3.648-6.444l-34.112-20.467l36.966-73.932  c0.522-1.044,0.794-2.193,0.794-3.361c0-110.772,90.12-200.892,200.892-200.892s200.892,90.12,200.892,200.892  c0,62.247-28.164,119.965-77.27,158.356c-1.822,1.424-2.887,3.608-2.887,5.921v124.287c0,4.15,3.365,7.515,7.515,7.515  s7.515-3.365,7.515-7.515V383.823c50.992-41.246,80.157-102.227,80.157-167.901C491.961,158.247,469.501,104.024,428.719,63.243z"/>
<path d="M450.536,220.805l-47.442-47.442c-2.935-2.935-7.693-2.935-10.627,0c-2.935,2.935-2.935,7.693,0,10.627l47.442,47.442  c9.571,9.571,9.571,25.145,0,34.716l-79.351,79.351c-9.572,9.571-25.145,9.571-34.716,0l-103.302-103.3l114.067-114.068  l30.307,30.307c2.935,2.935,7.693,2.935,10.627,0c2.935-2.935,2.935-7.693,0-10.627l-35.621-35.621  c-2.893-2.894-7.735-2.894-10.627,0L206.6,236.885c-2.935,2.935-2.935,7.693,0,10.627l108.614,108.614  c11.614,11.614,29.757,14.814,44.657,7.911c4.2-1.946,8.041-4.639,11.313-7.911l79.351-79.351  C465.968,261.343,465.968,236.235,450.536,220.805z"/>
<path d="M377.207,302.336c5.218,0,10.125-2.033,13.816-5.723c7.617-7.618,7.617-20.013,0-27.631l-73.684-73.683  c-7.531-7.531-20.1-7.532-27.631,0c-7.618,7.618-7.618,20.013,0,27.631l73.683,73.683  C367.081,300.304,371.988,302.336,377.207,302.336z M300.336,205.926c1.735-1.734,4.641-1.734,6.376,0l73.683,73.683  c1.658,1.658,1.746,4.41,0.195,6.169c-1.697,1.926-4.756,2.023-6.572,0.207l-73.683-73.683  C298.579,210.544,298.579,207.685,300.336,205.926z"/>
<path d="M266.682,226.418c-5.218,0-10.125,2.032-13.815,5.722c-7.618,7.618-7.618,20.013,0,27.631l73.683,73.683  c7.532,7.532,20.1,7.531,27.632,0c7.617-7.618,7.617-20.013,0-27.631l-73.684-73.683  C276.808,228.45,271.902,226.418,266.682,226.418z M343.555,322.828c-1.737,1.737-4.639,1.737-6.376,0l-73.683-73.683  c-1.582-1.583-1.748-4.183-0.375-5.953c1.639-2.111,4.861-2.314,6.75-0.424l73.683,73.683  C345.312,318.208,345.312,321.069,343.555,322.828z"/>
<path d="M414.048,265.485c5.004,0,10.007-1.905,13.817-5.713c7.617-7.618,7.617-20.013,0-27.631l-73.683-73.684  c-7.619-7.618-20.014-7.617-27.631,0c-7.618,7.618-7.618,20.013,0,27.631l73.683,73.683  C404.042,263.58,409.045,265.485,414.048,265.485z M337.178,169.084c1.735-1.734,4.641-1.734,6.376,0l73.683,73.683  c1.758,1.757,1.758,4.619,0,6.376c-1.758,1.758-4.618,1.757-6.376,0l-73.683-73.683C335.42,173.703,335.42,170.843,337.178,169.084z  "/>
<path d="M133.475,103.05c-1.087,1.67-1.467,3.704-1.054,5.654l6.633,31.369c0.848,4.008,4.899,6.644,8.906,5.798l203.899-43.11  c4.001-0.847,6.644-4.901,5.798-8.906l-6.633-31.369c-0.859-4.06-4.846-6.659-8.906-5.798L278.89,70.056l-5.078-24.017  c-0.859-4.061-4.845-6.657-8.906-5.798l-62.739,13.265c-4.001,0.847-6.644,4.901-5.798,8.906l5.078,24.017l-63.228,13.368  C136.269,100.21,134.562,101.38,133.475,103.05z M212.628,66.655l48.034-10.156l3.523,16.665L216.151,83.32L212.628,66.655z   M337.874,72.945l3.524,16.666l-189.196,40.001l-3.524-16.666L337.874,72.945z"/>
<path d="M191.269,204.729l-6.327,4.922c-2.397,1.865-3.447,5.083-2.611,8.002c0.913,3.188,3.915,5.445,7.23,5.445  c1.612,0,3.236-0.517,4.608-1.584l6.327-4.922c3.276-2.548,3.867-7.269,1.318-10.545  C199.266,202.771,194.546,202.18,191.269,204.729z"/>
<path d="M138.943,262.466c1.612,0,3.236-0.517,4.608-1.584l6.327-4.922c3.276-2.548,3.867-7.269,1.318-10.545  s-7.269-3.867-10.545-1.318l-6.327,4.922c-2.397,1.865-3.447,5.083-2.611,8.002C132.627,260.209,135.627,262.466,138.943,262.466z"/>
<path d="M165.961,224.413l-6.327,4.922c-2.98,2.318-3.772,6.637-1.796,9.856c2.311,3.763,7.53,4.723,11.023,2.007l6.327-4.922  c3.276-2.548,3.867-7.269,1.318-10.545C173.957,222.455,169.237,221.864,165.961,224.413z"/>
<path d="M121.949,223.429c1.02,0,2.056-0.208,3.048-0.649l7.325-3.256c3.792-1.686,5.501-6.127,3.814-9.919  c-1.685-3.792-6.128-5.499-9.919-3.814l-7.325,3.256c-3.127,1.391-4.956,4.838-4.342,8.207  C115.193,220.786,118.356,223.429,121.949,223.429z"/>
<path d="M190.918,193.48c3.792-1.685,5.501-6.126,3.815-9.918c-1.686-3.792-6.128-5.501-9.918-3.815l-7.325,3.255  c-3.545,1.575-5.334,5.744-4.024,9.398c1.455,4.056,6.182,6.09,10.128,4.335L190.918,193.48z"/>
<path d="M161.619,206.502c3.792-1.685,5.501-6.127,3.815-9.918c-1.685-3.793-6.127-5.5-9.918-3.815l-7.324,3.255  c-3.545,1.575-5.334,5.744-4.024,9.398c1.455,4.056,6.182,6.09,10.128,4.335L161.619,206.502z"/>
<path d="M124.534,175.838c0.453,4.071,4.228,7.09,8.299,6.638l7.967-0.886c4.125-0.459,7.097-4.174,6.638-8.299  s-4.171-7.095-8.299-6.638l-7.967,0.886C127.048,167.997,124.076,171.713,124.534,175.838z"/>
<path d="M107.273,170.194l-7.967,0.886c-4.07,0.452-7.091,4.229-6.638,8.299c0.452,4.071,4.229,7.09,8.299,6.638l7.967-0.886  c4.125-0.459,7.097-4.174,6.638-8.299C115.113,172.707,111.4,169.739,107.273,170.194z"/>
<path d="M171.006,163.113l-7.967,0.885c-4.07,0.452-7.091,4.228-6.639,8.298c0.452,4.07,4.228,7.091,8.298,6.639l7.967-0.885  c4.125-0.459,7.097-4.174,6.639-8.298C178.846,165.627,175.136,162.657,171.006,163.113z"/>
<g>
</g>
<g>
</g>
<g>
</g>
<g>
</g>
<g>
</g>
<g>
</g>
<g>
</g>
<g>
</g>
<g>
</g>
<g>
</g>
<g>
</g>
<g>
</g>
<g>
</g>
<g>
</g>
<g>
</g>
</svg>
