<?xml version="1.0" encoding="iso-8859-1"?>
<!-- Generator: Adobe Illustrator 19.0.0, SVG Export Plug-In . SVG Version: 6.00 Build 0)  -->
<svg xmlns="http://www.w3.org/2000/svg" xmlns:xlink="http://www.w3.org/1999/xlink" version="1.1" id="Capa_1" x="0px" y="0px" viewBox="0 0 512 512" style="enable-background:new 0 0 512 512;" xml:space="preserve">
<path style="fill:#F1F1F0;" d="M484.447,215.922c0-115.1-93.307-208.407-208.407-208.407S67.633,100.822,67.633,215.922  l-40.078,80.157l40.078,24.047V440.36h80.157v64.125H404.29V380.199C453.079,342.054,484.447,282.653,484.447,215.922z"/>
<path style="fill:#A46EA0;" d="M195.883,207.906c0-22.134-17.944-40.078-40.078-40.078s-40.078,17.944-40.078,40.078  c0,16.433,9.894,30.549,24.047,36.734v59.454h32.063V244.64C185.989,238.455,195.883,224.339,195.883,207.906z"/>
<path style="fill:#89589C;" d="M131.758,199.89c0-12.452,5.679-23.579,14.589-30.929c-17.568,4.252-30.621,20.07-30.621,38.945  c0,16.433,9.894,30.549,24.047,36.734v59.454h16.031v-67.47C141.652,230.439,131.758,216.324,131.758,199.89z"/>
<path style="fill:#FAD55A;" d="M408.298,171.698c-1.434,0-2.846,0.093-4.236,0.256c0.148-1.4,0.228-2.821,0.228-4.259  c0-22.114-17.944-40.04-40.078-40.04s-40.078,17.927-40.078,40.04c0,9.015,2.983,17.332,8.016,24.024H155.805v32.033h48.094v64.065  h32.063v-64.065h96.188c-5.032,6.692-8.016,15.01-8.016,24.024c0,22.114,17.944,40.04,40.078,40.04s40.078-17.927,40.078-40.04  c0-1.439-0.08-2.86-0.228-4.259c1.391,0.162,2.801,0.256,4.236,0.256c19.921,0,36.07-16.135,36.07-36.036  S428.219,171.698,408.298,171.698z M364.212,263.791c-8.854,0-16.031-7.171-16.031-16.016s7.177-16.016,16.031-16.016  s16.031,7.171,16.031,16.016C380.243,256.621,373.065,263.791,364.212,263.791z M364.212,183.711  c-8.854,0-16.031-7.171-16.031-16.016s7.177-16.016,16.031-16.016s16.031,7.171,16.031,16.016S373.065,183.711,364.212,183.711z   M404.29,223.751c-8.854,0-16.031-7.171-16.031-16.016s7.177-16.016,16.031-16.016s16.031,7.171,16.031,16.016  S413.143,223.751,404.29,223.751z"/>
<g>
	<path style="fill:#FF9047;" d="M195.883,111.718c13.281,0,24.047-14.355,24.047-32.063c0,17.708,10.766,32.063,24.047,32.063   c-13.281,0-24.047,14.355-24.047,32.063C219.93,126.073,209.163,111.718,195.883,111.718z"/>
	<path style="fill:#FF9047;" d="M284.055,344.172c13.281,0,24.047-14.355,24.047-32.063c0,17.708,10.766,32.063,24.047,32.063   c-13.281,0-24.047,14.355-24.047,32.063C308.102,358.527,297.335,344.172,284.055,344.172z"/>
	<path style="fill:#FF9047;" d="M171.836,408.297c13.281,0,24.047-14.355,24.047-32.063c0,17.708,10.766,32.063,24.047,32.063   c-13.281,0-24.047,14.355-24.047,32.063C195.883,422.652,185.116,408.297,171.836,408.297z"/>
</g>
<path d="M428.719,63.243C387.937,22.46,333.714,0,276.04,0s-111.898,22.46-152.68,63.243  c-40.362,40.362-62.777,93.883-63.235,150.892l-39.292,78.584c-1.756,3.512-0.512,7.784,2.855,9.804l36.43,21.858v115.98  c0,4.15,3.365,7.515,7.515,7.515h72.642v56.611c0,4.15,3.365,7.515,7.515,7.515s7.515-3.365,7.515-7.515V440.36  c0-4.15-3.365-7.515-7.515-7.515H75.147v-112.72c0-2.639-1.385-5.086-3.648-6.444l-34.112-20.467l36.966-73.932  c0.522-1.044,0.794-2.193,0.794-3.361c0-110.772,90.12-200.892,200.892-200.892s200.892,90.12,200.892,200.892  c0,62.247-28.164,119.965-77.27,158.356c-1.822,1.424-2.887,3.608-2.887,5.921v124.287c0,4.15,3.365,7.515,7.515,7.515  s7.515-3.365,7.515-7.515V383.823c50.992-41.246,80.157-102.227,80.157-167.901C491.961,158.247,469.501,104.024,428.719,63.243z"/>
<path d="M364.212,271.53c12.983,0,23.546-10.563,23.546-23.546s-10.563-23.546-23.546-23.546s-23.546,10.563-23.546,23.546  S351.229,271.53,364.212,271.53z M364.212,239.468c4.696,0,8.517,3.82,8.517,8.517s-3.82,8.517-8.517,8.517s-8.517-3.82-8.517-8.517  S359.516,239.468,364.212,239.468z"/>
<path d="M364.212,144.282c-12.983,0-23.546,10.563-23.546,23.546s10.563,23.546,23.546,23.546s23.546-10.563,23.546-23.546  S377.195,144.282,364.212,144.282z M364.212,176.344c-4.696,0-8.517-3.82-8.517-8.517s3.82-8.517,8.517-8.517  s8.517,3.82,8.517,8.517S368.908,176.344,364.212,176.344z"/>
<path d="M411.686,251.361c22.456-1.733,40.197-20.561,40.197-43.455s-17.741-41.72-40.197-43.455  c-1.738-24.673-22.368-44.216-47.475-44.216c-26.242,0-47.593,21.351-47.593,47.593c0,5.727,1,11.297,2.941,16.532h-19.473  c-4.15,0-7.515,3.365-7.515,7.515s3.365,7.515,7.515,7.515h32.063c2.848,0,5.45-1.609,6.722-4.156  c1.272-2.547,0.996-5.595-0.714-7.871c-4.258-5.669-6.509-12.423-6.509-19.534c0-17.955,14.609-32.564,32.564-32.564  s32.564,14.609,32.564,32.564c0,2.623-0.662,5.213,0.588,7.666c1.103,2.164,3.235,3.696,5.643,4.038  c1.743,0.247,3.538-0.181,5.291-0.181c15.746,0,28.556,12.81,28.556,28.556s-12.81,28.556-28.556,28.556  c-1.872,0-3.743-0.478-5.609-0.131c-1.523,0.284-2.946,1.049-4.023,2.161c-1.078,1.114-1.798,2.557-2.033,4.09  c-0.277,1.798,0.141,3.602,0.141,5.402c0,17.955-14.609,32.564-32.564,32.564s-32.564-14.609-32.564-32.564  c0-7.111,2.25-13.865,6.509-19.534c1.71-2.276,1.987-5.324,0.714-7.871s-3.876-4.156-6.722-4.156h-96.188  c-4.15,0-7.515,3.365-7.515,7.515v56.612h-17.033v-56.611c0-4.15-3.365-7.515-7.515-7.515h-40.579v-17.033h101.699  c4.15,0,7.515-3.365,7.515-7.515s-3.365-7.515-7.515-7.515h-67.845c-8.458-14.833-24.308-24.047-41.368-24.047  c-26.242,0-47.593,21.351-47.593,47.593c0,17.225,9.291,32.96,24.047,41.361v54.827c0,4.15,3.365,7.515,7.515,7.515h32.063  c4.15,0,7.515-3.365,7.515-7.515v-54.833c6.949-3.972,12.837-9.698,17.033-16.533v55.335c0,4.15,3.365,7.515,7.515,7.515h32.063  c4.15,0,7.515-3.365,7.515-7.515v-56.611h76.084c-1.941,5.235-2.941,10.805-2.941,16.532c0,26.242,21.351,47.593,47.593,47.593  C389.319,295.577,409.948,276.033,411.686,251.361z M168.826,237.754c-2.736,1.195-4.505,3.899-4.505,6.885v51.939h-17.033V244.64  c0-2.987-1.768-5.69-4.506-6.886c-11.871-5.188-19.541-16.904-19.541-29.848c0-17.955,14.609-32.564,32.564-32.564  c8.462,0,16.478,3.326,22.461,9.018h-22.461c-4.15,0-7.515,3.365-7.515,7.515v32.063c0,4.15,3.365,7.515,7.515,7.515h22.445  C175.501,234.07,172.318,236.228,168.826,237.754z"/>
<path d="M404.29,231.452c12.983,0,23.546-10.563,23.546-23.546s-10.563-23.546-23.546-23.546s-23.546,10.563-23.546,23.546  S391.307,231.452,404.29,231.452z M404.29,199.389c4.696,0,8.517,3.82,8.517,8.517s-3.82,8.517-8.517,8.517s-8.517-3.82-8.517-8.517  S399.594,199.389,404.29,199.389z"/>
<path d="M195.883,119.233c8.962,0,16.532,11.242,16.532,24.548c0,4.15,3.365,7.515,7.515,7.515s7.515-3.365,7.515-7.515  c0-13.306,7.571-24.548,16.532-24.548c4.15,0,7.515-3.365,7.515-7.515c0-4.15-3.365-7.515-7.515-7.515  c-8.962,0-16.532-11.242-16.532-24.548c0-4.15-3.365-7.515-7.515-7.515s-7.515,3.365-7.515,7.515  c0,13.306-7.571,24.548-16.532,24.548c-4.15,0-7.515,3.365-7.515,7.515C188.368,115.868,191.732,119.233,195.883,119.233z   M219.93,105.263c1.64,2.419,3.509,4.589,5.563,6.456c-2.054,1.867-3.923,4.037-5.563,6.456c-1.64-2.419-3.509-4.589-5.563-6.456  C216.42,109.852,218.289,107.681,219.93,105.263z"/>
<path d="M332.149,336.658c-8.962,0-16.532-11.242-16.532-24.548c0-4.15-3.365-7.515-7.515-7.515s-7.515,3.365-7.515,7.515  c0,13.306-7.571,24.548-16.532,24.548c-4.15,0-7.515,3.365-7.515,7.515s3.365,7.515,7.515,7.515  c8.962,0,16.532,11.242,16.532,24.548c0,4.15,3.365,7.515,7.515,7.515s7.515-3.365,7.515-7.515c0-13.306,7.571-24.548,16.532-24.548  c4.15,0,7.515-3.365,7.515-7.515S336.299,336.658,332.149,336.658z M308.102,350.628c-1.64-2.419-3.509-4.589-5.563-6.456  c2.054-1.867,3.923-4.037,5.563-6.456c1.64,2.419,3.509,4.589,5.563,6.456C311.611,346.039,309.742,348.209,308.102,350.628z"/>
<path d="M219.93,400.783c-8.962,0-16.532-11.242-16.532-24.548c0-4.15-3.365-7.515-7.515-7.515s-7.515,3.365-7.515,7.515  c0,13.306-7.571,24.548-16.532,24.548c-4.15,0-7.515,3.365-7.515,7.515s3.365,7.515,7.515,7.515  c8.962,0,16.532,11.242,16.532,24.548c0,4.15,3.365,7.515,7.515,7.515s7.515-3.365,7.515-7.515c0-13.306,7.571-24.548,16.532-24.548  c4.15,0,7.515-3.365,7.515-7.515S224.08,400.783,219.93,400.783z M195.883,414.753c-1.64-2.419-3.509-4.589-5.563-6.456  c2.054-1.867,3.923-4.037,5.563-6.456c1.64,2.419,3.509,4.589,5.563,6.456C199.392,410.164,197.523,412.334,195.883,414.753z"/>
<g>
</g>
<g>
</g>
<g>
</g>
<g>
</g>
<g>
</g>
<g>
</g>
<g>
</g>
<g>
</g>
<g>
</g>
<g>
</g>
<g>
</g>
<g>
</g>
<g>
</g>
<g>
</g>
<g>
</g>
</svg>
