<?xml version="1.0" encoding="iso-8859-1"?>
<!-- Generator: Adobe Illustrator 19.0.0, SVG Export Plug-In . SVG Version: 6.00 Build 0)  -->
<svg xmlns="http://www.w3.org/2000/svg" xmlns:xlink="http://www.w3.org/1999/xlink" version="1.1" id="Capa_1" x="0px" y="0px" viewBox="0 0 512 512" style="enable-background:new 0 0 512 512;" xml:space="preserve">
<path style="fill:#F1F1F0;" d="M484.447,215.922c0-115.1-93.307-208.407-208.407-208.407S67.633,100.822,67.633,215.922  l-40.078,80.157l40.078,24.047V440.36h80.157v64.125H404.29V380.199C453.08,342.054,484.447,282.653,484.447,215.922z"/>
<polygon style="fill:#C8C7C2;" points="364.212,472.423 268.024,472.423 284.055,272.031 348.181,272.031 "/>
<polygon style="fill:#BAB9B3;" points="284.055,272.031 268.024,472.423 284.055,472.423 300.087,272.031 "/>
<g>
	<polygon style="fill:#F5577E;" points="348.181,272.031 284.055,272.031 280.849,312.11 351.387,312.11  "/>
	<polygon style="fill:#F5577E;" points="274.436,392.266 357.799,392.266 354.592,352.188 277.643,352.188  "/>
	<polygon style="fill:#F5577E;" points="268.024,472.423 364.212,472.423 361.006,432.344 271.23,432.344  "/>
</g>
<g>
	<polygon style="fill:#CE384F;" points="284.055,272.031 280.849,312.11 296.88,312.11 300.087,272.031  "/>
	<polygon style="fill:#CE384F;" points="277.643,352.188 274.436,392.266 290.467,392.266 293.674,352.188  "/>
	<polygon style="fill:#CE384F;" points="271.23,432.344 268.024,472.423 284.055,472.423 287.262,432.344  "/>
</g>
<rect x="268.023" y="247.984" style="fill:#757267;" width="96.188" height="24.047"/>
<path style="fill:#918E86;" d="M316.118,175.843L316.118,175.843c17.708,0,32.063,14.355,32.063,32.063v40.078h-64.125v-40.078  C284.055,190.198,298.409,175.843,316.118,175.843z"/>
<path style="fill:#838076;" d="M328.142,178.183c-3.714-1.504-7.77-2.34-12.023-2.34l0,0c-17.708,0-32.063,14.355-32.063,32.063  v40.078h24.047v-40.078C308.102,194.452,316.393,182.94,328.142,178.183z"/>
<polygon style="fill:#FEAD5A;" points="163.821,167.828 316.118,207.906 163.821,264.016 "/>
<ellipse style="fill:#FAD55A;" cx="163.82" cy="216.282" rx="48.094" ry="48.049"/>
<path style="fill:#F1F1F0;" d="M139.774,215.922c0,0,10.766-16.031,24.047-16.031s24.047,16.031,24.047,16.031  s-10.766,16.031-24.047,16.031S139.774,215.922,139.774,215.922z"/>
<path d="M428.719,63.243C387.936,22.46,333.713,0,276.04,0S164.142,22.46,123.36,63.243  c-40.361,40.362-62.776,93.883-63.235,150.892l-39.292,78.584c-1.756,3.512-0.513,7.784,2.856,9.804l36.429,21.858v115.98  c0,4.15,3.364,7.515,7.515,7.515h72.642v56.611c0,4.15,3.364,7.515,7.515,7.515c4.151,0,7.515-3.365,7.515-7.515V440.36  c0-4.15-3.364-7.515-7.515-7.515H75.147v-112.72c0-2.639-1.385-5.086-3.649-6.444l-34.111-20.467l36.966-73.932  c0.522-1.044,0.794-2.193,0.794-3.361c0-110.772,90.12-200.892,200.892-200.892s200.892,90.12,200.892,200.892  c0,62.247-28.164,119.964-77.27,158.356c-1.822,1.424-2.887,3.608-2.887,5.921v124.287c0,4.15,3.364,7.515,7.515,7.515  c4.151,0,7.515-3.365,7.515-7.515V383.823c50.992-41.246,80.157-102.228,80.157-167.901  C491.961,158.247,469.502,104.024,428.719,63.243z"/>
<path d="M371.727,272.031v-24.047c0-4.15-3.364-7.515-7.515-7.515h-8.517v-32.564c0-21.823-17.755-39.577-39.577-39.577  c-15.272,0-29.133,8.864-35.666,22.421l-45.447-14.16c-4.02-1.057-8.124,1.342-9.18,5.354c-1.057,4.014,1.342,8.123,5.354,9.18  l59.955,17.977l-60.37,22.852c-3.64,1.342-5.698,5.385-4.628,9.116c1.188,4.142,5.771,6.481,9.823,4.987l40.579-15.56v9.974h-8.517  c-4.151,0-7.515,3.365-7.515,7.515v24.047c0,4.15,3.364,7.515,7.515,7.515h7.89l-15.382,192.278  c-0.343,4.309,3.17,8.114,7.492,8.114h96.188c4.321,0,7.834-3.804,7.492-8.114l-15.382-192.278h7.89  C368.362,279.546,371.727,276.181,371.727,272.031z M291.57,224.958l27.146-10.001c3.078-1.134,5.066-4.134,4.908-7.41  c-0.156-3.277-2.421-6.074-5.593-6.908l-22.596-5.947c4.448-6.939,12.213-11.334,20.683-11.334  c13.536,0,24.548,11.012,24.548,24.548v32.564H291.57V224.958z M276.164,464.908l2.004-25.049h75.9l2.004,25.049H276.164z   M347.655,359.703l2.004,25.049h-67.083l2.004-25.049H347.655z M285.783,344.673l2.004-25.049h56.662l2.004,25.049H285.783z   M350.861,399.781l2.004,25.049h-73.496l2.004-25.049H350.861z M356.697,264.517h-17.201c-4.151,0-7.515,3.365-7.515,7.515  s3.364,7.515,7.515,7.515h1.746l2.004,25.049H288.99l2.004-25.049h13.603c4.151,0,7.515-3.365,7.515-7.515s-3.364-7.515-7.515-7.515  H275.54v-9.018h81.159v9.018H356.697z"/>
<path d="M163.821,160.313c-30.663,0-55.609,24.946-55.609,55.609s24.946,55.609,55.609,55.609s55.609-24.946,55.609-55.609  S194.482,160.313,163.821,160.313z M163.821,256.501c-22.376,0-40.579-18.204-40.579-40.579s18.204-40.579,40.579-40.579  s40.579,18.204,40.579,40.579S186.196,256.501,163.821,256.501z"/>
<path d="M194.106,211.733c-1.331-1.982-13.484-19.357-30.285-19.357s-28.955,17.375-30.286,19.357c-1.701,2.534-1.701,5.844,0,8.378  c1.331,1.982,13.484,19.357,30.286,19.357s28.955-17.375,30.286-19.357C195.807,217.577,195.807,214.266,194.106,211.733z   M163.821,224.438c-5.246,0-10.79-4.628-14.409-8.534c3.595-3.896,9.113-8.5,14.409-8.5c5.248,0,10.794,4.632,14.41,8.533  C174.636,219.833,169.117,224.438,163.821,224.438z"/>
<path d="M164.322,208.407h-1.002c-4.151,0-7.515,3.365-7.515,7.515s3.364,7.515,7.515,7.515h1.002c4.151,0,7.515-3.365,7.515-7.515  S168.472,208.407,164.322,208.407z"/>
<path d="M404.791,191.875c0,4.15,3.364,7.515,7.515,7.515c4.151,0,7.515-3.365,7.515-7.515c0-4.696,3.82-8.517,8.517-8.517  c4.151,0,7.515-3.365,7.515-7.515s-3.364-7.515-7.515-7.515c-6.187,0-11.825,2.399-16.031,6.315  c-4.206-3.917-9.844-6.315-16.031-6.315c-4.151,0-7.515,3.365-7.515,7.515s3.364,7.515,7.515,7.515  C400.97,183.358,404.791,187.179,404.791,191.875z"/>
<path d="M220.431,135.765c0,4.15,3.364,7.515,7.515,7.515c4.151,0,7.515-3.365,7.515-7.515c0-4.696,3.82-8.517,8.517-8.517  c4.151,0,7.515-3.365,7.515-7.515c0-4.15-3.364-7.515-7.515-7.515c-6.187,0-11.825,2.399-16.031,6.315  c-4.206-3.917-9.844-6.315-16.031-6.315c-4.151,0-7.515,3.365-7.515,7.515c0,4.15,3.364,7.515,7.515,7.515  C216.61,127.249,220.431,131.069,220.431,135.765z"/>
<path d="M324.635,95.687c0,4.15,3.364,7.515,7.515,7.515c4.151,0,7.515-3.365,7.515-7.515c0-4.696,3.82-8.517,8.517-8.517  c4.151,0,7.515-3.365,7.515-7.515c0-4.15-3.364-7.515-7.515-7.515c-6.187,0-11.825,2.399-16.031,6.315  c-4.206-3.917-9.844-6.315-16.031-6.315c-4.151,0-7.515,3.365-7.515,7.515c0,4.15,3.364,7.515,7.515,7.515  C320.813,87.17,324.635,90.991,324.635,95.687z"/>
<g>
</g>
<g>
</g>
<g>
</g>
<g>
</g>
<g>
</g>
<g>
</g>
<g>
</g>
<g>
</g>
<g>
</g>
<g>
</g>
<g>
</g>
<g>
</g>
<g>
</g>
<g>
</g>
<g>
</g>
</svg>
