<?xml version="1.0" encoding="iso-8859-1"?>
<!-- Generator: Adobe Illustrator 19.0.0, SVG Export Plug-In . SVG Version: 6.00 Build 0)  -->
<svg xmlns="http://www.w3.org/2000/svg" xmlns:xlink="http://www.w3.org/1999/xlink" version="1.1" id="Capa_1" x="0px" y="0px" viewBox="0 0 512 512" style="enable-background:new 0 0 512 512;" xml:space="preserve">
<path style="fill:#F1F1F0;" d="M484.447,215.922c0-115.1-93.307-208.407-208.407-208.407S67.633,100.822,67.633,215.922  l-40.078,80.157l40.078,24.047V440.36h80.157v64.125H404.29V380.199C453.08,342.054,484.447,282.653,484.447,215.922z"/>
<ellipse style="fill:#838076;" cx="276.039" cy="312.11" rx="104.204" ry="48.094"/>
<path style="fill:#757267;" d="M276.04,328.141c-45.37,0-83.96-13.384-98.266-32.063c-3.84,5.015-5.938,10.409-5.938,16.031  c0,26.562,46.653,48.094,104.204,48.094s104.204-21.532,104.204-48.094c0-5.622-2.097-11.017-5.938-16.031  C359.999,314.757,321.409,328.141,276.04,328.141z"/>
<ellipse style="fill:#838076;" cx="276.039" cy="247.984" rx="80.157" ry="40.078"/>
<path style="fill:#757267;" d="M276.04,264.016c-35.89,0-66.266-11.795-76.481-28.055c-2.385,3.795-3.675,7.834-3.675,12.023  c0,22.134,35.887,40.078,80.157,40.078s80.157-17.944,80.157-40.078c0-4.189-1.291-8.228-3.675-12.023  C342.306,252.221,311.93,264.016,276.04,264.016z"/>
<ellipse style="fill:#838076;" cx="276.039" cy="183.859" rx="56.11" ry="32.063"/>
<path style="fill:#757267;" d="M276.04,191.875c-23.545,0-43.69-8.291-52.016-20.039c-2.632,3.714-4.094,7.77-4.094,12.023  c0,17.708,25.121,32.063,56.11,32.063s56.11-14.355,56.11-32.063c0-4.253-1.462-8.309-4.094-12.023  C319.729,183.584,299.585,191.875,276.04,191.875z"/>
<path style="fill:#429EA1;" d="M292.071,111.718c0,26.562-16.031,48.094-16.031,48.094s-16.031-21.532-16.031-48.094  s16.031-48.094,16.031-48.094S292.071,85.156,292.071,111.718z"/>
<path style="fill:#47C6CA;" d="M321.382,137.141c-18.782,18.782-45.344,22.671-45.344,22.671s3.89-26.562,22.671-45.344  c18.782-18.782,45.344-22.671,45.344-22.671S340.165,118.358,321.382,137.141z"/>
<path d="M428.719,63.243C387.936,22.46,333.713,0,276.04,0S164.142,22.46,123.36,63.243  c-40.361,40.362-62.776,93.883-63.235,150.892l-39.292,78.584c-1.756,3.512-0.513,7.784,2.856,9.804l36.429,21.858v115.98  c0,4.15,3.364,7.515,7.515,7.515h72.642v56.611c0,4.15,3.364,7.515,7.515,7.515c4.151,0,7.515-3.365,7.515-7.515V440.36  c0-4.15-3.364-7.515-7.515-7.515H75.147v-112.72c0-2.639-1.385-5.086-3.649-6.444l-34.111-20.467l36.966-73.932  c0.522-1.044,0.794-2.193,0.794-3.361c0-110.772,90.12-200.892,200.892-200.892s200.892,90.12,200.892,200.892  c0,62.247-28.164,119.964-77.27,158.356c-1.822,1.424-2.887,3.608-2.887,5.921v124.287c0,4.15,3.364,7.515,7.515,7.515  c4.151,0,7.515-3.365,7.515-7.515V383.823c50.992-41.246,80.157-102.228,80.157-167.901  C491.961,158.247,469.502,104.024,428.719,63.243z"/>
<path d="M352.908,271.307c6.995-6.944,10.803-14.918,10.803-23.323c0-16.321-14.107-30.744-37.682-39.384  c8.562-6.733,13.635-15.298,13.635-24.741c0-11.225-7.017-21.499-19.759-28.93c-3.585-2.091-8.186-0.88-10.277,2.705  c-2.091,3.585-0.88,8.186,2.705,10.277c7.817,4.559,12.3,10.371,12.3,15.947c0,11.611-19.957,24.548-48.595,24.548  c-28.638,0-48.595-12.937-48.595-24.548c0-8.689,10.657-17.419,26.517-21.724c4.005-1.087,6.37-5.216,5.283-9.221  c-1.088-4.006-5.22-6.369-9.221-5.283c-23.197,6.297-37.608,20.179-37.608,36.23c0,9.442,5.073,18.008,13.635,24.741  c-23.582,8.635-37.682,23.04-37.682,39.384c0,8.435,3.725,16.396,10.744,23.349c-22.238,10.306-34.791,24.862-34.791,40.777  c0,15.947,12.389,30.447,34.886,40.831c20.647,9.53,47.934,14.778,76.832,14.778c28.898,0,56.184-5.248,76.832-14.778  c22.497-10.383,34.886-24.884,34.886-40.831C387.758,296.26,375.145,281.61,352.908,271.307z M276.04,352.689  c-56.98,0-96.689-21.386-96.689-40.579c0-11.149,12.717-22.529,34.018-30.441c0.858,0.467,1.731,0.928,2.63,1.378  c16.164,8.081,37.485,12.531,60.04,12.531c2.935,0,6.09,0.324,8.584-1.52c1.957-1.447,3.111-3.802,3.05-6.235  c-0.06-2.395-1.292-4.658-3.267-6.013c-2.514-1.724-5.484-1.261-8.365-1.261c-42.81,0-72.642-17.161-72.642-32.564  c0-11.773,16.396-23.465,40.802-29.092c0.322-0.074,0.63-0.174,0.932-0.287c9.103,3.085,19.616,4.83,30.908,4.83  c11.337,0,21.888-1.76,31.015-4.868c0.407,0.176,0.832,0.325,1.279,0.43c24.133,5.662,40.349,17.311,40.349,28.987  c0,9.963-11.853,20.06-30.934,26.348c-3.739,1.232-5.924,5.284-4.905,9.085c1.102,4.112,5.564,6.522,9.609,5.189  c6.202-2.044,11.797-4.477,16.73-7.221c0.61,0.52,1.309,0.956,2.095,1.268c19.694,7.838,31.452,18.85,31.452,29.455  C372.729,331.303,333.02,352.689,276.04,352.689z"/>
<path d="M270.075,164.375c1.656,2.166,4.46,3.288,7.156,2.858c2.054-0.313,29.502-4.814,49.466-24.777  c20.31-20.31,24.619-48.383,24.792-49.569c0.718-4.9-3.627-9.239-8.525-8.524c-1.076,0.157-24.313,3.727-43.784,19.58  c-2.557-24.978-16.465-43.934-17.114-44.806c-2.956-3.97-9.099-3.971-12.055,0c-0.715,0.961-17.518,23.86-17.518,52.582  s16.804,51.621,17.518,52.582C270.032,164.326,270.055,164.349,270.075,164.375z M333.633,102.239  c-2.851,8.502-8.152,20.176-17.564,29.589c-9.365,9.365-21.081,14.678-29.609,17.544c2.851-8.502,8.152-20.176,17.563-29.589  C313.39,110.418,325.106,105.104,333.633,102.239z M276.054,78.376c3.996,8.028,8.502,20.031,8.502,33.342  c0,2.194-0.125,4.45-0.373,6.704c-0.068,0.624-0.05,1.236,0.031,1.832c-4.704,6.836-8.061,13.835-10.421,19.965  c-3.272-7.668-6.27-17.645-6.27-28.501C267.523,98.473,272.051,86.433,276.054,78.376z"/>
<g>
</g>
<g>
</g>
<g>
</g>
<g>
</g>
<g>
</g>
<g>
</g>
<g>
</g>
<g>
</g>
<g>
</g>
<g>
</g>
<g>
</g>
<g>
</g>
<g>
</g>
<g>
</g>
<g>
</g>
</svg>
