<?xml version="1.0" encoding="iso-8859-1"?>
<!-- Generator: Adobe Illustrator 19.0.0, SVG Export Plug-In . SVG Version: 6.00 Build 0)  -->
<svg xmlns="http://www.w3.org/2000/svg" xmlns:xlink="http://www.w3.org/1999/xlink" version="1.1" id="Capa_1" x="0px" y="0px" viewBox="0 0 512 512" style="enable-background:new 0 0 512 512;" xml:space="preserve">
<path style="fill:#F1F1F0;" d="M484.446,215.922c0-115.1-93.307-208.407-208.407-208.407S67.632,100.822,67.632,215.922  l-40.078,80.157l40.078,24.047V440.36h80.157v64.125h256.501V380.199C453.078,342.054,484.446,282.653,484.446,215.922z"/>
<circle style="fill:#F5577E;" cx="276.038" cy="135.765" r="40.078"/>
<circle style="fill:#CE384F;" cx="276.038" cy="135.765" r="24.047"/>
<path style="fill:#FBDD7B;" d="M120.74,236.993c6.26-6.255,16.411-6.254,22.671,0l73.684,73.614l-22.671,22.65l-73.683-73.614  C114.48,253.389,114.48,243.248,120.74,236.993z"/>
<path style="fill:#FEAD5A;" d="M120.74,259.32c-5.365-5.365-6.117-13.581-2.287-19.763l84.708,84.708l-8.738,8.738L120.74,259.32z"/>
<path style="fill:#FBDD7B;" d="M166.084,236.993c6.26-6.255,16.411-6.254,22.671,0l73.684,73.614l-22.672,22.65l-73.683-73.614  C159.824,253.389,159.824,243.248,166.084,236.993z"/>
<path style="fill:#FEAD5A;" d="M166.084,259.32c-5.195-5.195-6.065-13.063-2.638-19.169l84.586,84.586l-8.266,8.266L166.084,259.32z  "/>
<path style="fill:#FBDD7B;" d="M217.096,242.656c6.26-6.254,16.411-6.254,22.671,0l73.683,73.614l-22.671,22.65l-73.683-73.614  C210.835,259.052,210.834,248.91,217.096,242.656z"/>
<path style="fill:#FEAD5A;" d="M217.096,264.989c-5.195-5.195-6.065-13.063-2.638-19.169l84.586,84.586l-8.266,8.266  L217.096,264.989z"/>
<g>
	<path style="fill:#FAD55A;" d="M370.129,384.22l-28.339-28.313l-56.68,11.325H183.088l-62.667-62.608   c-6.443-6.437-6.255-16.987,0.561-23.185c6.384-5.804,16.327-5.243,22.431,0.855l39.675,39.638l73.683-16.988l22.671-22.65   c25.043-25.019,65.644-25.019,90.687,0l51.012,50.964"/>
	<path style="fill:#FAD55A;" d="M196.185,304.277l60.372,0.454v32.034l-60.613-0.455c-8.853-0.067-15.977-7.291-15.91-16.137   C180.1,311.327,187.331,304.211,196.185,304.277z"/>
</g>
<g>
	<path style="fill:#FEAD5A;" d="M256.557,323.32v13.193l-60.613-0.456c-7.682-0.058-14.053-5.513-15.563-12.737H256.557z"/>
	<path style="fill:#FEAD5A;" d="M120.436,281.687l68.319,68.319h102.022l57.859-15.78c2.775-0.756,5.743,0.031,7.777,2.065   l30.718,30.718l-17.004,17.004l-28.339-28.339l-56.68,11.336h-102.02l-62.667-62.667   C114.162,298.084,114.18,287.948,120.436,281.687z"/>
</g>
<path d="M428.718,63.243C387.935,22.46,333.712,0,276.039,0c-57.675,0-111.898,22.46-152.679,63.243  c-40.362,40.362-62.777,93.883-63.235,150.892l-39.292,78.584c-1.756,3.512-0.512,7.784,2.855,9.804l36.43,21.858v115.98  c0,4.15,3.365,7.515,7.515,7.515h72.642v56.611c0,4.15,3.365,7.515,7.515,7.515s7.515-3.365,7.515-7.515V440.36  c0-4.15-3.365-7.515-7.515-7.515H75.147v-112.72c0-2.639-1.385-5.086-3.648-6.444l-34.112-20.467l36.966-73.932  c0.522-1.044,0.794-2.193,0.794-3.361c0-110.772,90.12-200.892,200.892-200.892s200.892,90.12,200.892,200.892  c0,62.247-28.164,119.964-77.27,158.356c-1.822,1.424-2.887,3.608-2.887,5.921v124.287c0,4.15,3.364,7.515,7.515,7.515  c4.151,0,7.515-3.365,7.515-7.515V383.823c50.992-41.246,80.157-102.228,80.157-167.901  C491.96,158.247,469.501,104.024,428.718,63.243z"/>
<path d="M276.039,183.358c26.242,0,47.593-21.351,47.593-47.593s-21.351-47.593-47.593-47.593  c-26.242,0-47.593,21.351-47.593,47.593S249.795,183.358,276.039,183.358z M276.039,103.202c17.956,0,32.564,14.609,32.564,32.564  s-14.608,32.564-32.564,32.564c-17.956,0-32.564-14.609-32.564-32.564S258.083,103.202,276.039,103.202z"/>
<path d="M283.553,71.64V55.609c0-4.15-3.364-7.515-7.515-7.515c-4.151,0-7.515,3.365-7.515,7.515V71.64  c0,4.15,3.364,7.515,7.515,7.515C280.19,79.155,283.553,75.79,283.553,71.64z"/>
<path d="M243.982,87.747c5.699,0,9.333-6.367,6.501-11.273l-8.016-13.883c-2.075-3.594-6.672-4.825-10.265-2.75  c-3.594,2.075-4.825,6.671-2.75,10.265l8.016,13.883C238.86,86.399,241.386,87.747,243.982,87.747z"/>
<path d="M224.262,97.195l-13.883-8.016c-3.594-2.077-8.19-0.844-10.265,2.75c-2.075,3.594-0.844,8.19,2.75,10.265l13.883,8.016  c3.833,2.214,8.871,0.545,10.644-3.499C228.908,103.252,227.531,99.082,224.262,97.195z"/>
<path d="M188.367,135.765c0,4.15,3.365,7.515,7.515,7.515h16.031c4.15,0,7.515-3.365,7.515-7.515s-3.365-7.515-7.515-7.515h-16.031  C191.731,128.25,188.367,131.615,188.367,135.765z"/>
<path d="M216.747,161.32l-13.883,8.016c-3.269,1.887-4.646,6.057-3.129,9.518c1.772,4.044,6.81,5.713,10.644,3.499l13.883-8.016  c3.594-2.075,4.825-6.671,2.75-10.265C224.937,160.476,220.341,159.244,216.747,161.32z"/>
<path d="M237.467,187.542l-8.016,13.883c-1.888,3.269-0.995,7.569,2.049,9.807c3.565,2.621,8.758,1.534,10.967-2.292l8.016-13.883  c2.075-3.594,0.844-8.19-2.75-10.265C244.137,182.715,239.542,183.947,237.467,187.542z"/>
<path d="M268.524,199.89v16.031c0,4.15,3.364,7.515,7.515,7.515c4.151,0,7.515-3.365,7.515-7.515V199.89  c0-4.15-3.364-7.515-7.515-7.515C271.888,192.376,268.524,195.74,268.524,199.89z"/>
<path d="M304.344,184.792c-3.594,2.075-4.825,6.671-2.75,10.265l8.016,13.883c2.208,3.826,7.402,4.914,10.967,2.292  c3.043-2.238,3.936-6.538,2.049-9.807l-8.016-13.883C312.534,183.947,307.936,182.716,304.344,184.792z"/>
<path d="M327.815,174.335l13.883,8.016c3.834,2.213,8.87,0.546,10.644-3.499c1.517-3.46,0.139-7.63-3.129-9.518l-13.883-8.016  c-3.597-2.076-8.191-0.844-10.265,2.75C322.989,167.664,324.221,172.26,327.815,174.335z"/>
<path d="M332.649,135.765c0,4.15,3.364,7.515,7.515,7.515h16.031c4.151,0,7.515-3.365,7.515-7.515s-3.364-7.515-7.515-7.515h-16.031  C336.013,128.25,332.649,131.615,332.649,135.765z"/>
<path d="M341.699,89.179l-13.883,8.016c-3.269,1.888-4.646,6.057-3.129,9.518c1.772,4.044,6.81,5.713,10.644,3.499l13.883-8.016  c3.594-2.075,4.825-6.671,2.75-10.265C349.89,88.336,345.292,87.103,341.699,89.179z"/>
<path d="M308.094,87.747c2.597,0,5.123-1.349,6.515-3.758l8.016-13.883c2.075-3.594,0.844-8.19-2.75-10.265  c-3.597-2.076-8.192-0.844-10.265,2.75l-8.016,13.883C298.761,81.379,302.394,87.747,308.094,87.747z"/>
<path d="M138.097,287.303l33.666,33.667l0.829,0.829c0.904,12.082,10.969,21.681,23.297,21.775l60.612,0.456c0.02,0,0.039,0,0.058,0  c4.124,0,7.483-3.328,7.514-7.459c0.031-4.15-3.308-7.54-7.458-7.571l-60.613-0.456c-4.696-0.035-8.489-3.885-8.453-8.581  c0.035-4.674,3.849-8.453,8.516-8.453c0.021,0,0.043,0,0.064,0l58.851,0.443c2.467,0.604,5.179-0.05,7.107-1.976l22.67-22.671  c22.074-22.071,57.989-22.071,80.059,0l51.012,51.012c3.057,3.056,8.217,2.851,11.028-0.431c2.518-2.941,2.337-7.461-0.399-10.196  l-51.012-51.012c-26.139-26.138-67.611-27.813-95.721-5.034l-34.642-34.642c-9.076-9.077-24.222-9.077-33.299,0  c-2.094,2.094-3.738,4.515-4.9,7.145l-12.813-12.813c-9.18-9.18-24.118-9.18-33.299,0c-2.094,2.094-3.738,4.515-4.9,7.145  l-7.145-7.145c-9.181-9.18-24.118-9.18-33.299,0c-9.077,9.077-9.077,24.222,0,33.299l6.852,6.852  c-2.273,0.989-4.429,2.338-6.356,4.092c-9.798,8.918-10.206,24.689-0.817,34.079l11.656,11.656c2.895,2.896,7.732,2.895,10.627,0  c2.895-2.895,2.896-7.732,0-10.627l-11.656-11.656c-3.539-3.539-3.216-9.588,0.728-12.695  C129.917,283.615,135.062,284.27,138.097,287.303z M219.914,253.652c0-7.437,9.281-11.28,14.539-6.022l34.361,34.362l-12.045,12.045  l-34.369-34.37C220.798,258.059,219.914,255.924,219.914,253.652z M171.397,241.962c3.32-3.319,8.724-3.319,12.045,0l28.329,28.329  c0.003,0.003,0.006,0.007,0.01,0.01l26.495,26.495l-24.315-0.182c-0.131-0.154-0.264-0.307-0.409-0.452l-42.155-42.156  C168.115,250.724,168.116,245.244,171.397,241.962z M126.055,241.962c3.32-3.319,8.724-3.319,12.045,0l54.744,54.744  c-6.178,0.85-11.603,4.106-15.292,8.797l-51.497-51.497C122.771,250.724,122.772,245.244,126.055,241.962z"/>
<path d="M347.103,350.361c-1.777-1.776-4.323-2.547-6.787-2.055l-55.95,11.19H186.2l-20.471-20.471  c-2.935-2.935-7.693-2.935-10.627,0c-2.935,2.935-2.935,7.693,0,10.627l22.671,22.671c1.409,1.41,3.32,2.201,5.313,2.201H285.11  c0.495,0,0.988-0.049,1.474-0.146l52.736-10.548l25.495,25.496c3.056,3.056,8.217,2.851,11.028-0.431  c2.518-2.941,2.337-7.461-0.399-10.196L347.103,350.361z"/>
<g>
</g>
<g>
</g>
<g>
</g>
<g>
</g>
<g>
</g>
<g>
</g>
<g>
</g>
<g>
</g>
<g>
</g>
<g>
</g>
<g>
</g>
<g>
</g>
<g>
</g>
<g>
</g>
<g>
</g>
</svg>
