<?xml version="1.0" encoding="iso-8859-1"?>
<!-- Generator: Adobe Illustrator 19.0.0, SVG Export Plug-In . SVG Version: 6.00 Build 0)  -->
<svg xmlns="http://www.w3.org/2000/svg" xmlns:xlink="http://www.w3.org/1999/xlink" version="1.1" id="Capa_1" x="0px" y="0px" viewBox="0 0 512 512" style="enable-background:new 0 0 512 512;" xml:space="preserve">
<path style="fill:#F1F1F0;" d="M484.447,215.922c0-115.1-93.307-208.407-208.407-208.407S67.633,100.822,67.633,215.922  l-40.078,80.157l40.078,24.047V440.36h80.157v64.125H404.29V380.199C453.079,342.054,484.447,282.653,484.447,215.922z"/>
<polygon style="fill:#F5577E;" points="260.008,215.922 187.867,143.781 187.867,183.859 115.727,183.859 115.727,247.984   187.867,247.984 187.867,288.063 "/>
<polygon style="fill:#CE384F;" points="131.758,231.953 131.758,183.859 115.727,183.859 115.727,247.984 187.867,247.984   187.867,288.063 203.899,272.031 203.899,231.953 "/>
<polygon style="fill:#74D0E3;" points="292.071,215.922 364.212,143.781 364.212,183.859 436.353,183.859 436.353,247.984   364.212,247.984 364.212,288.063 "/>
<polygon style="fill:#53AAD4;" points="420.321,183.859 420.321,231.953 348.181,231.953 348.181,272.031 364.212,288.063   364.212,247.984 436.353,247.984 436.353,183.859 "/>
<path d="M428.719,63.243C387.937,22.46,333.714,0,276.04,0s-111.898,22.46-152.68,63.243  c-40.362,40.362-62.777,93.883-63.235,150.892l-39.292,78.584c-1.756,3.512-0.512,7.784,2.855,9.804l36.43,21.858v115.98  c0,4.15,3.365,7.515,7.515,7.515h72.642v56.611c0,4.15,3.365,7.515,7.515,7.515s7.515-3.365,7.515-7.515V440.36  c0-4.15-3.365-7.515-7.515-7.515H75.147v-112.72c0-2.639-1.385-5.086-3.648-6.444l-34.112-20.467l36.966-73.932  c0.522-1.044,0.794-2.193,0.794-3.361c0-110.772,90.12-200.892,200.892-200.892s200.892,90.12,200.892,200.892  c0,62.247-28.164,119.965-77.27,158.356c-1.822,1.424-2.887,3.608-2.887,5.921v124.287c0,4.15,3.365,7.515,7.515,7.515  s7.515-3.365,7.515-7.515V383.823c50.992-41.246,80.157-102.227,80.157-167.901C491.961,158.247,469.501,104.024,428.719,63.243z"/>
<path d="M193.181,138.467c-4.635-4.64-12.828-1.234-12.828,5.313v32.564h-64.626c-4.15,0-7.515,3.365-7.515,7.515v64.125  c0,4.15,3.365,7.515,7.515,7.515h64.626v32.564c0,6.537,8.188,9.955,12.828,5.313l72.141-72.141c2.935-2.935,2.935-7.693,0-10.627  L193.181,138.467z M195.382,269.921v-21.937c0-4.15-3.365-7.515-7.515-7.515h-64.626v-49.096h64.626c4.15,0,7.515-3.365,7.515-7.515  v-21.937l53.999,53.999L195.382,269.921z"/>
<path d="M443.867,247.984v-64.125c0-4.15-3.365-7.515-7.515-7.515h-20.039c-4.15,0-7.515,3.365-7.515,7.515s3.365,7.515,7.515,7.515  h12.524v49.096h-64.626c-4.15,0-7.515,3.365-7.515,7.515v21.937l-53.999-53.999l53.999-53.999v21.937  c0,4.15,3.365,7.515,7.515,7.515h17.033c4.15,0,7.515-3.365,7.515-7.515s-3.365-7.515-7.515-7.515h-9.519v-32.564  c0-6.549-8.191-9.951-12.828-5.313l-72.141,72.141c-2.935,2.935-2.935,7.693,0,10.627l72.141,72.141  c4.639,4.641,12.828,1.223,12.828-5.313v-32.564h64.626C440.503,255.499,443.867,252.134,443.867,247.984z"/>
<path d="M276.04,288.564c-4.15,0-7.515,3.365-7.515,7.515v16.031c0,4.095,3.42,7.515,7.515,7.515s7.515-3.42,7.515-7.515v-16.031  C283.554,291.928,280.19,288.564,276.04,288.564z"/>
<path d="M310.602,284.804c-2.075-3.595-6.671-4.825-10.265-2.75c-3.594,2.075-4.825,6.671-2.75,10.265l8.016,13.883  c2.208,3.825,7.402,4.914,10.967,2.292c3.044-2.238,3.936-6.538,2.049-9.807L310.602,284.804z"/>
<path d="M251.742,282.053c-3.594-2.076-8.19-0.844-10.265,2.75l-8.016,13.883c-2.833,4.906,0.802,11.273,6.501,11.273  c2.597,0,5.123-1.349,6.515-3.758l8.016-13.883C256.568,288.724,255.336,284.128,251.742,282.053z"/>
<path d="M276.04,112.219c-4.15,0-7.515,3.365-7.515,7.515v16.031c0,4.15,3.365,7.515,7.515,7.515s7.515-3.365,7.515-7.515v-16.031  C283.554,115.584,280.19,112.219,276.04,112.219z"/>
<path d="M304.087,150.799c2.597,0,5.123-1.349,6.515-3.758l8.016-13.883c2.075-3.594,0.844-8.19-2.75-10.265  c-3.594-2.076-8.19-0.844-10.265,2.75l-8.016,13.883C294.754,144.43,298.387,150.799,304.087,150.799z"/>
<path d="M247.991,150.799c5.699,0,9.333-6.367,6.501-11.273l-8.016-13.883c-2.075-3.594-6.671-4.825-10.265-2.75  c-3.594,2.075-4.825,6.671-2.75,10.265l8.016,13.883C242.869,149.451,245.395,150.799,247.991,150.799z"/>
<g>
</g>
<g>
</g>
<g>
</g>
<g>
</g>
<g>
</g>
<g>
</g>
<g>
</g>
<g>
</g>
<g>
</g>
<g>
</g>
<g>
</g>
<g>
</g>
<g>
</g>
<g>
</g>
<g>
</g>
</svg>
