<?xml version="1.0" encoding="iso-8859-1"?>
<!-- Generator: Adobe Illustrator 19.0.0, SVG Export Plug-In . SVG Version: 6.00 Build 0)  -->
<svg xmlns="http://www.w3.org/2000/svg" xmlns:xlink="http://www.w3.org/1999/xlink" version="1.1" id="Capa_1" x="0px" y="0px" viewBox="0 0 512 512" style="enable-background:new 0 0 512 512;" xml:space="preserve">
<path style="fill:#F1F1F0;" d="M484.447,215.922c0-115.1-93.307-208.407-208.407-208.407S67.633,100.822,67.633,215.922  l-40.078,80.157l40.078,24.047V440.36h80.157v64.125H404.29V380.199C453.079,342.054,484.447,282.653,484.447,215.922z"/>
<path style="fill:#A46EA0;" d="M332.149,199.89c0,30.989-56.11,80.157-56.11,80.157s-56.11-49.168-56.11-80.157  s25.121-56.11,56.11-56.11S332.149,168.902,332.149,199.89z"/>
<path style="fill:#89589C;" d="M243.977,199.89c0-26.859,18.878-49.298,44.086-54.805c-3.875-0.847-7.894-1.305-12.023-1.305  c-30.989,0-56.11,25.121-56.11,56.11s56.11,80.157,56.11,80.157s5.005-4.387,12.023-11.362  C271.578,252.302,243.977,221.625,243.977,199.89z"/>
<circle style="fill:#FF82A4;" cx="276.039" cy="296.078" r="32.063"/>
<path style="fill:#F5577E;" d="M292.071,320.125c-17.708,0-32.063-14.355-32.063-32.063c0-9.298,3.962-17.667,10.284-23.523  c-14.963,2.709-26.315,15.794-26.315,31.539c0,17.708,14.355,32.063,32.063,32.063c8.41,0,16.059-3.242,21.779-8.54  C295.953,319.939,294.034,320.125,292.071,320.125z"/>
<path d="M428.719,63.243C387.937,22.46,333.714,0,276.04,0s-111.898,22.46-152.68,63.243  c-40.362,40.362-62.777,93.883-63.235,150.892l-39.292,78.584c-1.756,3.512-0.512,7.784,2.855,9.804l36.43,21.858v115.98  c0,4.15,3.365,7.515,7.515,7.515h72.642v56.611c0,4.15,3.365,7.515,7.515,7.515s7.515-3.365,7.515-7.515V440.36  c0-4.15-3.365-7.515-7.515-7.515H75.147v-112.72c0-2.639-1.385-5.086-3.648-6.444l-34.112-20.467l36.966-73.932  c0.522-1.044,0.794-2.193,0.794-3.361c0-108.255,86.075-196.77,193.378-200.737v121.54c-16.505,1.952-31.094,10.237-41.256,22.363  l-22.634-11.317l6.554-26.215c1.007-4.026-1.441-8.106-5.468-9.113c-4.022-1.006-8.106,1.441-9.113,5.468l-8.016,32.063  c-0.855,3.417,0.78,6.969,3.93,8.544l26.473,13.236c-2.765,5.584-4.736,11.627-5.76,17.983l-14.976-4.992  c-2.199-0.732-4.615-0.41-6.545,0.877l-24.047,16.031c-3.141,2.093-4.246,6.343-2.51,9.699c2.03,3.922,7.165,5.262,10.847,2.806  l20.989-13.992l15.89,5.296c1.565,9.959,7.035,20.851,14.243,31.488l-21.753-4.35c-2.837-0.567-5.749,0.545-7.486,2.86  l-24.047,32.063c-2.264,3.02-1.893,7.395,0.861,9.982c3.221,3.025,8.512,2.571,11.163-0.964l21.205-28.274l34.002,6.8  c3.171,3.711,6.405,7.29,9.59,10.672c-8.672,7.266-14.199,18.167-14.199,30.339c0,21.823,17.755,39.577,39.577,39.577  s39.577-17.755,39.577-39.577c0-12.172-5.527-23.073-14.199-30.339c3.443-3.648,6.653-7.209,9.634-10.681l33.958-6.792  l21.205,28.276c2.651,3.535,7.941,3.989,11.163,0.964c2.753-2.586,3.126-6.962,0.861-9.982l-24.047-32.063  c-1.736-2.316-4.649-3.427-7.486-2.86l-21.63,4.326c8.018-11.81,12.744-22.324,14.141-31.47l15.869-5.29l20.989,13.992  c3.682,2.455,8.817,1.116,10.847-2.806c1.736-3.355,0.631-7.605-2.51-9.699l-24.047-16.031c-1.931-1.288-4.345-1.61-6.545-0.877  l-14.976,4.992c-1.024-6.357-2.995-12.399-5.76-17.983l26.473-13.236c3.15-1.575,4.783-5.127,3.93-8.544l-8.016-32.063  c-1.007-4.027-5.09-6.478-9.113-5.468c-4.027,1.006-6.475,5.087-5.468,9.113l6.554,26.215l-22.634,11.317  c-10.162-12.127-24.75-20.411-41.256-22.363V15.185c107.303,3.968,193.378,92.483,193.378,200.737  c0,62.247-28.164,119.965-77.27,158.356c-1.822,1.424-2.887,3.608-2.887,5.921v124.287c0,4.15,3.365,7.515,7.515,7.515  s7.515-3.365,7.515-7.515V383.823c50.992-41.246,80.157-102.227,80.157-167.901C491.961,158.247,469.502,104.024,428.719,63.243z   M276.04,320.626c-13.535,0-24.548-11.013-24.548-24.548s11.013-24.548,24.548-24.548s24.548,11.013,24.548,24.548  S289.575,320.626,276.04,320.626z M324.635,199.89c0,12.836-13.431,34.095-36.866,58.385c-3.707-1.152-7.647-1.774-11.729-1.774  c-4.081,0-8.02,0.621-11.727,1.774c-23.444-24.296-36.868-45.531-36.868-58.385c0-26.795,21.8-48.595,48.595-48.595  S324.635,173.095,324.635,199.89z"/>
<path d="M230.45,344.909c-54.536-19.276-91.178-71.112-91.178-128.987S175.913,106.21,230.45,86.935  c3.913-1.383,5.964-5.676,4.581-9.59c-1.384-3.913-5.675-5.964-9.59-4.581c-60.53,21.395-101.198,78.925-101.198,143.157  s40.668,121.763,101.198,143.157c4.07,1.438,8.624-0.958,9.757-5.116C236.218,350.217,234.108,346.201,230.45,344.909z"/>
<path d="M427.836,215.922c0-64.232-40.668-121.763-101.198-143.157c-3.913-1.382-8.206,0.668-9.59,4.581  c-1.383,3.914,0.668,8.206,4.581,9.59c54.536,19.276,91.178,71.112,91.178,128.987c0,58.128-36.853,110.038-91.703,129.171  c-3.663,1.277-5.79,5.284-4.785,9.034c1.115,4.162,5.66,6.579,9.736,5.157C386.932,338.047,427.836,280.435,427.836,215.922z"/>
<path d="M222.319,376.027c-68.85-23.091-115.11-87.433-115.11-160.106c0-74.245,47.563-139.008,118.354-161.157  c3.962-1.239,6.167-5.455,4.928-9.415c-1.239-3.961-5.454-6.169-9.415-4.928c-36.576,11.443-69.412,34.744-92.456,65.61  c-23.84,31.931-36.441,69.931-36.441,109.891c0,79.14,50.378,149.207,125.36,174.356c4.045,1.356,8.504-1.036,9.636-5.139  C228.223,381.345,226.045,377.278,222.319,376.027z"/>
<path d="M459.899,215.922c0-79.14-50.378-149.207-125.36-174.356c-3.937-1.32-8.195,0.801-9.515,4.735s0.801,8.194,4.735,9.515  c68.85,23.091,115.11,87.433,115.11,160.106s-46.258,137.015-115.11,160.106c-3.732,1.252-5.896,5.314-4.857,9.111  c1.123,4.106,5.598,6.493,9.636,5.139C409.52,365.129,459.899,295.061,459.899,215.922z"/>
<g>
</g>
<g>
</g>
<g>
</g>
<g>
</g>
<g>
</g>
<g>
</g>
<g>
</g>
<g>
</g>
<g>
</g>
<g>
</g>
<g>
</g>
<g>
</g>
<g>
</g>
<g>
</g>
<g>
</g>
</svg>
