<?xml version="1.0" encoding="iso-8859-1"?>
<!-- Generator: Adobe Illustrator 19.0.0, SVG Export Plug-In . SVG Version: 6.00 Build 0)  -->
<svg xmlns="http://www.w3.org/2000/svg" xmlns:xlink="http://www.w3.org/1999/xlink" version="1.1" id="Capa_1" x="0px" y="0px" viewBox="0 0 512 512" style="enable-background:new 0 0 512 512;" xml:space="preserve">
<path style="fill:#F1F1F0;" d="M484.447,215.922c0-115.1-93.307-208.407-208.407-208.407S67.633,100.822,67.633,215.922  l-40.078,80.157l40.078,24.047V440.36h80.157v64.125H404.29V380.199C453.08,342.054,484.447,282.653,484.447,215.922z"/>
<path style="fill:#2D9396;" d="M196.683,142.596c-17.427,26.914-19.504,62.406-2.372,92.08s48.908,45.621,80.929,43.986  c17.427-26.914,19.504-62.406,2.372-92.08C260.479,156.908,228.703,140.961,196.683,142.596z"/>
<path style="fill:#7ECFC5;" d="M138.589,200.69c-1.635,32.022,14.312,63.797,43.986,80.929c29.674,17.132,65.166,15.055,92.08-2.372  c1.635-32.022-14.312-63.797-43.986-80.929S165.503,183.263,138.589,200.69z"/>
<path style="fill:#33C0C4;" d="M195.601,269.596c-28.093-16.22-43.873-45.564-44.087-75.816c-4.474,1.936-8.8,4.241-12.923,6.91  c-1.635,32.022,14.312,63.797,43.986,80.929c29.674,17.132,65.166,15.055,92.08-2.372c0.087-1.706,0.114-3.411,0.102-5.113  C250.026,284.832,220.728,284.103,195.601,269.596z"/>
<path style="fill:#2D9396;" d="M355.396,142.596c17.427,26.914,19.504,62.406,2.372,92.08  c-17.132,29.674-48.908,45.621-80.929,43.986c-17.427-26.914-19.504-62.406-2.372-92.08  C291.599,156.908,323.375,140.961,355.396,142.596z"/>
<path style="fill:#7ECFC5;" d="M413.489,200.69c1.635,32.022-14.312,63.797-43.986,80.929c-29.674,17.132-65.166,15.055-92.08-2.372  c-1.635-32.022,14.312-63.797,43.986-80.929S386.576,183.263,413.489,200.69z"/>
<g>
	<path style="fill:#33C0C4;" d="M356.479,269.596c28.093-16.22,43.873-45.564,44.087-75.816c4.474,1.936,8.8,4.241,12.923,6.91   c1.635,32.022-14.312,63.797-43.986,80.929c-29.674,17.132-65.166,15.055-92.08-2.372c-0.087-1.706-0.114-3.411-0.102-5.113   C302.053,284.832,331.351,284.103,356.479,269.596z"/>
	<path style="fill:#33C0C4;" d="M276.04,121.333c-28.549,14.595-48.094,44.294-48.094,78.557s19.545,63.963,48.094,78.557   c28.549-14.595,48.094-44.294,48.094-78.557S304.589,135.927,276.04,121.333z"/>
</g>
<path d="M428.719,63.243C387.936,22.46,333.713,0,276.04,0S164.142,22.46,123.36,63.243  c-40.361,40.362-62.776,93.883-63.235,150.892l-39.292,78.584c-1.756,3.512-0.513,7.784,2.856,9.804l36.429,21.858v115.98  c0,4.15,3.364,7.515,7.515,7.515h72.642v56.611c0,4.15,3.364,7.515,7.515,7.515c4.151,0,7.515-3.365,7.515-7.515V440.36  c0-4.15-3.364-7.515-7.515-7.515H75.147v-112.72c0-2.639-1.385-5.086-3.649-6.444l-34.111-20.467l36.966-73.932  c0.522-1.044,0.794-2.193,0.794-3.361c0-110.772,90.12-200.892,200.892-200.892s200.892,90.12,200.892,200.892  c0,62.247-28.164,119.964-77.27,158.356c-1.822,1.424-2.887,3.608-2.887,5.921v124.287c0,4.15,3.364,7.515,7.515,7.515  c4.151,0,7.515-3.365,7.515-7.515V383.823c50.992-41.246,80.157-102.228,80.157-167.901  C491.961,158.247,469.502,104.024,428.719,63.243z"/>
<path d="M420.994,200.307c-0.123-2.41-1.396-4.613-3.421-5.925c-12.512-8.102-26.635-13.014-41.098-14.68  c-1.692-14.648-6.765-28.826-14.771-41.19c-1.312-2.025-3.516-3.298-5.925-3.421c-14.668-0.751-29.439,1.927-42.934,7.747  c-8.624-11.607-19.935-21.322-33.386-28.198c-2.149-1.098-4.693-1.098-6.841,0c-13.454,6.878-24.767,16.594-33.392,28.205  c-13.501-5.822-28.253-8.506-42.928-7.754c-2.409,0.123-4.613,1.396-5.925,3.421c-8.012,12.374-13.061,26.506-14.758,41.144  c-14.438,1.661-28.547,6.589-41.111,14.725c-2.025,1.312-3.297,3.515-3.421,5.925c-1.844,36.107,16.446,69.757,47.733,87.821  c14.907,8.606,31.4,12.888,47.868,12.888c17.08,0,34.133-4.613,49.353-13.781c14.985,9.016,32.075,13.732,49.411,13.732  c4.515,0,9.048-0.32,13.563-0.966c4.108-0.588,6.962-4.396,6.372-8.504c-0.588-4.11-4.397-6.958-8.504-6.373  c-15.711,2.249-31.665-0.199-45.902-6.915c24.944-17.473,40.134-45.75,40.64-76.723c23.751-11.014,51.833-9.651,74.47,3.482  c0.11,28.952-15.096,55.569-40.345,70.146c-3.268,1.888-4.646,6.058-3.129,9.518c1.772,4.044,6.81,5.713,10.644,3.499  C404.548,270.063,422.837,236.413,420.994,200.307z M350.937,149.998c0.063,0,0.124,0,0.187,0  c5.198,8.954,8.644,18.894,10.125,29.158c-10.431,0.447-20.809,2.582-30.669,6.44c-1.571-10.53-4.852-20.592-9.646-29.837  C330.47,151.965,340.691,149.998,350.937,149.998z M200.955,149.998c0.065,0,0.129,0,0.194,0c10.249,0,20.459,1.97,29.995,5.763  c-4.792,9.242-8.073,19.301-9.644,29.827c-9.875-3.868-20.246-6.02-30.664-6.475C192.319,168.861,195.756,158.951,200.955,149.998z   M186.332,275.111c-25.246-14.576-40.455-41.195-40.345-70.148c22.715-13.193,50.664-14.516,74.47-3.484  c0.504,30.977,15.698,59.257,40.644,76.731C237.331,289.468,209.548,288.514,186.332,275.111z M276.04,269.905  c-25.128-14.38-40.579-40.862-40.579-70.015s15.451-55.635,40.579-70.015c25.128,14.38,40.579,40.862,40.579,70.015  S301.168,255.525,276.04,269.905z"/>
<path d="M277.042,103.202c4.151,0,7.515-3.365,7.515-7.515c0-4.15-3.364-7.515-7.515-7.515h-1.002c-4.151,0-7.515,3.365-7.515,7.515  c0,4.15,3.364,7.515,7.515,7.515H277.042z"/>
<path d="M373.23,127.249c4.151,0,7.515-3.365,7.515-7.515c0-4.15-3.364-7.515-7.515-7.515h-1.002c-4.151,0-7.515,3.365-7.515,7.515  c0,4.15,3.364,7.515,7.515,7.515H373.23z"/>
<path d="M188.87,127.249c4.151,0,7.515-3.365,7.515-7.515c0-4.15-3.364-7.515-7.515-7.515h-1.002c-4.151,0-7.515,3.365-7.515,7.515  c0,4.15,3.364,7.515,7.515,7.515H188.87z"/>
<path d="M228.948,111.217c4.151,0,7.515-3.365,7.515-7.515c0-4.15-3.364-7.515-7.515-7.515h-1.002c-4.151,0-7.515,3.365-7.515,7.515  c0,4.15,3.364,7.515,7.515,7.515H228.948z"/>
<path d="M325.136,111.217c4.151,0,7.515-3.365,7.515-7.515c0-4.15-3.364-7.515-7.515-7.515h-1.002c-4.151,0-7.515,3.365-7.515,7.515  c0,4.15,3.364,7.515,7.515,7.515H325.136z"/>
<path d="M312.11,312.611h-92.18c-4.151,0-7.515,3.365-7.515,7.515s3.364,7.515,7.515,7.515h92.18  c6.906,0,12.524,5.618,12.524,12.524s-5.618,12.524-12.524,12.524h-56.11c-15.193,0-27.554,12.36-27.554,27.554  c0,15.194,12.361,27.554,27.554,27.554h32.063c6.906,0,12.524,5.618,12.524,12.524s-5.618,12.524-12.524,12.524h-20.039  c-4.151,0-7.515,3.365-7.515,7.515s3.364,7.515,7.515,7.515h20.039c15.193,0,27.554-12.36,27.554-27.554  c0-15.194-12.361-27.554-27.554-27.554h-32.063c-6.906,0-12.524-5.618-12.524-12.524s5.618-12.524,12.524-12.524h56.11  c15.193,0,27.554-12.36,27.554-27.554C339.664,324.971,327.303,312.611,312.11,312.611z"/>
<g>
</g>
<g>
</g>
<g>
</g>
<g>
</g>
<g>
</g>
<g>
</g>
<g>
</g>
<g>
</g>
<g>
</g>
<g>
</g>
<g>
</g>
<g>
</g>
<g>
</g>
<g>
</g>
<g>
</g>
</svg>
