<?xml version="1.0" encoding="iso-8859-1"?>
<!-- Generator: Adobe Illustrator 19.0.0, SVG Export Plug-In . SVG Version: 6.00 Build 0)  -->
<svg xmlns="http://www.w3.org/2000/svg" xmlns:xlink="http://www.w3.org/1999/xlink" version="1.1" id="Capa_1" x="0px" y="0px" viewBox="0 0 512 512" style="enable-background:new 0 0 512 512;" xml:space="preserve">
<path style="fill:#F1F1F0;" d="M484.446,215.922c0-115.1-93.307-208.407-208.407-208.407S67.632,100.822,67.632,215.922  l-40.078,80.157l40.078,24.047V440.36h80.157v64.125h256.501V380.199C453.078,342.054,484.446,282.653,484.446,215.922z"/>
<g>
	<circle style="fill:#CC8FC8;" cx="404.288" cy="159.812" r="16.031"/>
	<circle style="fill:#CC8FC8;" cx="428.335" cy="264.016" r="16.031"/>
	<circle style="fill:#CC8FC8;" cx="372.226" cy="95.687" r="16.031"/>
	<circle style="fill:#CC8FC8;" cx="268.022" cy="55.609" r="16.031"/>
	<circle style="fill:#CC8FC8;" cx="139.772" cy="215.922" r="16.031"/>
</g>
<path d="M428.718,63.243C387.935,22.46,333.712,0,276.039,0c-57.675,0-111.898,22.46-152.679,63.243  c-40.362,40.362-62.777,93.883-63.235,150.892l-39.292,78.584c-1.756,3.512-0.512,7.784,2.855,9.804l36.43,21.858v115.98  c0,4.15,3.365,7.515,7.515,7.515h72.642v56.611c0,4.15,3.365,7.515,7.515,7.515s7.515-3.365,7.515-7.515V440.36  c0-4.15-3.365-7.515-7.515-7.515H75.147v-112.72c0-2.639-1.385-5.086-3.648-6.444l-34.112-20.467l36.966-73.932  c0.522-1.044,0.794-2.193,0.794-3.361c0-110.772,90.12-200.892,200.892-200.892s200.892,90.12,200.892,200.892  c0,62.247-28.164,119.964-77.27,158.356c-1.822,1.424-2.887,3.608-2.887,5.921v124.287c0,4.15,3.364,7.515,7.515,7.515  c4.151,0,7.515-3.365,7.515-7.515V383.823c50.992-41.246,80.157-102.228,80.157-167.901  C491.96,158.247,469.501,104.024,428.718,63.243z"/>
<path d="M372.227,119.233c12.983,0,23.546-10.563,23.546-23.546s-10.563-23.546-23.546-23.546s-23.546,10.563-23.546,23.546  c0,3.755,0.888,7.306,2.459,10.459l-64.384,64.384c-1.409,1.409-2.2,3.32-2.2,5.313v184.36c0,4.15,3.364,7.515,7.515,7.515  c4.151,0,7.515-3.365,7.515-7.515V178.956l62.182-62.182C364.92,118.344,368.47,119.233,372.227,119.233z M372.227,87.17  c4.696,0,8.517,3.82,8.517,8.517s-3.82,8.517-8.517,8.517c-4.696,0-8.517-3.82-8.517-8.517S367.53,87.17,372.227,87.17z"/>
<path d="M406.027,271.53c3.144,9.308,11.953,16.031,22.31,16.031c12.983,0,23.546-10.563,23.546-23.546  s-10.563-23.546-23.546-23.546c-10.356,0-19.165,6.723-22.31,16.031H363.71v-45.483l30.12-30.119  c3.153,1.57,6.704,2.459,10.459,2.459c12.983,0,23.546-10.563,23.546-23.546s-10.563-23.546-23.546-23.546  s-23.546,10.563-23.546,23.546c0,3.755,0.889,7.306,2.459,10.459l-32.321,32.321c-1.409,1.409-2.2,3.32-2.2,5.313v184.36  c0,4.15,3.364,7.515,7.515,7.515c4.151,0,7.515-3.365,7.515-7.515V271.53H406.027z M428.336,255.499c4.696,0,8.517,3.82,8.517,8.517  c0,4.696-3.82,8.517-8.517,8.517c-4.696,0-8.517-3.82-8.517-8.517C419.819,259.319,423.64,255.499,428.336,255.499z   M404.289,151.296c4.696,0,8.517,3.82,8.517,8.517s-3.82,8.517-8.517,8.517c-4.696,0-8.517-3.82-8.517-8.517  S399.593,151.296,404.289,151.296z"/>
<path d="M313.415,90.374l-24.305-24.305c1.57-3.153,2.459-6.704,2.459-10.459c0-12.983-10.563-23.546-23.546-23.546  c-12.983,0-23.546,10.563-23.546,23.546s10.563,23.546,23.546,23.546c3.755,0,7.306-0.889,10.459-2.459l18.992,18.991L222.63,170.53  c-1.41,1.409-2.201,3.32-2.201,5.313v280.548c0,4.15,3.365,7.515,7.515,7.515c4.15,0,7.515-3.365,7.515-7.515V178.956L313.415,101  C316.349,98.067,316.349,93.307,313.415,90.374z M259.506,55.609c0-4.696,3.82-8.517,8.517-8.517c4.696,0,8.517,3.82,8.517,8.517  s-3.82,8.517-8.517,8.517C263.327,64.125,259.506,60.305,259.506,55.609z"/>
<path d="M192.677,250.227L161.72,224.43c1.027-2.641,1.597-5.509,1.597-8.509c0-12.983-10.563-23.546-23.546-23.546  s-23.546,10.563-23.546,23.546s10.563,23.546,23.546,23.546c4.516,0,8.737-1.281,12.325-3.494l28.254,23.545v156.794  c0,4.15,3.365,7.515,7.515,7.515c4.15,0,7.515-3.365,7.515-7.515V256C195.381,253.77,194.39,251.655,192.677,250.227z   M139.773,224.438c-4.696,0-8.517-3.82-8.517-8.517s3.82-8.517,8.517-8.517s8.517,3.82,8.517,8.517S144.469,224.438,139.773,224.438  z"/>
<path d="M292.07,388.759c-4.151,0-7.515,3.365-7.515,7.515v76.149c0,4.15,3.364,7.515,7.515,7.515c4.151,0,7.515-3.365,7.515-7.515  v-76.149C299.585,392.124,296.22,388.759,292.07,388.759z"/>
<path d="M260.007,264.517c-4.151,0-7.515,3.365-7.515,7.515v184.36c0,4.15,3.364,7.515,7.515,7.515c4.151,0,7.515-3.365,7.515-7.515  v-184.36C267.522,267.881,264.157,264.517,260.007,264.517z"/>
<path d="M260.007,192.376c-4.151,0-7.515,3.365-7.515,7.515v24.047c0,4.15,3.364,7.515,7.515,7.515c4.151,0,7.515-3.365,7.515-7.515  V199.89C267.522,195.74,264.157,192.376,260.007,192.376z"/>
<path d="M324.133,248.485c-4.151,0-7.515,3.365-7.515,7.515v192.376c0,4.15,3.364,7.515,7.515,7.515  c4.151,0,7.515-3.365,7.515-7.515V256C331.647,251.85,328.283,248.485,324.133,248.485z"/>
<path d="M324.133,176.344c-4.151,0-7.515,3.365-7.515,7.515v32.063c0,4.15,3.364,7.515,7.515,7.515c4.151,0,7.515-3.365,7.515-7.515  v-32.063C331.647,179.709,328.283,176.344,324.133,176.344z"/>
<path d="M182.462,175.843l50.796-50.796c2.935-2.935,2.935-7.693,0-10.627c-2.935-2.935-7.693-2.935-10.627,0l-56.11,56.11  c-2.935,2.935-2.935,7.693,0,10.627l32.063,32.063c3.057,3.057,8.216,2.851,11.027-0.431c2.519-2.941,2.337-7.461-0.4-10.196  L182.462,175.843z"/>
<g>
</g>
<g>
</g>
<g>
</g>
<g>
</g>
<g>
</g>
<g>
</g>
<g>
</g>
<g>
</g>
<g>
</g>
<g>
</g>
<g>
</g>
<g>
</g>
<g>
</g>
<g>
</g>
<g>
</g>
</svg>
