<?xml version="1.0" encoding="iso-8859-1"?>
<!-- Generator: Adobe Illustrator 19.0.0, SVG Export Plug-In . SVG Version: 6.00 Build 0)  -->
<svg xmlns="http://www.w3.org/2000/svg" xmlns:xlink="http://www.w3.org/1999/xlink" version="1.1" id="Capa_1" x="0px" y="0px" viewBox="0 0 512 512" style="enable-background:new 0 0 512 512;" xml:space="preserve">
<path style="fill:#F1F1F0;" d="M484.447,215.922c0-115.1-93.307-208.407-208.407-208.407S67.633,100.822,67.633,215.922  l-40.078,80.157l40.078,24.047V440.36h80.157v64.125H404.29V380.199C453.079,342.054,484.447,282.653,484.447,215.922z"/>
<path style="fill:#74D0E3;" d="M235.961,223.937H91.68c0,39.842,32.298,72.141,72.141,72.141S235.961,263.779,235.961,223.937z"/>
<path style="fill:#53AAD4;" d="M123.742,223.937H91.68c0,39.842,32.298,72.141,72.141,72.141c5.513,0,10.873-0.639,16.031-1.811  C147.729,286.975,123.742,258.266,123.742,223.937z"/>
<path style="fill:#74D0E3;" d="M316.118,223.937H460.4c0,39.842-32.298,72.141-72.141,72.141S316.118,263.779,316.118,223.937z"/>
<path style="fill:#53AAD4;" d="M348.181,223.937h-32.063c0,39.842,32.298,72.141,72.141,72.141c5.513,0,10.873-0.639,16.031-1.811  C372.167,286.975,348.181,258.266,348.181,223.937z"/>
<path style="fill:#FAD55A;" d="M308.102,96.707c0-17.691-14.355-32.033-32.063-32.033s-32.063,14.341-32.063,32.033  c0,11.854,6.451,22.197,16.031,27.736v268.565h32.063V124.444C301.652,118.904,308.102,108.562,308.102,96.707z"/>
<rect x="235.96" y="392.266" style="fill:#FEAD5A;" width="80.157" height="24.047"/>
<g>
	<rect x="235.96" y="392.266" style="fill:#FF9047;" width="24.047" height="24.047"/>
	<rect x="195.882" y="416.313" style="fill:#FF9047;" width="160.313" height="24.047"/>
</g>
<path d="M428.719,63.243C387.937,22.46,333.714,0,276.04,0s-111.898,22.46-152.68,63.243  c-40.362,40.362-62.777,93.883-63.235,150.892l-39.292,78.584c-1.756,3.512-0.512,7.784,2.855,9.804l36.43,21.858v115.98  c0,4.15,3.365,7.515,7.515,7.515h72.642v56.611c0,4.15,3.365,7.515,7.515,7.515s7.515-3.365,7.515-7.515V440.36  c0-4.15-3.365-7.515-7.515-7.515H75.147v-112.72c0-2.639-1.385-5.086-3.648-6.444l-34.112-20.467l36.966-73.932  c0.522-1.044,0.794-2.193,0.794-3.361c0-110.772,90.12-200.892,200.892-200.892s200.892,90.12,200.892,200.892  c0,62.247-28.164,119.965-77.27,158.356c-1.822,1.424-2.887,3.608-2.887,5.921v124.287c0,4.15,3.365,7.515,7.515,7.515  s7.515-3.365,7.515-7.515V383.823c50.992-41.246,80.157-102.227,80.157-167.901C491.961,158.247,469.501,104.024,428.719,63.243z"/>
<path d="M388.259,303.593c43.922,0,79.656-35.734,79.656-79.656c0-1.277-0.336-2.573-0.965-3.684L394.872,92.116  c-1.309-2.392-3.877-3.944-6.613-3.944h-73.366c-3.522-18.241-19.599-32.063-38.853-32.063s-35.331,13.822-38.853,32.063H163.82  c-2.736,0-5.304,1.552-6.613,3.944L85.13,220.253c-0.629,1.111-0.965,2.408-0.965,3.684c0,43.922,35.734,79.656,79.656,79.656  s79.656-35.734,79.656-79.656c0-1.277-0.336-2.573-0.965-3.684l-65.843-117.052h60.532c1.885,9.661,7.33,18.375,15.292,24.286  v257.263H235.96c-4.15,0-7.515,3.365-7.515,7.515v16.532h-32.564c-4.15,0-7.515,3.365-7.515,7.515v24.047  c0,4.15,3.365,7.515,7.515,7.515h160.313c4.15,0,7.515-3.365,7.515-7.515v-24.047c0-4.15-3.365-7.515-7.515-7.515h-32.564v-16.532  c0-4.15-3.365-7.515-7.515-7.515h-16.532v-44.253c0-4.15-3.365-7.515-7.515-7.515s-7.515,3.365-7.515,7.515v44.253h-17.033V123.449  c0-2.682-1.43-5.16-3.75-6.504c-7.576-4.384-12.281-12.529-12.281-21.259c0-13.535,11.013-24.548,24.548-24.548  s24.548,11.013,24.548,24.548c0,8.729-4.705,16.875-12.281,21.259c-2.321,1.344-3.75,3.821-3.75,6.504v180.973  c0,4.15,3.365,7.515,7.515,7.515s7.515-3.365,7.515-7.515V127.488c7.963-5.912,13.407-14.626,15.292-24.286h60.532l-65.842,117.052  c-0.629,1.111-0.965,2.408-0.965,3.684C308.603,267.859,344.336,303.593,388.259,303.593z M348.682,432.845H203.398v-9.018h145.284  V432.845z M308.603,399.781v9.018h-65.127v-9.018H308.603z M163.82,111.015l59.292,105.408H104.528L163.82,111.015z M163.82,288.564  c-33.095,0-60.458-25.002-64.191-57.112h128.384C224.279,263.562,196.914,288.564,163.82,288.564z M388.259,288.564  c-33.095,0-60.458-25.002-64.191-57.112h128.384C448.717,263.562,421.352,288.564,388.259,288.564z M328.966,216.423l59.292-105.408  l59.293,105.408H328.966z"/>
<path d="M277.042,88.172h-1.002c-4.15,0-7.515,3.365-7.515,7.515c0,4.15,3.365,7.515,7.515,7.515h1.002  c4.15,0,7.515-3.365,7.515-7.515C284.556,91.537,281.192,88.172,277.042,88.172z"/>
<g>
</g>
<g>
</g>
<g>
</g>
<g>
</g>
<g>
</g>
<g>
</g>
<g>
</g>
<g>
</g>
<g>
</g>
<g>
</g>
<g>
</g>
<g>
</g>
<g>
</g>
<g>
</g>
<g>
</g>
</svg>
