<?xml version="1.0" encoding="iso-8859-1"?>
<!-- Generator: Adobe Illustrator 19.0.0, SVG Export Plug-In . SVG Version: 6.00 Build 0)  -->
<svg xmlns="http://www.w3.org/2000/svg" xmlns:xlink="http://www.w3.org/1999/xlink" version="1.1" id="Capa_1" x="0px" y="0px" viewBox="0 0 512 512" style="enable-background:new 0 0 512 512;" xml:space="preserve">
<path style="fill:#F1F1F0;" d="M484.447,215.922c0-115.1-93.307-208.407-208.407-208.407S67.633,100.822,67.633,215.922  l-40.078,80.157l40.078,24.047V440.36h80.157v64.125H404.29V380.199C453.08,342.054,484.447,282.653,484.447,215.922z"/>
<rect x="203.898" y="143.781" style="fill:#ACAAA4;" width="128.25" height="176.344"/>
<rect x="203.898" y="143.781" style="fill:#9F9C95;" width="24.047" height="176.344"/>
<circle style="fill:#B9E8DB;" cx="268.023" cy="207.906" r="32.063"/>
<path style="fill:#FAD55A;" d="M332.149,145.299c-3.916-12.328-10.981-29.774-24.047-48.049  c-13.916-19.464-29.218-32.286-40.078-40.04c-10.86,7.754-26.162,20.577-40.078,40.04c-13.066,18.275-20.131,35.721-24.047,48.049  C246.648,145.299,289.399,145.299,332.149,145.299z"/>
<path style="fill:#FEAD5A;" d="M280.048,65.041c-4.35-3.732-8.433-6.866-12.023-9.432c-10.86,7.761-26.162,20.596-40.078,40.078  c-13.066,18.292-20.131,35.754-24.047,48.094c8.016,0,16.031,0,24.047,0c3.916-12.34,10.981-29.802,24.047-48.094  C261.308,82.645,271.238,72.597,280.048,65.041z"/>
<polygon style="fill:#FAD55A;" points="332.149,321.478 380.243,321.478 332.149,273.429 "/>
<polygon style="fill:#FEAD5A;" points="203.899,320.125 155.805,320.125 203.899,272.031 "/>
<path style="fill:#FF9047;" d="M227.946,384.25c0-22.134,17.944-40.078,40.078-40.078c22.134,0,40.078,17.944,40.078,40.078  s-40.078,72.141-40.078,72.141S227.946,406.385,227.946,384.25z"/>
<path style="fill:#F1F1F0;" d="M251.993,376.235c0-8.854,7.177-16.031,16.031-16.031c8.854,0,16.031,7.177,16.031,16.031  s-16.031,32.063-16.031,32.063S251.993,385.089,251.993,376.235z"/>
<path d="M428.719,63.243C387.936,22.46,333.713,0,276.04,0S164.142,22.46,123.36,63.243  c-40.361,40.362-62.776,93.883-63.235,150.892l-39.292,78.584c-1.756,3.512-0.513,7.784,2.856,9.804l36.429,21.858v115.98  c0,4.15,3.364,7.515,7.515,7.515h72.642v56.611c0,4.15,3.364,7.515,7.515,7.515c4.151,0,7.515-3.365,7.515-7.515V440.36  c0-4.15-3.364-7.515-7.515-7.515H75.147v-112.72c0-2.639-1.385-5.086-3.649-6.444l-34.111-20.467l36.966-73.932  c0.522-1.044,0.794-2.193,0.794-3.361c0-110.772,90.12-200.892,200.892-200.892s200.892,90.12,200.892,200.892  c0,62.247-28.164,119.964-77.27,158.356c-1.822,1.424-2.887,3.608-2.887,5.921v124.287c0,4.15,3.364,7.515,7.515,7.515  c4.151,0,7.515-3.365,7.515-7.515V383.823c50.992-41.246,80.157-102.228,80.157-167.901  C491.961,158.247,469.502,104.024,428.719,63.243z"/>
<path d="M268.024,168.329c-21.823,0-39.577,17.755-39.577,39.577s17.755,39.577,39.577,39.577c21.823,0,39.577-17.755,39.577-39.577  S289.847,168.329,268.024,168.329z M268.024,232.454c-13.536,0-24.548-11.013-24.548-24.548c0-13.535,11.012-24.548,24.548-24.548  c13.536,0,24.548,11.012,24.548,24.548C292.572,221.441,281.56,232.454,268.024,232.454z"/>
<path d="M339.664,268.918V204.9c0-4.15-3.364-7.515-7.515-7.515c-4.151,0-7.515,3.365-7.515,7.515v107.71H211.414V151.296h113.221  v16.199c0,4.15,3.364,7.515,7.515,7.515c4.151,0,7.515-3.365,7.515-7.515v-23.713c0-0.768-0.122-1.552-0.356-2.283  c-5.704-17.974-14.147-34.856-25.091-50.179c-11.557-16.179-25.628-30.251-41.825-41.825c-2.612-1.868-6.125-1.868-8.738,0  c-16.197,11.574-30.268,25.645-41.824,41.825c-10.945,15.323-19.387,32.205-25.092,50.179c-0.232,0.73-0.356,1.516-0.356,2.282  v125.137l-45.894,45.894c-4.636,4.637-1.236,12.828,5.314,12.828h224.438c6.55,0,9.95-8.191,5.314-12.828L339.664,268.918z   M234.061,100.054c9.538-13.353,20.946-25.141,33.962-35.101c13.016,9.959,24.426,21.747,33.963,35.101  c8.021,11.229,14.574,23.373,19.553,36.212H214.507C219.485,123.427,226.039,111.283,234.061,100.054z M196.384,290.173v22.438  h-22.438L196.384,290.173z M339.664,312.611v-22.438l22.437,22.438H339.664z"/>
<path d="M268.024,336.658c-26.242,0-47.593,21.351-47.593,47.593c0,24.079,37.458,71.512,41.728,76.84  c2.962,3.694,8.766,3.694,11.728,0c4.271-5.329,41.729-52.761,41.729-76.84C315.617,358.008,294.266,336.658,268.024,336.658z   M268.023,444.123c-14.473-19.257-32.563-47.431-32.563-59.873c0-17.955,14.608-32.564,32.564-32.564  c17.956,0,32.564,14.609,32.564,32.564C300.588,396.679,282.496,424.859,268.023,444.123z"/>
<path d="M268.024,352.689c-12.983,0-23.546,10.563-23.546,23.546c0,10.389,13.29,30.436,17.363,36.334  c1.403,2.031,3.714,3.243,6.183,3.243s4.78-1.212,6.183-3.243c4.073-5.897,17.363-25.945,17.363-36.334  C291.57,363.251,281.007,352.689,268.024,352.689z M268.024,394.416c-4.921-8.204-8.498-15.661-8.517-18.183  c0-4.696,3.82-8.517,8.517-8.517c4.696,0,8.517,3.82,8.517,8.517C276.522,378.757,272.945,386.212,268.024,394.416z"/>
<path d="M260.509,288.063v8.016c0,4.15,3.364,7.515,7.515,7.515c4.151,0,7.515-3.365,7.515-7.515v-8.016  c0-4.15-3.364-7.515-7.515-7.515C263.873,280.548,260.509,283.913,260.509,288.063z"/>
<path d="M292.572,288.063v8.016c0,4.15,3.364,7.515,7.515,7.515c4.151,0,7.515-3.365,7.515-7.515v-8.016  c0-4.15-3.364-7.515-7.515-7.515C295.936,280.548,292.572,283.913,292.572,288.063z"/>
<path d="M228.447,288.063v8.016c0,4.15,3.364,7.515,7.515,7.515c4.151,0,7.515-3.365,7.515-7.515v-8.016  c0-4.15-3.364-7.515-7.515-7.515C231.81,280.548,228.447,283.913,228.447,288.063z"/>
<g>
</g>
<g>
</g>
<g>
</g>
<g>
</g>
<g>
</g>
<g>
</g>
<g>
</g>
<g>
</g>
<g>
</g>
<g>
</g>
<g>
</g>
<g>
</g>
<g>
</g>
<g>
</g>
<g>
</g>
</svg>
