<?xml version="1.0" encoding="iso-8859-1"?>
<!-- Generator: Adobe Illustrator 19.0.0, SVG Export Plug-In . SVG Version: 6.00 Build 0)  -->
<svg xmlns="http://www.w3.org/2000/svg" xmlns:xlink="http://www.w3.org/1999/xlink" version="1.1" id="Capa_1" x="0px" y="0px" viewBox="0 0 512 512" style="enable-background:new 0 0 512 512;" xml:space="preserve">
<path style="fill:#F1F1F0;" d="M484.447,215.922c0-115.1-93.307-208.407-208.407-208.407S67.633,100.822,67.633,215.922  l-40.078,80.157l40.078,24.047V440.36h80.157v64.125H404.29V380.199C453.08,342.054,484.447,282.653,484.447,215.922z"/>
<circle style="fill:#33C0C4;" cx="276.039" cy="223.937" r="112.219"/>
<circle style="fill:#7ECFC5;" cx="276.039" cy="223.937" r="88.172"/>
<path d="M428.719,63.243C387.936,22.46,333.713,0,276.04,0S164.142,22.46,123.36,63.243  c-40.361,40.362-62.776,93.883-63.235,150.892l-39.292,78.584c-1.756,3.512-0.513,7.784,2.856,9.804l36.429,21.858v115.98  c0,4.15,3.364,7.515,7.515,7.515h72.642v56.611c0,4.15,3.364,7.515,7.515,7.515c4.151,0,7.515-3.365,7.515-7.515V440.36  c0-4.15-3.364-7.515-7.515-7.515H75.147v-112.72c0-2.639-1.385-5.086-3.649-6.444l-34.111-20.467l36.966-73.932  c0.522-1.044,0.794-2.193,0.794-3.361c0-110.772,90.12-200.892,200.892-200.892s200.892,90.12,200.892,200.892  c0,62.247-28.164,119.964-77.27,158.356c-1.822,1.424-2.887,3.608-2.887,5.921v124.287c0,4.15,3.364,7.515,7.515,7.515  c4.151,0,7.515-3.365,7.515-7.515V383.823c50.992-41.246,80.157-102.228,80.157-167.901  C491.961,158.247,469.502,104.024,428.719,63.243z"/>
<path d="M156.306,223.937c0,66.022,53.712,119.734,119.734,119.734s119.734-53.712,119.734-119.734S342.061,104.204,276.04,104.204  S156.306,157.915,156.306,223.937z M276.04,119.233c57.734,0,104.704,46.97,104.704,104.704S333.774,328.642,276.04,328.642  s-104.705-46.97-104.705-104.704S218.305,119.233,276.04,119.233z"/>
<path d="M276.04,223.436c4.151,0,7.515-3.365,7.515-7.515v-56.11c0-4.15-3.364-7.515-7.515-7.515c-4.151,0-7.515,3.365-7.515,7.515  v56.11C268.525,220.072,271.889,223.436,276.04,223.436z"/>
<path d="M276.04,295.577c39.502,0,71.64-32.138,71.64-71.64c0-16.236-5.582-32.139-15.719-44.78  c-2.596-3.238-7.325-3.757-10.564-1.162c-3.237,2.596-3.758,7.326-1.162,10.564c8.122,10.13,12.415,22.364,12.415,35.38  c0,31.215-25.396,56.611-56.611,56.611s-56.611-25.396-56.611-56.611c0-13.014,4.292-25.248,12.413-35.378  c2.596-3.238,2.075-7.968-1.162-10.564c-3.24-2.596-7.968-2.075-10.564,1.163c-10.135,12.643-15.717,28.545-15.717,44.778  C204.4,263.44,236.538,295.577,276.04,295.577z"/>
<path d="M235.963,370.096c3.774,0,7.024-2.918,7.462-6.659c0.422-3.6-1.905-7.075-5.383-8.078  c-58.155-16.782-98.77-70.824-98.77-131.422s40.616-114.641,98.772-131.423c3.988-1.15,6.287-5.316,5.137-9.304  c-1.15-3.988-5.319-6.285-9.303-5.136c-30.987,8.941-58.886,28.058-78.561,53.827c-20.328,26.626-31.074,58.451-31.074,92.035  s10.745,65.409,31.074,92.035c19.674,25.769,47.573,44.886,78.559,53.827C234.572,370,235.273,370.096,235.963,370.096z"/>
<path d="M396.761,131.901c-19.675-25.77-47.576-44.886-78.564-53.827c-3.986-1.15-8.153,1.149-9.303,5.137  c-1.15,3.988,1.149,8.153,5.137,9.303c58.159,16.781,98.777,70.823,98.777,131.424c0,60.597-40.616,114.641-98.772,131.423  c-3.782,1.091-6.118,5.059-5.241,8.895c0.948,4.15,5.316,6.724,9.407,5.545c30.987-8.941,58.886-28.058,78.561-53.827  c20.328-26.626,31.074-58.451,31.074-92.035C427.836,190.353,417.09,158.527,396.761,131.901z"/>
<path d="M360.45,370.185c-25.541,14.774-54.728,22.582-84.41,22.582c-29.681,0-58.869-7.808-84.407-22.58  c-3.593-2.078-8.19-0.851-10.267,2.742c-2.078,3.592-0.851,8.189,2.742,10.268c27.821,16.092,59.611,24.599,91.932,24.599  c32.321,0,64.111-8.507,91.935-24.601c3.593-2.078,4.821-6.675,2.742-10.268C368.64,369.335,364.04,368.107,360.45,370.185z"/>
<path d="M364.989,79.157c3.483,0,6.586-2.484,7.343-5.884c0.701-3.151-0.754-6.486-3.54-8.117  c-28.028-16.405-60.101-25.077-92.753-25.077c-32.321,0-64.111,8.507-91.935,24.601c-3.545,2.05-4.793,6.723-2.742,10.268  c2.05,3.544,6.723,4.793,10.267,2.742c25.54-14.774,54.728-22.582,84.41-22.582c29.987,0,59.434,7.96,85.16,23.019  C362.393,78.825,363.7,79.157,364.989,79.157z"/>
<g>
</g>
<g>
</g>
<g>
</g>
<g>
</g>
<g>
</g>
<g>
</g>
<g>
</g>
<g>
</g>
<g>
</g>
<g>
</g>
<g>
</g>
<g>
</g>
<g>
</g>
<g>
</g>
<g>
</g>
</svg>
