<?xml version="1.0" encoding="iso-8859-1"?>
<!-- Generator: Adobe Illustrator 19.0.0, SVG Export Plug-In . SVG Version: 6.00 Build 0)  -->
<svg xmlns="http://www.w3.org/2000/svg" xmlns:xlink="http://www.w3.org/1999/xlink" version="1.1" id="Capa_1" x="0px" y="0px" viewBox="0 0 512 512" style="enable-background:new 0 0 512 512;" xml:space="preserve">
<path style="fill:#F1F1F0;" d="M484.446,215.922c0-115.1-93.307-208.407-208.407-208.407S67.632,100.822,67.632,215.922  l-40.078,80.157l40.078,24.047V440.36h80.157v64.125h256.501V380.199C453.078,342.054,484.446,282.653,484.446,215.922z"/>
<polygon style="fill:#7ECFC5;" points="107.71,360.204 251.992,175.843 396.273,360.204 "/>
<polygon style="fill:#33C0C4;" points="251.992,175.843 107.71,360.204 139.773,360.204 268.023,196.327 "/>
<polygon style="fill:#F1F1F0;" points="276.039,247.984 300.086,280.047 322.071,265.389 251.992,175.843 181.912,265.389   203.898,280.047 227.945,247.984 251.992,280.047 "/>
<polygon style="fill:#E3E3E1;" points="251.992,175.843 181.912,265.389 202.981,279.437 268.023,196.327 "/>
<polygon style="fill:#F5577E;" points="251.992,103.703 332.148,103.703 300.086,79.656 332.148,55.609 251.992,55.609 "/>
<rect x="251.991" y="55.609" style="fill:#CE384F;" width="16.031" height="48.094"/>
<path style="fill:#C8C7C2;" d="M404.289,167.828c-2.824,0-5.533,0.491-8.051,1.386c0.02-0.46,0.035-0.921,0.035-1.386  c0-17.708-14.355-32.063-32.063-32.063c-17.708,0-32.063,14.355-32.063,32.063c0,0.465,0.015,0.926,0.035,1.386  c-2.518-0.895-5.226-1.386-8.051-1.386c-13.281,0-24.047,10.766-24.047,24.047h128.25  C428.336,178.594,417.569,167.828,404.289,167.828z"/>
<g>
	<path style="fill:#BAB9B3;" d="M340.164,167.828c2.825,0,5.533,0.491,8.051,1.386c-0.02-0.46-0.035-0.921-0.035-1.386   c0-14.94,10.218-27.494,24.047-31.053c-2.562-0.659-5.248-1.01-8.016-1.01c-17.708,0-32.063,14.355-32.063,32.063   c0,0.457,0.015,0.91,0.034,1.362C334.68,168.311,337.364,167.828,340.164,167.828z"/>
	<path style="fill:#BAB9B3;" d="M412.27,169.189c0,0.008,0,0.016-0.001,0.023c0.012-0.004,0.025-0.007,0.037-0.011   C412.294,169.197,412.282,169.194,412.27,169.189z"/>
	<path style="fill:#BAB9B3;" d="M332.146,169.202c-2.507-0.887-5.203-1.375-8.014-1.375c-13.281,0-24.047,10.766-24.047,24.047   h16.031C316.117,181.406,322.808,172.504,332.146,169.202z"/>
</g>
<path style="fill:#C8C7C2;" d="M203.898,135.765c-2.825,0-5.533,0.491-8.051,1.386c0.02-0.46,0.035-0.921,0.035-1.386  c0-17.708-14.355-32.063-32.063-32.063s-32.063,14.355-32.063,32.063c0,0.465,0.015,0.926,0.035,1.386  c-2.518-0.895-5.226-1.386-8.051-1.386c-13.281,0-24.047,10.766-24.047,24.047h128.25  C227.945,146.531,217.178,135.765,203.898,135.765z"/>
<g>
	<path style="fill:#BAB9B3;" d="M211.878,137.127c0,0.008,0,0.016-0.001,0.023c0.012-0.004,0.025-0.007,0.037-0.011   C211.902,137.135,211.89,137.132,211.878,137.127z"/>
	<path style="fill:#BAB9B3;" d="M139.773,135.765c2.825,0,5.533,0.491,8.051,1.386c-0.02-0.46-0.035-0.921-0.035-1.386   c0-14.94,10.218-27.494,24.047-31.053c-2.562-0.659-5.248-1.01-8.016-1.01c-17.708,0-32.063,14.355-32.063,32.063   c0,0.457,0.015,0.91,0.034,1.362C134.289,136.248,136.973,135.765,139.773,135.765z"/>
	<path style="fill:#BAB9B3;" d="M131.755,137.14c-2.507-0.887-5.203-1.375-8.014-1.375c-13.281,0-24.047,10.766-24.047,24.047   h16.031C115.726,149.344,122.417,140.441,131.755,137.14z"/>
</g>
<path d="M428.718,63.243C387.935,22.46,333.712,0,276.039,0c-57.675,0-111.898,22.46-152.679,63.243  c-40.362,40.362-62.777,93.883-63.235,150.892l-39.292,78.584c-1.756,3.512-0.512,7.784,2.855,9.804l36.43,21.858v115.98  c0,4.15,3.365,7.515,7.515,7.515h72.642v56.611c0,4.15,3.365,7.515,7.515,7.515s7.515-3.365,7.515-7.515V440.36  c0-4.15-3.365-7.515-7.515-7.515H75.147v-112.72c0-2.639-1.385-5.086-3.648-6.444l-34.112-20.467l36.966-73.932  c0.522-1.044,0.794-2.193,0.794-3.361c0-110.772,90.12-200.892,200.892-200.892s200.892,90.12,200.892,200.892  c0,62.247-28.164,119.964-77.27,158.356c-1.822,1.424-2.887,3.608-2.887,5.921v124.287c0,4.15,3.364,7.515,7.515,7.515  c4.151,0,7.515-3.365,7.515-7.515V383.823c50.992-41.246,80.157-102.228,80.157-167.901  C491.96,158.247,469.501,104.024,428.718,63.243z"/>
<path d="M402.191,355.572L370.126,314.6c-2.559-3.269-7.284-3.845-10.549-1.286c-3.268,2.558-3.845,7.281-1.286,10.549  l32.065,40.972c2.727,3.486,8.037,3.825,11.194,0.721C404.237,362.912,404.513,358.539,402.191,355.572z"/>
<path d="M259.506,173.252v-62.035h72.642c3.095,0,5.946-1.973,7.034-4.871c1.16-3.089,0.116-6.675-2.525-8.656L312.61,79.656  l24.047-18.035c2.641-1.981,3.686-5.567,2.525-8.656c-1.088-2.898-3.939-4.871-7.034-4.871h-80.157c-4.15,0-7.515,3.365-7.515,7.515  v117.644l-142.686,182.32c-2.585,3.302-1.864,8.359,1.583,10.765c3.206,2.237,7.835,1.587,10.253-1.503l69.911-89.329l16.192,10.794  c3.277,2.185,7.819,1.404,10.18-1.743l18.035-24.047l18.035,24.047c2.957,3.943,9.067,3.944,12.023,0l18.035-24.047l18.035,24.047  c2.393,3.19,6.861,3.958,10.18,1.743l16.192-10.794l13.477,17.222c2.489,3.18,7.212,3.807,10.436,1.372  c3.309-2.5,3.96-7.362,1.399-10.634L259.506,173.252z M295.577,85.667l14.027,10.521h-50.098V63.123h50.098l-14.027,10.521  C291.633,76.601,291.633,82.711,295.577,85.667z M301.832,269.851l-19.782-26.376c-2.956-3.943-9.067-3.943-12.023,0l-18.035,24.047  l-18.035-24.047c-2.957-3.943-9.067-3.943-12.023,0l-19.782,26.376l-9.324-6.216l59.165-75.599l59.165,75.599L301.832,269.851z"/>
<path d="M391.774,175.259c2.011,1.483,4.624,1.872,6.98,1.036c1.777-0.631,3.641-0.952,5.535-0.952  c9.116,0,16.532,7.416,16.532,16.532c0,4.15,3.364,7.515,7.515,7.515c4.151,0,7.515-3.365,7.515-7.515  c0-17.403-14.159-31.562-31.562-31.562c-0.405,0-0.81,0.008-1.212,0.023c-3.51-18.255-19.602-32.087-38.865-32.087  c-19.263,0-35.355,13.832-38.866,32.086c-0.403-0.015-0.808-0.023-1.212-0.023c-17.403,0-31.562,14.159-31.562,31.562  c0,4.15,3.364,7.515,7.515,7.515h88.172c4.151,0,7.515-3.365,7.515-7.515s-3.364-7.515-7.515-7.515h-78.849  c2.741-5.348,8.312-9.018,14.724-9.018c1.895,0,3.757,0.321,5.535,0.952c2.356,0.836,4.97,0.448,6.98-1.036  c1.11-0.82,1.979-1.942,2.498-3.219c0.566-1.396,0.518-2.738,0.518-4.211c0-13.535,11.012-24.548,24.548-24.548  c13.536,0,24.548,11.012,24.548,24.548c0,1.477-0.051,2.811,0.518,4.211C389.795,173.316,390.665,174.44,391.774,175.259z"/>
<path d="M191.383,143.197c2.01,1.484,4.626,1.871,6.979,1.036c1.777-0.631,3.64-0.952,5.535-0.952  c9.116,0,16.532,7.416,16.532,16.532c0,4.15,3.365,7.515,7.515,7.515c4.15,0,7.515-3.365,7.515-7.515  c0-17.403-14.159-31.562-31.562-31.562c-0.405,0-0.81,0.008-1.212,0.023c-3.51-18.255-19.602-32.087-38.865-32.087  s-35.356,13.832-38.866,32.086c-0.404-0.015-0.808-0.023-1.212-0.023c-17.403,0-31.562,14.159-31.562,31.562  c0,4.15,3.365,7.515,7.515,7.515h88.172c4.15,0,7.515-3.365,7.515-7.515s-3.365-7.515-7.515-7.515h-78.849  c2.74-5.348,8.311-9.018,14.724-9.018c2.045,0,3.904,0.471,5.843,1.054c1.687,0.507,3.512,0.423,5.137-0.265  c1.537-0.65,2.831-1.814,3.64-3.273c0.902-1.626,0.91-3.229,0.91-5.031c0-13.535,11.012-24.548,24.548-24.548  c13.535,0,24.548,11.013,24.548,24.548c0,1.477-0.05,2.811,0.519,4.211C189.404,141.254,190.274,142.377,191.383,143.197z"/>
<g>
</g>
<g>
</g>
<g>
</g>
<g>
</g>
<g>
</g>
<g>
</g>
<g>
</g>
<g>
</g>
<g>
</g>
<g>
</g>
<g>
</g>
<g>
</g>
<g>
</g>
<g>
</g>
<g>
</g>
</svg>
