<?xml version="1.0" encoding="iso-8859-1"?>
<!-- Generator: Adobe Illustrator 19.0.0, SVG Export Plug-In . SVG Version: 6.00 Build 0)  -->
<svg xmlns="http://www.w3.org/2000/svg" xmlns:xlink="http://www.w3.org/1999/xlink" version="1.1" id="Capa_1" x="0px" y="0px" viewBox="0 0 512 512" style="enable-background:new 0 0 512 512;" xml:space="preserve">
<path style="fill:#F1F1F0;" d="M484.447,215.922c0-115.1-93.307-208.407-208.407-208.407S67.633,100.822,67.633,215.922  l-40.078,80.157l40.078,24.047V440.36h80.157v64.125H404.29V380.199C453.079,342.054,484.447,282.653,484.447,215.922z"/>
<path style="fill:#74D0E3;" d="M410.283,173.171c6.287-8.129,10.038-18.319,10.038-29.39c0-26.562-21.532-48.094-48.094-48.094  c-12.392,0-23.687,4.689-32.214,12.387c-1.864-24.858-22.608-44.45-47.942-44.45c-19.214,0-35.79,11.271-43.494,27.559  c-10.392-7.258-23.026-11.528-36.663-11.528c-34.284,0-62.283,26.906-64.036,60.754c-23.543,9.493-40.167,32.539-40.167,59.481  c0,35.415,28.71,64.125,64.125,64.125c13.985,0,26.914-4.491,37.452-12.089l114.845,12.089l40.078,80.157l24.047-16.031  l-16.786-67.142c5.226,1.947,10.88,3.017,16.786,3.017c26.562,0,48.094-21.532,48.094-48.094  C436.353,197.3,425.762,181.163,410.283,173.171z"/>
<g>
	<polyline style="fill:#53AAD4;" points="209.288,251.927 324.134,264.016 364.212,344.172 372.844,338.417 332.149,247.984    219.93,239.969  "/>
</g>
<rect x="227.254" y="109.486" transform="matrix(-0.7071 -0.7071 0.7071 -0.7071 301.827 446.0104)" style="fill:#E3E3E1;" width="32.062" height="102.018"/>
<rect x="227.658" y="109.083" transform="matrix(-0.7071 0.7071 -0.7071 -0.7071 529.2051 100.9806)" style="fill:#F1F1F0;" width="32.062" height="102.018"/>
<g>
	<path style="fill:#53AAD4;" d="M172.344,151.81c-0.329-2.631-0.509-5.308-0.509-8.029c0-31.304,22.436-57.353,52.102-62.983   c-3.897-0.739-7.912-1.142-12.023-1.142c-35.415,0-64.125,28.71-64.125,64.125c0,4.683,0.516,9.245,1.469,13.643   c6.733-3.587,14.416-5.627,22.578-5.627C172.006,151.796,172.175,151.807,172.344,151.81z"/>
	<path style="fill:#53AAD4;" d="M131.758,199.89c0-15.623,6.39-29.749,16.693-39.922c-1.381-6.06-2.996-11.956-6.576-16.774   c-20.316,10.759-34.164,32.106-34.164,56.696c0,35.415,28.71,64.125,64.125,64.125c14.234,0,27.379-4.645,38.018-12.491   c-6.752,2.879-14.183,4.476-21.987,4.476C156.879,256,131.758,230.879,131.758,199.89z"/>
</g>
<path d="M428.719,63.243C387.937,22.46,333.714,0,276.04,0s-111.898,22.46-152.68,63.243  c-40.362,40.362-62.777,93.883-63.235,150.892l-39.292,78.584c-1.756,3.512-0.512,7.784,2.855,9.804l36.43,21.858v115.98  c0,4.15,3.365,7.515,7.515,7.515h72.642v56.611c0,4.15,3.365,7.515,7.515,7.515s7.515-3.365,7.515-7.515V440.36  c0-4.15-3.365-7.515-7.515-7.515H75.147v-112.72c0-2.639-1.385-5.086-3.648-6.444l-34.112-20.467l36.966-73.932  c0.522-1.044,0.794-2.193,0.794-3.361c0-110.772,90.12-200.892,200.892-200.892s200.892,90.12,200.892,200.892  c0,62.247-28.164,119.965-77.27,158.356c-1.822,1.424-2.887,3.608-2.887,5.921v124.287c0,4.15,3.365,7.515,7.515,7.515  s7.515-3.365,7.515-7.515V383.823c50.992-41.246,80.157-102.227,80.157-167.901C491.961,158.247,469.501,104.024,428.719,63.243z"/>
<path d="M381.757,271.154c2.152,0.251,4.334,0.377,6.501,0.377c30.663,0,55.609-24.946,55.609-55.609  c0-17.113-7.758-32.909-20.779-43.341c-0.046-0.039-0.087-0.082-0.135-0.119c-0.674-0.539-1.364-1.058-2.061-1.563  c-0.026-0.019-0.05-0.039-0.076-0.058c4.613-8.229,7.019-17.445,7.019-27.06c0-30.663-24.946-55.609-55.609-55.609  c-9.565,0-18.861,2.448-27.074,7.031c-7.099-22.69-28.43-39.093-53.081-39.093c-18.587,0-35.926,9.44-46.159,24.611  c-10.408-5.633-22.015-8.58-33.997-8.58c-36.566,0-66.957,27.397-71.146,63.194c-24.798,11.9-40.572,36.753-40.572,64.555  c0,39.502,32.138,71.64,71.64,71.64c14.139,0,27.709-4.084,39.432-11.839l33.4,3.516c4.129,0.435,7.826-2.559,8.26-6.687  c0.435-4.127-2.56-7.825-6.687-8.26l-19.774-2.081c3.051-3.596,5.77-7.469,8.048-11.574c2.014-3.629,0.704-8.204-2.925-10.217  c-3.629-2.013-8.204-0.703-10.217,2.925c-3.99,7.191-9.622,13.543-16.289,18.393c-0.063,0.043-0.13,0.081-0.192,0.126  c-9.68,6.98-21.111,10.669-33.057,10.669c-31.215,0-56.611-25.396-56.611-56.611c0-19.44,9.766-37.05,25.591-47.365  c1.169,9.533,4.234,18.762,9.047,27.081c2.211,3.823,7.406,4.908,10.969,2.283c3.041-2.24,3.931-6.541,2.041-9.808  c-4.952-8.56-7.569-18.347-7.569-28.3c0-0.518-0.143-1.022-0.121-1.541c0.021-0.486,0.174-0.956,0.199-1.442  c1.557-30.073,26.389-53.629,56.531-53.629c11.64,0,22.83,3.518,32.359,10.174c3.758,2.624,9.139,1.189,11.096-2.948  c6.683-14.129,21.089-23.257,36.702-23.257c19.972,0,36.946,14.753,40.047,34.157c-9.785,10.233-15.499,24.002-15.499,38.485  c0,10.997,3.207,21.633,9.274,30.758c2.446,3.679,7.7,4.435,11.09,1.594c2.896-2.426,3.515-6.773,1.425-9.916  c-4.423-6.651-6.76-14.409-6.76-22.436c0-11.671,5.084-22.708,13.642-30.336c7.375-6.557,17.069-10.243,26.938-10.243  c22.376,0,40.579,18.204,40.579,40.579c0,7.116-1.816,13.93-5.276,20c-6.137-2.265-12.668-3.468-19.272-3.468  c-4.15,0-7.515,3.365-7.515,7.515s3.365,7.515,7.515,7.515c8.383,0,16.581,2.604,23.425,7.448  c10.702,7.548,17.155,19.796,17.155,33.132c0,22.376-18.204,40.579-40.579,40.579c-4.104,0-8.226-0.627-12.142-1.858  c-16.462-5.173-28.438-20.574-28.438-38.722c0-4.15-3.365-7.515-7.515-7.515s-7.515,3.365-7.515,7.515  c0,22.397,13.316,41.73,32.441,50.534l14.592,58.371l-12.558,8.371l-36.272-72.543c-1.147-2.294-3.384-3.845-5.935-4.113  l-43.303-4.558c-4.123-0.431-7.825,2.56-8.26,6.687c-0.435,4.127,2.56,7.825,6.687,8.26l39.209,4.127l38.238,76.474  c1.989,3.978,7.181,5.365,10.889,2.892l24.047-16.031c2.642-1.761,3.893-4.994,3.122-8.075L381.757,271.154z"/>
<path d="M192.043,190.548l22.671,22.671c2.895,2.895,7.732,2.895,10.627,0l19.824-19.824l19.421,19.421  c2.895,2.895,7.732,2.895,10.627,0l22.671-22.671c2.935-2.935,2.935-7.693,0-10.627l-19.421-19.421l19.018-19.018  c2.935-2.935,2.935-7.693,0-10.627l-22.671-22.671c-2.935-2.935-7.693-2.935-10.627,0L245.164,126.8l-19.421-19.421  c-2.935-2.935-7.693-2.935-10.627,0l-22.671,22.671c-2.935,2.935-2.935,7.693,0,10.627l19.421,19.421l-19.824,19.824  C189.108,182.855,189.108,187.613,192.043,190.548z M269.497,123.721l12.045,12.045l-13.705,13.705l-12.045-12.045L269.497,123.721z   M220.43,123.318l61.514,61.514L269.9,196.877l-61.514-61.514L220.43,123.318z M222.493,170.724l12.045,12.045l-14.51,14.51  l-12.045-12.045L222.493,170.724z"/>
<g>
</g>
<g>
</g>
<g>
</g>
<g>
</g>
<g>
</g>
<g>
</g>
<g>
</g>
<g>
</g>
<g>
</g>
<g>
</g>
<g>
</g>
<g>
</g>
<g>
</g>
<g>
</g>
<g>
</g>
</svg>
