<?xml version="1.0" encoding="iso-8859-1"?>
<!-- Generator: Adobe Illustrator 19.0.0, SVG Export Plug-In . SVG Version: 6.00 Build 0)  -->
<svg xmlns="http://www.w3.org/2000/svg" xmlns:xlink="http://www.w3.org/1999/xlink" version="1.1" id="Capa_1" x="0px" y="0px" viewBox="0 0 512 512" style="enable-background:new 0 0 512 512;" xml:space="preserve">
<path style="fill:#F1F1F0;" d="M484.447,215.922c0-115.1-93.307-208.407-208.407-208.407S67.633,100.822,67.633,215.922  l-40.078,80.157l40.078,24.047V440.36h80.157v64.125H404.29V380.199C453.08,342.054,484.447,282.653,484.447,215.922z"/>
<path style="fill:#FAD55A;" d="M139.774,209.907c0,0,64.125-72.073,136.266-72.073c64.125,0,136.266,72.073,136.266,72.073  S348.181,281.98,276.04,281.98S139.774,209.907,139.774,209.907z"/>
<circle style="fill:#33C0C4;" cx="276.039" cy="207.906" r="48.094"/>
<path style="fill:#2D9396;" d="M292.071,239.969c-26.562,0-48.094-21.532-48.094-48.094c0-9.172,2.57-17.744,7.026-25.037  c-13.827,8.447-23.057,23.679-23.057,41.068c0,26.562,21.532,48.094,48.094,48.094c17.389,0,32.621-9.23,41.068-23.057  C309.814,237.399,301.243,239.969,292.071,239.969z"/>
<path d="M428.719,63.243C387.936,22.46,333.713,0,276.04,0c-57.676,0-111.898,22.46-152.68,63.243  c-40.361,40.361-62.776,93.882-63.235,150.892l-39.292,78.584c-1.756,3.512-0.513,7.784,2.856,9.804l36.429,21.858v115.98  c0,4.15,3.364,7.515,7.515,7.515h72.642v56.611c0,4.15,3.364,7.515,7.515,7.515c4.151,0,7.515-3.365,7.515-7.515V440.36  c0-4.15-3.364-7.515-7.515-7.515H75.147v-112.72c0-2.639-1.385-5.086-3.649-6.444l-34.111-20.467l36.966-73.932  c0.522-1.044,0.794-2.193,0.794-3.361c0-110.772,90.12-200.892,200.892-200.892s200.892,90.12,200.892,200.892  c0,62.247-28.164,119.964-77.27,158.356c-1.822,1.424-2.887,3.608-2.887,5.921v124.287c0,4.15,3.364,7.515,7.515,7.515  c4.151,0,7.515-3.365,7.515-7.515V383.823c50.992-41.246,80.157-102.228,80.157-167.901  C491.961,158.247,469.502,104.024,428.719,63.243z"/>
<path d="M417.922,212.899c2.644-2.974,2.511-7.493-0.303-10.306c-3.036-3.036-75.107-74.342-141.581-74.342  c-74.658,0-139.173,71.615-141.882,74.663c-2.531,2.848-2.531,7.138,0,9.986c2.709,3.048,67.225,74.663,141.883,74.663  c24.185,0,49.85-7.577,76.283-22.52c3.613-2.042,4.887-6.627,2.845-10.24c-2.044-3.613-6.627-4.887-10.24-2.844  c-24.15,13.653-47.326,20.574-68.888,20.574c-57.023,0-110.04-48.68-125.877-64.63c15.82-15.959,68.755-64.622,125.877-64.622  c50.591,0,108.093,48.853,125.615,64.904c-5.37,5.412-14.778,14.358-26.979,23.829c-3.278,2.545-3.874,7.265-1.329,10.544  c2.546,3.279,7.268,3.874,10.544,1.329C404.579,227.827,417.387,213.5,417.922,212.899z"/>
<path d="M220.431,207.906c0,30.663,24.946,55.609,55.609,55.609s55.609-24.946,55.609-55.609s-24.946-55.609-55.609-55.609  S220.431,177.243,220.431,207.906z M316.619,207.906c0,22.376-18.204,40.579-40.579,40.579s-40.579-18.204-40.579-40.579  s18.204-40.579,40.579-40.579S316.619,185.53,316.619,207.906z"/>
<path d="M283.554,111.718V87.671c0-4.15-3.364-7.515-7.515-7.515c-4.151,0-7.515,3.365-7.515,7.515v24.047  c0,4.15,3.364,7.515,7.515,7.515C280.191,119.233,283.554,115.868,283.554,111.718z"/>
<path d="M409.604,173.141l16.031-16.031c2.935-2.935,2.935-7.693,0-10.627c-2.936-2.935-7.693-2.935-10.628,0l-16.031,16.031  c-2.735,2.735-2.918,7.255-0.399,10.196C401.387,175.993,406.547,176.197,409.604,173.141z"/>
<path d="M348.174,135.265c2.429,0,4.811-1.175,6.259-3.348l16.031-24.047c2.302-3.453,1.369-8.119-2.084-10.42  c-3.452-2.302-8.119-1.37-10.42,2.084l-16.031,24.047C338.67,128.467,342.264,135.265,348.174,135.265z"/>
<path d="M147.789,175.342c6.571,0,9.943-8.199,5.314-12.828l-16.031-16.031c-2.936-2.935-7.693-2.935-10.628,0  c-2.935,2.935-2.935,7.693,0,10.627l16.031,16.031C143.943,174.609,145.867,175.342,147.789,175.342z"/>
<path d="M203.905,135.265c5.909,0,9.504-6.798,6.245-11.684l-16.031-24.047c-2.303-3.453-6.967-4.386-10.42-2.084  c-3.453,2.301-4.387,6.968-2.084,10.42l16.031,24.047C199.094,134.09,201.477,135.265,203.905,135.265z"/>
<g>
</g>
<g>
</g>
<g>
</g>
<g>
</g>
<g>
</g>
<g>
</g>
<g>
</g>
<g>
</g>
<g>
</g>
<g>
</g>
<g>
</g>
<g>
</g>
<g>
</g>
<g>
</g>
<g>
</g>
</svg>
