<?xml version="1.0" encoding="iso-8859-1"?>
<!-- Generator: Adobe Illustrator 19.0.0, SVG Export Plug-In . SVG Version: 6.00 Build 0)  -->
<svg xmlns="http://www.w3.org/2000/svg" xmlns:xlink="http://www.w3.org/1999/xlink" version="1.1" id="Capa_1" x="0px" y="0px" viewBox="0 0 512 512" style="enable-background:new 0 0 512 512;" xml:space="preserve">
<path style="fill:#F1F1F0;" d="M484.447,215.922c0-115.1-93.307-208.407-208.407-208.407S67.633,100.822,67.633,215.922  l-40.078,80.157l40.078,24.047V440.36h80.157v64.125H404.29V380.199C453.079,342.054,484.447,282.653,484.447,215.922z"/>
<path style="fill:#CC8FC8;" d="M380.243,111.718c-23.738,14.771-46.662,16.031-56.11,16.031c-27.959,0-48.088-11.041-56.11-16.031  c-8.022,4.991-28.151,16.031-56.11,16.031c-9.447,0-32.371-1.26-56.11-16.031c1.746,34.368-8.016,104.204,8.016,152.297  c20.403,61.209,56.11,72.141,104.204,120.235c48.094-48.094,83.801-59.026,104.204-120.235  C388.259,215.922,378.496,146.086,380.243,111.718z M227.946,223.937c-17.708,0-32.063-16.031-32.063-16.031  s14.355-16.031,32.063-16.031s32.063,16.031,32.063,16.031S245.653,223.937,227.946,223.937z M316.118,223.937  c-17.708,0-32.063-16.031-32.063-16.031s14.355-16.031,32.063-16.031s32.063,16.031,32.063,16.031S333.826,223.937,316.118,223.937z  "/>
<path style="fill:#A46EA0;" d="M181.219,256c-13.737-41.21-8.54-98.366-7.868-135.511c-5.663-2.2-11.58-5.058-17.547-8.771  c1.746,34.368-8.016,104.204,8.016,152.297c20.403,61.209,56.11,72.141,104.204,120.235c4.424-4.424,8.741-8.531,12.952-12.393  C235.125,327.413,200.988,315.308,181.219,256z"/>
<g>
	<path style="fill:#33C0C4;" d="M292.071,296.078c0-8.854,16.031-40.078,16.031-40.078s16.031,31.224,16.031,40.078   s-7.177,16.031-16.031,16.031S292.071,304.933,292.071,296.078z"/>
	<path style="fill:#33C0C4;" d="M340.165,384.25c0-8.854,16.031-40.078,16.031-40.078s16.031,31.224,16.031,40.078   s-7.177,16.031-16.031,16.031S340.165,393.105,340.165,384.25z"/>
	<path style="fill:#33C0C4;" d="M276.04,440.36c0-8.854,16.031-40.078,16.031-40.078s16.031,31.224,16.031,40.078   s-7.177,16.031-16.031,16.031S276.04,449.214,276.04,440.36z"/>
</g>
<path d="M428.719,63.243C387.937,22.46,333.714,0,276.04,0s-111.898,22.46-152.68,63.243  c-40.362,40.362-62.777,93.883-63.235,150.892l-39.292,78.584c-1.756,3.512-0.512,7.784,2.855,9.804l36.43,21.858v115.98  c0,4.15,3.365,7.515,7.515,7.515h72.642v56.611c0,4.15,3.365,7.515,7.515,7.515s7.515-3.365,7.515-7.515V440.36  c0-4.15-3.365-7.515-7.515-7.515H75.147v-112.72c0-2.639-1.385-5.086-3.648-6.444l-34.112-20.467l36.966-73.932  c0.522-1.044,0.794-2.193,0.794-3.361c0-110.772,90.12-200.892,200.892-200.892s200.892,90.12,200.892,200.892  c0,62.247-28.164,119.965-77.27,158.356c-1.822,1.424-2.887,3.608-2.887,5.921v124.287c0,4.15,3.365,7.515,7.515,7.515  s7.515-3.365,7.515-7.515V383.823c50.992-41.246,80.157-102.227,80.157-167.901C491.961,158.247,469.501,104.024,428.719,63.243z"/>
<path d="M387.748,112.1c0.302-5.937-6.415-9.911-11.475-6.762c-19.788,12.312-39.276,14.897-52.139,14.897  c-23.306,0-41.217-8.101-52.14-14.897c-2.431-1.513-5.51-1.513-7.94,0c-10.921,6.795-28.833,14.897-52.14,14.897  c-12.863,0-32.351-2.585-52.14-14.897c-5.059-3.148-11.778,0.825-11.475,6.762c0.491,9.655,0.04,22.262-0.481,36.86  c-0.127,3.558-0.258,7.21-0.378,10.937c-0.134,4.148,3.119,7.62,7.267,7.754c4.177,0.137,7.62-3.12,7.754-7.267  c0.12-3.71,0.25-7.345,0.377-10.887c0.327-9.151,0.626-17.538,0.689-25.032c18.604,8.757,36.113,10.799,48.387,10.799  c24.198,0,43.35-7.579,56.11-14.808c12.76,7.228,31.911,14.808,56.11,14.808c12.274,0,29.782-2.042,48.387-10.8  c0.063,7.498,0.363,15.889,0.69,25.047c1.262,35.327,2.834,79.293-8.112,112.129c-13.634,40.901-34,57.873-62.188,81.364  c-10.53,8.775-22.293,18.577-34.886,30.717c-12.594-12.141-24.357-21.942-34.886-30.717c-28.188-23.491-48.555-40.462-62.188-81.364  c-5.603-16.81-8.529-38.575-8.943-66.537c-0.061-4.15-3.465-7.434-7.625-7.402c-4.15,0.061-7.464,3.475-7.402,7.625  c0.444,29.936,3.53,52.519,9.712,71.067c14.986,44.958,37.863,64.021,66.825,88.156c11.752,9.793,25.072,20.894,39.195,35.015  c2.893,2.894,7.734,2.894,10.627,0c14.123-14.122,27.443-25.222,39.195-35.015c28.963-24.135,51.839-43.199,66.825-88.156  c11.804-35.412,10.179-80.882,8.873-117.417C387.708,134.369,387.257,121.758,387.748,112.1z"/>
<path d="M223.969,231.452c20.827,0,36.983-17.777,37.661-18.533c2.555-2.854,2.555-7.172,0-10.026  c-0.677-0.756-16.834-18.533-37.661-18.533s-36.983,17.777-37.661,18.533c-2.555,2.854-2.555,7.172,0,10.026  C186.986,213.675,203.142,231.452,223.969,231.452z M223.969,199.389c8.278,0,15.953,4.658,20.883,8.508  c-4.944,3.854-12.639,8.526-20.883,8.526c-8.278,0-15.953-4.658-20.883-8.508C208.03,204.062,215.725,199.389,223.969,199.389z"/>
<path d="M349.802,212.919c2.555-2.854,2.555-7.172,0-10.026c-0.677-0.756-16.834-18.533-37.661-18.533  c-20.827,0-36.983,17.777-37.661,18.533c-2.555,2.854-2.555,7.172,0,10.026c0.677,0.756,16.835,18.533,37.661,18.533  C332.967,231.452,349.124,213.675,349.802,212.919z M312.141,216.423c-8.278,0-15.953-4.658-20.883-8.508  c4.944-3.854,12.639-8.526,20.883-8.526c8.278,0,15.953,4.658,20.883,8.508C328.08,211.751,320.385,216.423,312.141,216.423z"/>
<path d="M308.102,248.485c-2.818,0-5.399,1.576-6.685,4.082c-3.956,7.704-16.861,33.61-16.861,43.511  c0,12.983,10.563,23.546,23.546,23.546s23.546-10.563,23.546-23.546c0-9.9-12.905-35.807-16.861-43.511  C313.5,250.061,310.92,248.485,308.102,248.485z M316.619,296.078c0,4.696-3.82,8.517-8.517,8.517s-8.517-3.82-8.517-8.517  c0.015-2.937,3.776-12.511,8.517-22.859C312.843,283.564,316.603,293.139,316.619,296.078z"/>
<path d="M356.196,336.658c-2.818,0-5.399,1.576-6.685,4.082c-3.956,7.704-16.861,33.61-16.861,43.511  c0,12.983,10.563,23.546,23.546,23.546s23.546-10.563,23.546-23.546c0-9.9-12.905-35.807-16.861-43.511  C361.594,338.234,359.014,336.658,356.196,336.658z M356.196,392.767c-4.696,0-8.517-3.82-8.517-8.517  c0.015-2.937,3.776-12.511,8.517-22.859c4.74,10.344,8.501,19.919,8.517,22.859C364.713,388.947,360.892,392.767,356.196,392.767z"/>
<path d="M292.071,392.767c-2.818,0-5.399,1.576-6.685,4.082c-3.956,7.704-16.861,33.61-16.861,43.511  c0,12.983,10.563,23.546,23.546,23.546s23.546-10.563,23.546-23.546c0-9.9-12.905-35.807-16.861-43.511  C297.469,394.343,294.888,392.767,292.071,392.767z M292.071,448.877c-4.696,0-8.517-3.82-8.517-8.517  c0.015-2.937,3.776-12.511,8.517-22.859c4.74,10.344,8.501,19.919,8.517,22.859C300.588,445.056,296.767,448.877,292.071,448.877z"/>
<g>
</g>
<g>
</g>
<g>
</g>
<g>
</g>
<g>
</g>
<g>
</g>
<g>
</g>
<g>
</g>
<g>
</g>
<g>
</g>
<g>
</g>
<g>
</g>
<g>
</g>
<g>
</g>
<g>
</g>
</svg>
