<?xml version="1.0" encoding="iso-8859-1"?>
<!-- Generator: Adobe Illustrator 19.0.0, SVG Export Plug-In . SVG Version: 6.00 Build 0)  -->
<svg xmlns="http://www.w3.org/2000/svg" xmlns:xlink="http://www.w3.org/1999/xlink" version="1.1" id="Capa_1" x="0px" y="0px" viewBox="0 0 512 512" style="enable-background:new 0 0 512 512;" xml:space="preserve">
<path style="fill:#F1F1F0;" d="M484.447,215.922c0-115.1-93.307-208.407-208.407-208.407S67.633,100.822,67.633,215.922  l-40.078,80.157l40.078,24.047V440.36h80.157v64.125H404.29V380.199C453.079,342.054,484.447,282.653,484.447,215.922z"/>
<g>
	<path style="fill:#FEAD5A;" d="M278.946,56.825c-9.113-4.599-19.405-7.19-30.291-7.19c-37.199,0-67.463,30.263-67.463,67.463   c0,8.279,6.712,14.991,14.991,14.991c8.279,0,14.991-6.712,14.991-14.991c0-20.666,16.813-37.479,37.479-37.479   s37.479,16.813,37.479,37.479s-16.813,37.479-37.479,37.479c-8.279,0-14.991,6.712-14.991,14.991v44.975   c0,8.279,6.712,14.991,14.991,14.991c8.279,0,14.991-6.712,14.991-14.991v-31.662c30.007-6.836,52.47-33.737,52.47-65.783   c0-13.974-4.245-26.987-11.576-37.75C295.795,66.506,278.946,56.825,278.946,56.825z"/>
	<circle style="fill:#FEAD5A;" cx="248.655" cy="267.012" r="14.991"/>
</g>
<g>
	<path style="fill:#FAD55A;" d="M392.031,126.672c-30,0-54.405,24.383-54.405,54.354c0,6.671,5.413,12.079,12.09,12.079   c6.677,0,12.09-5.408,12.09-12.079c0-16.651,13.559-30.197,30.225-30.197c16.667,0,30.225,13.546,30.225,30.197   s-13.558,30.196-30.224,30.196c-6.677,0-12.09,5.408-12.09,12.079v36.236c0,6.671,5.413,12.079,12.09,12.079   c6.677,0,12.09-5.408,12.09-12.079v-25.51c24.199-5.508,42.315-27.181,42.315-53.002   C446.436,151.055,422.031,126.672,392.031,126.672z"/>
	<ellipse style="fill:#FAD55A;" cx="392.035" cy="301.809" rx="12.094" ry="12.074"/>
	<path style="fill:#FAD55A;" d="M149.445,206.874c-27.433,0-49.751,22.297-49.751,49.704c0,6.1,4.95,11.046,11.056,11.046   s11.056-4.946,11.056-11.046c0-15.226,12.399-27.613,27.639-27.613s27.639,12.387,27.639,27.613s-12.399,27.613-27.639,27.613   c-6.106,0-11.056,4.946-11.056,11.046v33.136c0,6.1,4.95,11.046,11.056,11.046c6.106,0,11.056-4.946,11.056-11.046v-23.327   c22.129-5.037,38.696-24.856,38.696-48.468C199.197,229.172,176.878,206.874,149.445,206.874z"/>
	<ellipse style="fill:#FAD55A;" cx="149.441" cy="367.027" rx="11.052" ry="11.042"/>
</g>
<path d="M428.719,63.243C387.937,22.46,333.714,0,276.04,0s-111.898,22.46-152.68,63.243  c-40.362,40.362-62.777,93.883-63.235,150.892l-39.292,78.584c-1.756,3.512-0.512,7.784,2.855,9.804l36.43,21.858v115.98  c0,4.15,3.365,7.515,7.515,7.515h72.642v56.611c0,4.15,3.365,7.515,7.515,7.515s7.515-3.365,7.515-7.515V440.36  c0-4.15-3.365-7.515-7.515-7.515H75.147v-112.72c0-2.639-1.385-5.086-3.648-6.444l-34.112-20.467l36.966-73.932  c0.522-1.044,0.794-2.193,0.794-3.361c0-110.772,90.12-200.892,200.892-200.892s200.892,90.12,200.892,200.892  c0,62.247-28.164,119.965-77.27,158.356c-1.822,1.424-2.887,3.608-2.887,5.921v124.287c0,4.15,3.365,7.515,7.515,7.515  s7.515-3.365,7.515-7.515V383.824c50.992-41.246,80.157-102.228,80.157-167.902C491.961,158.247,469.501,104.024,428.719,63.243z"/>
<path d="M300.326,73.127c-3.436,2.329-4.333,7.001-2.005,10.436c6.726,9.926,10.282,21.522,10.282,33.535  c0,27.717-19.674,52.302-46.691,58.457c-3.42,0.779-5.912,3.819-5.912,7.327v31.662c0,4.123-3.392,7.477-7.515,7.477  s-7.515-3.354-7.515-7.477v-44.975c0-4.123,3.458-7.477,7.581-7.477c24.809,0,45.046-20.184,45.046-44.994  S273.44,72.105,248.63,72.105s-44.981,20.184-44.981,44.994c0,4.123-3.348,7.477-7.471,7.477s-7.474-3.355-7.474-7.477  c0-33.056,26.894-59.948,59.949-59.948c9.457,0,18.511,2.148,26.906,6.384c3.703,1.87,8.224,0.382,10.095-3.323  c1.87-3.705,0.382-8.224-3.323-10.095c-10.515-5.305-21.845-7.996-33.676-7.996c-41.343,0-74.977,33.635-74.977,74.977  c0,12.41,10.097,22.506,22.506,22.506c12.409,0,22.506-10.097,22.506-22.506c0-16.522,13.442-29.965,29.965-29.965  s29.965,13.442,29.965,29.965s-13.545,29.965-30.068,29.965c-12.41,0-22.61,10.097-22.61,22.506v44.975  c0,12.41,10.134,22.506,22.544,22.506s22.544-10.096,22.544-22.506V188.62c14.027-4.419,26.587-12.954,35.883-24.452  c10.739-13.283,16.687-30,16.687-47.071c0-15.029-4.434-29.541-12.852-41.965C308.418,71.697,303.763,70.799,300.326,73.127z"/>
<path d="M248.655,244.508c-12.41,0-22.506,10.097-22.506,22.506c0,12.409,10.097,22.506,22.506,22.506  c12.41,0,22.506-10.097,22.506-22.506C271.161,254.604,261.065,244.508,248.655,244.508z M248.655,274.491  c-4.123,0-7.477-3.355-7.477-7.477s3.355-7.477,7.477-7.477c4.122,0,7.477,3.355,7.477,7.477S252.778,274.491,248.655,274.491z"/>
<path d="M392.031,156.287c12.522,0,22.71,10.188,22.71,22.71c0,12.522-10.288,22.71-22.811,22.71  c-10.81,0-19.704,8.794-19.704,19.604v36.27c0,10.81,8.728,19.604,19.538,19.604c10.81,0,19.538-8.794,19.538-19.604v-19.851  c11.022-3.735,21.278-10.646,28.727-19.86c8.869-10.97,13.837-24.776,13.837-38.875c0-34.143-27.735-61.92-61.878-61.92  s-61.899,27.777-61.899,61.92c0,10.81,8.805,19.604,19.615,19.604c10.81,0,19.61-8.794,19.61-19.604  C369.316,166.475,379.509,156.287,392.031,156.287z M354.292,178.998c0,2.523-2.052,4.575-4.575,4.575  c-2.523,0-4.575-2.052-4.575-4.575c0-25.856,21.035-46.891,46.891-46.891c25.856,0,46.891,21.035,46.891,46.891  c0,21.68-15.504,40.911-36.636,45.724c-3.42,0.779-6.012,3.819-6.012,7.327v25.534c0,2.523-1.986,4.575-4.509,4.575  c-2.523,0-4.509-2.052-4.509-4.575v-36.27c0-2.523,2.152-4.575,4.675-4.575c20.81,0,37.79-16.93,37.79-37.74  s-16.905-37.74-37.715-37.74S354.292,158.188,354.292,178.998z"/>
<path d="M411.637,299.899c0-10.81-8.794-19.604-19.604-19.604c-10.81,0-19.604,8.794-19.604,19.604  c0,10.81,8.794,19.604,19.604,19.604C402.842,319.503,411.637,310.709,411.637,299.899z M392.031,304.474  c-2.523,0-4.575-2.052-4.575-4.575c0-2.523,2.052-4.575,4.575-4.575c2.523,0,4.575,2.052,4.575,4.575  C396.606,302.422,394.554,304.474,392.031,304.474z"/>
<path d="M149.445,197.356c-31.577,0-57.266,25.689-57.266,57.266c0,10.24,8.33,18.57,18.57,18.57s18.57-8.33,18.57-18.57  c0-11.097,9.028-20.124,20.124-20.124c11.097,0,20.124,9.028,20.124,20.124s-9.088,20.124-20.184,20.124  c-10.24,0-18.63,8.33-18.63,18.57v33.168c0,10.24,8.296,18.57,18.536,18.57s18.536-8.33,18.536-18.57v-17.693  c23.045-7.853,38.789-29.738,38.789-54.17C206.617,223.046,181.022,197.356,149.445,197.356z M158.739,295.808  c-3.42,0.779-5.94,3.819-5.94,7.327v23.35c0,1.953-1.554,3.541-3.507,3.541s-3.507-1.588-3.507-3.541v-33.168  c0-1.952,1.648-3.541,3.601-3.541c19.384,0,35.184-15.77,35.184-35.154c0-19.384-15.755-35.154-35.139-35.154  s-35.147,15.77-35.147,35.154c0,1.953-1.585,3.541-3.537,3.541c-1.952,0-3.539-1.588-3.539-3.541  c0-23.29,18.948-42.236,42.237-42.236c23.288,0,42.189,18.947,42.189,42.236C191.634,274.15,177.773,291.471,158.739,295.808z"/>
<path d="M149.445,346.609c-10.24,0-18.57,8.33-18.57,18.57c0,10.24,8.331,18.57,18.57,18.57s18.57-8.33,18.57-18.57  C168.016,354.939,159.685,346.609,149.445,346.609z M149.445,368.72c-1.953,0-3.541-1.588-3.541-3.541s1.588-3.541,3.541-3.541  s3.541,1.588,3.541,3.541S151.398,368.72,149.445,368.72z"/>
<g>
</g>
<g>
</g>
<g>
</g>
<g>
</g>
<g>
</g>
<g>
</g>
<g>
</g>
<g>
</g>
<g>
</g>
<g>
</g>
<g>
</g>
<g>
</g>
<g>
</g>
<g>
</g>
<g>
</g>
</svg>
